{"glyphs":{"0":{"ha":694,"x_min":33,"x_max":661,"o":"m 661 468 q 574 116 661 250 q 349 -18 486 -18 q 122 115 211 -18 q 33 464 33 249 q 43 602 33 535 q 77 735 53 669 q 137 848 101 800 q 228 926 172 896 q 351 956 283 956 q 528 880 456 956 q 631 698 601 804 q 661 468 661 592 m 442 311 l 442 624 q 419 847 442 778 q 346 917 397 917 q 274 849 294 917 q 253 624 253 782 l 253 311 q 275 88 253 156 q 349 21 297 21 q 421 88 400 21 q 442 311 442 154 z "},"1":{"ha":694,"x_min":90,"x_max":613,"o":"m 613 0 l 94 0 l 94 33 q 228 62 197 35 q 258 179 258 89 l 258 704 q 208 801 258 801 q 118 779 175 801 l 90 768 l 90 804 l 439 956 l 464 956 l 464 164 q 491 60 464 85 q 613 33 518 35 l 613 0 z "},"2":{"ha":694,"x_min":24,"x_max":664,"o":"m 664 293 l 600 0 l 24 0 l 24 32 q 234 263 175 193 q 346 415 293 333 q 417 621 417 524 q 374 747 417 696 q 251 797 331 797 q 82 672 144 797 l 43 672 q 353 956 138 956 q 536 887 467 956 q 606 701 606 818 q 447 399 606 549 l 222 185 l 417 185 q 566 203 529 185 q 629 293 603 221 l 664 293 z "},"3":{"ha":694,"x_min":22,"x_max":650,"o":"m 81 728 l 51 744 q 369 956 161 956 q 535 899 472 956 q 597 765 597 843 q 569 664 597 713 q 481 589 540 615 q 605 494 560 561 q 650 342 650 426 q 531 85 650 189 q 233 -19 413 -19 q 80 15 138 -19 q 22 106 22 49 q 48 165 22 142 q 113 189 74 189 q 246 110 175 189 q 356 50 300 50 q 455 97 418 50 q 492 219 492 144 q 424 388 492 324 q 346 442 388 421 q 211 494 304 463 l 211 518 q 351 593 308 549 q 393 700 393 638 q 256 843 393 843 q 160 817 200 843 q 81 728 119 792 z "},"4":{"ha":694,"x_min":26,"x_max":661,"o":"m 661 200 l 572 200 l 572 0 l 371 0 l 371 200 l 26 200 l 26 357 l 461 956 l 572 956 l 572 354 l 661 354 l 661 200 m 372 354 l 372 763 l 83 354 l 372 354 z "},"5":{"ha":694,"x_min":31,"x_max":653,"o":"m 653 939 l 590 763 l 207 763 l 176 650 q 386 622 321 642 q 563 512 500 590 q 626 325 626 433 q 517 81 626 174 q 235 -11 408 -11 q 88 25 144 -11 q 31 111 31 61 q 55 172 31 147 q 115 196 79 196 q 254 132 179 196 q 379 74 322 74 q 478 115 438 74 q 518 218 518 156 q 467 344 518 289 q 321 429 417 399 q 71 460 253 450 l 206 939 l 653 939 z "},"6":{"ha":694,"x_min":39,"x_max":660,"o":"m 653 956 l 653 919 q 413 801 501 889 q 283 561 324 714 q 400 585 338 585 q 589 510 518 585 q 660 308 660 435 q 578 72 660 163 q 361 -18 496 -18 q 126 90 214 -18 q 39 381 39 197 q 232 793 39 624 q 397 895 317 867 q 653 956 476 924 m 449 229 q 421 457 449 392 q 325 522 393 522 q 274 508 290 522 q 256 340 256 493 q 293 60 256 132 q 364 19 314 19 q 431 63 413 19 q 449 229 449 106 z "},"7":{"ha":694,"x_min":24,"x_max":663,"o":"m 663 939 l 336 0 l 204 0 l 482 749 l 206 749 q 110 724 140 749 q 60 631 81 699 l 24 631 l 86 939 l 663 939 z "},"8":{"ha":694,"x_min":39,"x_max":656,"o":"m 656 260 q 569 58 656 133 q 333 -18 483 -18 q 119 45 200 -18 q 39 218 39 108 q 246 451 39 401 q 99 573 143 513 q 54 713 54 633 q 138 890 54 824 q 365 956 222 956 q 564 898 492 956 q 636 754 636 840 q 447 560 636 618 q 610 414 564 481 q 656 260 656 347 m 471 746 q 438 867 471 819 q 349 915 406 915 q 267 882 300 915 q 233 800 233 849 q 414 586 233 679 q 460 664 449 632 q 471 746 471 696 m 463 176 q 427 301 463 253 q 278 425 392 349 q 207 224 207 321 q 240 78 207 129 q 336 26 274 26 q 428 65 394 26 q 463 176 463 104 z "},"9":{"ha":694,"x_min":36,"x_max":657,"o":"m 43 -18 l 43 18 q 281 136 192 49 q 415 379 371 224 q 293 353 364 353 q 107 430 178 353 q 36 638 36 507 q 121 864 36 772 q 335 956 206 956 q 569 844 481 956 q 657 547 657 733 q 456 135 657 293 q 280 31 363 61 q 43 -18 197 0 m 440 640 q 406 872 440 803 q 331 918 382 918 q 265 876 283 918 q 247 713 247 833 q 274 483 247 551 q 365 415 301 415 q 422 428 404 415 q 429 456 428 431 q 440 575 440 499 l 440 640 z "}," ":{"ha":347,"x_min":0,"x_max":0,"o":""},"!":{"ha":463,"x_min":113,"x_max":349,"o":"m 251 325 l 208 325 q 181 525 194 454 q 138 694 168 596 q 113 821 113 775 q 143 923 113 886 q 229 960 174 960 q 315 922 282 960 q 347 818 347 885 q 322 694 347 774 q 278 524 292 594 q 251 325 265 453 m 349 99 q 314 16 349 50 q 231 -18 279 -18 q 147 15 181 -18 q 114 97 114 47 q 148 183 114 149 q 232 217 182 217 q 316 183 283 217 q 349 99 349 150 z "},"\"":{"ha":771,"x_min":115,"x_max":656,"o":"m 596 561 l 536 561 q 476 858 476 808 q 565 960 476 960 q 632 933 608 960 q 656 864 656 906 q 596 561 656 821 m 235 561 l 175 561 q 115 858 115 799 q 138 932 115 904 q 204 960 160 960 q 272 933 249 960 q 294 864 294 907 q 235 561 294 819 z "},"#":{"ha":694,"x_min":7,"x_max":688,"o":"m 688 579 l 553 579 l 528 393 l 647 393 l 647 292 l 513 292 l 472 0 l 364 0 l 404 292 l 247 292 l 207 0 l 99 0 l 139 292 l 7 292 l 7 393 l 154 393 l 179 579 l 47 579 l 47 681 l 193 681 l 235 972 l 342 972 l 301 681 l 458 681 l 500 972 l 607 972 l 567 681 l 688 681 l 688 579 m 444 579 l 288 579 l 263 393 l 419 393 l 444 579 z "},"$":{"ha":694,"x_min":40,"x_max":656,"o":"m 374 890 l 374 593 q 429 560 389 583 q 484 528 469 536 q 530 498 499 519 q 574 463 561 476 q 606 427 586 450 q 634 383 626 404 q 649 333 642 361 q 656 272 656 304 q 585 85 656 151 q 374 0 522 28 l 374 -137 l 296 -137 l 296 0 q 191 13 232 3 q 64 60 150 24 l 64 279 l 93 276 q 170 110 122 164 q 296 42 218 57 l 296 389 q 99 529 157 461 q 40 689 40 597 q 163 899 40 832 q 296 933 208 924 l 296 1042 l 374 1042 l 374 936 q 594 864 504 918 l 594 668 l 565 668 q 494 826 539 775 q 374 890 449 878 m 296 631 l 296 894 q 172 765 172 863 q 201 683 172 711 q 296 631 229 654 m 374 346 l 374 42 q 470 94 438 54 q 503 186 503 135 q 480 270 503 242 q 374 346 457 299 z "},"%":{"ha":1040,"x_min":85,"x_max":956,"o":"m 956 297 q 928 153 956 224 q 854 33 901 82 q 717 -25 800 -25 q 588 28 638 -25 q 539 167 539 82 q 620 374 539 285 q 810 463 701 463 q 917 419 878 463 q 956 297 956 375 m 921 306 q 897 385 921 354 q 839 417 874 417 q 753 353 796 417 q 697 232 719 303 q 675 106 675 161 q 744 14 675 14 q 854 85 806 14 q 921 306 921 188 m 869 981 l 261 -40 l 194 -40 l 733 869 q 576 811 656 811 q 493 829 539 811 q 497 771 497 789 q 470 624 497 697 q 400 508 443 551 q 260 447 339 447 q 133 501 182 447 q 85 640 85 556 q 167 847 85 758 q 358 936 249 936 q 457 896 407 936 q 572 854 510 854 q 695 884 640 854 q 803 981 750 914 l 869 981 m 461 778 q 453 827 461 813 q 417 853 444 842 q 388 868 401 860 q 360 881 368 881 q 267 777 315 881 q 218 581 218 674 q 288 489 218 489 q 408 578 354 489 q 461 778 461 667 z "},"&":{"ha":1157,"x_min":86,"x_max":1096,"o":"m 1096 157 l 1075 122 q 996 21 1029 46 q 867 -22 939 -22 q 766 4 811 -22 q 660 100 721 31 q 351 -21 500 -21 q 159 46 232 -21 q 86 232 86 113 q 149 403 86 328 q 358 539 213 478 q 300 649 314 608 q 286 739 286 690 q 360 902 286 844 q 567 960 433 960 q 728 913 667 960 q 789 792 789 867 q 739 676 789 725 q 578 588 689 628 l 788 290 q 872 407 850 365 q 893 492 893 449 q 878 532 893 522 q 804 549 864 542 l 804 582 l 1088 582 l 1088 549 q 1022 534 1042 544 q 986 493 1003 524 q 910 364 939 407 q 819 244 881 321 q 911 144 878 169 q 985 118 944 118 q 1068 174 1033 118 l 1096 157 m 649 740 q 610 862 649 810 q 521 914 572 914 q 468 893 488 914 q 449 836 449 872 q 551 628 449 747 q 626 672 604 646 q 649 740 649 697 m 628 139 q 586 197 621 150 q 525 281 551 244 q 458 379 499 318 q 382 497 417 440 q 302 435 325 464 q 279 367 279 406 q 379 143 279 246 q 503 85 433 85 q 628 139 553 85 z "},"'":{"ha":386,"x_min":104,"x_max":283,"o":"m 224 561 l 164 561 q 104 857 104 846 q 127 932 104 904 q 193 960 150 960 q 260 934 236 960 q 283 863 283 908 q 224 561 283 821 z "},"(":{"ha":463,"x_min":64,"x_max":425,"o":"m 425 -194 l 425 -233 q 268 -123 322 -172 q 160 4 214 -74 q 64 360 64 142 q 246 832 64 635 q 324 902 286 875 q 425 964 361 929 l 425 926 q 256 709 290 815 q 221 358 221 603 q 260 24 221 133 q 425 -194 299 -86 z "},")":{"ha":463,"x_min":38,"x_max":399,"o":"m 38 925 l 38 964 q 198 849 142 901 q 303 717 254 796 q 399 371 399 557 q 217 -101 399 96 q 139 -172 176 -144 q 38 -233 101 -199 l 38 -196 q 119 -126 86 -158 q 176 -53 153 -93 q 213 22 200 -12 q 232 116 225 57 q 240 228 239 175 q 242 372 242 281 q 206 715 242 613 q 38 925 171 818 z "},"*":{"ha":694,"x_min":78,"x_max":622,"o":"m 361 690 l 371 686 q 429 735 413 719 q 471 789 446 751 q 508 831 490 819 q 549 842 525 842 q 600 822 578 842 q 622 775 622 801 q 587 722 622 743 q 508 701 551 701 q 441 695 463 701 q 385 665 419 689 l 385 654 q 519 615 456 621 q 598 595 575 611 q 621 544 621 579 q 603 494 621 514 q 553 475 585 475 q 508 491 526 475 q 449 561 489 507 q 413 603 428 590 q 369 631 399 615 l 361 625 q 369 557 363 581 q 399 489 376 533 q 419 426 419 449 q 399 375 419 396 q 349 354 379 354 q 300 374 319 354 q 281 426 281 394 q 303 490 281 450 q 328 549 322 524 q 335 625 333 574 l 326 631 q 269 583 286 600 q 224 526 251 565 q 187 485 203 496 q 147 475 171 475 q 98 494 118 475 q 78 542 78 513 q 194 615 78 607 q 260 626 239 618 q 314 656 281 633 l 314 665 q 172 701 249 694 q 78 775 78 708 q 96 824 78 806 q 143 842 114 842 q 190 829 172 842 q 229 782 208 817 q 270 725 253 742 q 328 686 288 708 l 335 690 q 328 757 333 736 q 303 817 324 778 q 278 890 278 861 q 298 940 278 921 q 350 960 318 960 q 398 939 379 960 q 417 883 417 918 q 392 818 417 863 q 361 711 361 767 l 361 690 z "},"+":{"ha":1042,"x_min":90,"x_max":951,"o":"m 951 290 l 582 290 l 582 -79 l 460 -79 l 460 290 l 90 290 l 90 413 l 460 413 l 460 782 l 582 782 l 582 413 l 951 413 l 951 290 z "},",":{"ha":347,"x_min":54,"x_max":310,"o":"m 79 -250 l 64 -219 q 215 -35 215 -114 q 189 -6 215 -6 q 174 -7 185 -6 q 156 -8 163 -8 q 83 21 111 -8 q 54 97 54 50 q 86 183 54 151 q 171 215 118 215 q 273 172 236 215 q 310 54 310 129 q 79 -250 310 -129 z "},"-":{"ha":463,"x_min":61,"x_max":399,"o":"m 399 238 l 61 238 l 61 399 l 399 399 l 399 238 z "},".":{"ha":347,"x_min":57,"x_max":292,"o":"m 257 182 q 274 165 257 182 q 292 99 292 147 q 257 16 292 50 q 174 -18 222 -18 q 90 15 124 -18 q 57 99 57 49 q 92 182 57 147 q 175 217 126 217 q 257 182 222 217 z "},"/":{"ha":386,"x_min":-33,"x_max":419,"o":"m 419 960 l 92 -26 l -33 -26 l 294 960 l 419 960 z "},":":{"ha":463,"x_min":114,"x_max":349,"o":"m 315 621 q 332 603 315 621 q 349 538 349 586 q 314 455 349 489 q 231 421 279 421 q 148 455 182 421 q 114 539 114 489 q 148 622 114 588 q 232 656 182 656 q 315 621 281 656 m 314 182 q 331 165 314 182 q 349 99 349 147 q 314 16 349 50 q 231 -18 279 -18 q 147 15 181 -18 q 114 99 114 49 q 149 182 114 147 q 232 217 183 217 q 314 182 279 217 z "},";":{"ha":463,"x_min":114,"x_max":369,"o":"m 315 621 q 332 603 315 621 q 349 538 349 586 q 314 455 349 489 q 231 421 279 421 q 148 455 182 421 q 114 539 114 489 q 148 622 114 588 q 232 656 182 656 q 315 621 281 656 m 139 -250 l 124 -219 q 275 -35 275 -114 q 249 -6 275 -6 q 233 -7 244 -6 q 215 -8 222 -8 q 142 21 171 -8 q 114 97 114 50 q 146 183 114 151 q 231 215 178 215 q 333 172 296 215 q 369 54 369 129 q 139 -250 369 -129 z "},"<":{"ha":1042,"x_min":111,"x_max":931,"o":"m 931 -33 l 111 325 l 111 381 l 931 742 l 931 619 l 325 353 l 931 89 l 931 -33 z "},"=":{"ha":1042,"x_min":94,"x_max":947,"o":"m 947 432 l 94 432 l 94 554 l 947 554 l 947 432 m 947 149 l 94 149 l 94 271 l 947 271 l 947 149 z "},">":{"ha":1042,"x_min":111,"x_max":931,"o":"m 931 325 l 111 -33 l 111 89 l 717 353 l 111 619 l 111 742 l 931 381 l 931 325 z "},"?":{"ha":694,"x_min":79,"x_max":618,"o":"m 351 322 l 310 322 q 306 385 306 357 q 359 556 307 449 q 411 726 411 664 q 381 860 411 813 q 294 907 350 907 q 233 892 256 907 q 210 851 210 876 q 231 811 210 833 q 261 740 261 776 q 233 674 261 701 q 171 647 204 647 q 105 678 131 647 q 79 756 79 710 q 150 900 79 843 q 335 957 221 957 q 541 892 464 957 q 618 726 618 828 q 582 605 618 654 q 450 496 546 556 q 368 427 385 456 q 351 322 351 399 m 415 182 q 432 165 415 182 q 449 99 449 147 q 415 16 449 50 q 332 -18 381 -18 q 248 16 282 -18 q 214 99 214 50 q 249 182 214 147 q 333 217 283 217 q 415 182 381 217 z "},"@":{"ha":1292,"x_min":150,"x_max":1142,"o":"m 969 106 l 988 57 q 820 -9 886 8 q 676 -26 754 -26 q 302 113 454 -26 q 150 458 150 251 q 305 813 150 667 q 679 960 460 960 q 1010 840 879 960 q 1142 542 1142 719 q 1061 299 1142 397 q 872 200 981 200 q 788 228 821 200 q 749 303 756 256 q 574 200 671 200 q 478 245 514 200 q 443 358 443 290 q 519 608 443 494 q 725 721 596 721 q 783 706 763 721 q 826 647 804 692 l 842 703 l 940 703 l 849 342 q 846 317 846 328 q 894 250 846 250 q 1020 338 964 250 q 1076 535 1076 425 q 958 796 1076 686 q 676 906 839 906 q 390 777 503 906 q 278 451 278 649 q 392 153 278 269 q 688 38 506 38 q 969 106 821 38 m 801 571 q 739 654 801 654 q 606 566 661 654 q 550 386 550 478 q 572 298 550 331 q 632 265 594 265 q 747 360 699 265 q 801 571 801 468 z "},"A":{"ha":1003,"x_min":13,"x_max":957,"o":"m 957 0 l 510 0 l 510 35 l 554 39 q 603 52 589 42 q 618 85 618 63 q 554 274 618 125 l 242 274 l 224 226 q 181 92 181 115 q 206 52 181 65 q 293 35 232 39 l 293 0 l 13 0 l 13 35 q 86 74 61 43 q 150 201 111 104 l 457 958 l 496 958 l 804 233 q 885 72 857 108 q 957 35 914 35 l 957 0 m 533 328 l 393 665 l 263 328 l 533 328 z "},"B":{"ha":926,"x_min":22,"x_max":860,"o":"m 592 507 l 592 506 q 785 424 710 490 q 860 261 860 358 q 760 73 860 146 q 479 0 660 0 l 22 0 l 22 35 q 122 64 99 43 q 144 143 144 85 l 144 792 q 119 876 144 853 q 22 904 93 899 l 22 939 l 463 939 q 722 881 631 939 q 813 717 813 824 q 761 583 813 635 q 592 507 710 531 m 367 822 l 367 518 q 538 560 493 518 q 583 707 583 601 q 446 897 583 897 q 385 880 404 897 q 367 822 367 863 m 367 476 l 367 136 q 388 65 367 86 q 454 44 408 44 q 578 100 535 44 q 621 261 621 156 q 403 476 621 476 l 367 476 z "},"C":{"ha":1003,"x_min":68,"x_max":954,"o":"m 913 211 l 954 176 q 770 17 861 61 q 554 -26 679 -26 q 201 108 333 -26 q 68 449 68 242 q 203 815 68 671 q 550 960 339 960 q 767 911 649 960 q 831 892 811 892 q 863 905 850 892 q 892 956 876 918 l 929 956 l 929 629 l 894 629 q 801 789 864 715 q 569 914 697 914 q 385 798 457 914 q 314 479 314 682 q 389 146 314 264 q 476 69 419 99 q 593 40 532 40 q 768 88 682 40 q 913 211 825 119 z "},"D":{"ha":1003,"x_min":19,"x_max":958,"o":"m 19 939 l 453 939 q 824 817 690 939 q 958 479 958 694 q 916 275 958 372 q 799 113 874 178 q 449 0 669 0 l 19 0 l 19 35 q 107 61 79 36 q 135 136 135 86 l 135 811 q 110 878 135 858 q 19 904 86 897 l 19 939 m 360 831 l 360 139 q 377 69 360 90 q 440 49 394 49 q 647 149 576 49 q 698 280 679 194 q 717 458 717 365 q 660 751 717 651 q 433 892 579 892 q 360 831 360 892 z "},"E":{"ha":926,"x_min":22,"x_max":890,"o":"m 890 289 l 835 0 l 22 0 l 22 35 q 121 64 97 43 q 144 140 144 85 l 144 806 q 119 879 144 858 q 22 904 94 900 l 22 939 l 824 939 l 824 660 l 789 660 q 698 845 765 799 q 460 892 631 892 q 388 875 407 892 q 369 817 369 858 l 369 504 q 532 549 482 506 q 594 711 582 593 l 631 711 l 631 242 l 594 242 q 535 410 585 364 q 369 457 485 457 l 369 121 q 394 60 369 76 q 485 43 418 43 q 738 118 647 43 q 796 182 772 146 q 851 289 819 218 l 890 289 z "},"F":{"ha":849,"x_min":22,"x_max":810,"o":"m 810 658 l 776 658 q 746 772 763 738 q 693 838 729 806 q 467 892 631 892 q 392 876 414 892 q 369 821 369 860 l 369 504 q 521 549 474 504 q 582 711 568 594 l 617 711 l 617 242 l 582 242 q 525 408 572 363 q 369 457 478 454 l 369 140 q 399 60 369 81 q 522 35 428 39 l 522 0 l 22 0 l 22 35 q 122 64 99 43 q 144 143 144 85 l 144 799 q 119 879 144 858 q 22 904 94 900 l 22 939 l 810 939 l 810 658 z "},"G":{"ha":1081,"x_min":51,"x_max":1049,"o":"m 1049 399 l 1049 364 q 952 326 975 356 q 929 225 929 296 l 929 61 q 757 -3 861 21 q 544 -26 653 -26 q 191 107 331 -26 q 51 460 51 240 q 190 815 51 669 q 535 960 328 960 q 750 911 632 960 q 814 892 794 892 q 847 905 833 892 q 875 956 860 918 l 913 956 l 913 629 l 878 629 q 812 758 838 717 q 744 836 786 799 q 553 914 657 914 q 364 799 431 914 q 297 469 297 683 q 364 140 297 251 q 451 49 401 78 q 579 19 501 19 q 713 138 713 19 l 713 261 q 685 338 713 317 q 571 364 658 358 l 571 399 l 1049 399 z "},"H":{"ha":1081,"x_min":29,"x_max":1054,"o":"m 1054 0 l 583 0 l 583 35 q 683 63 658 43 q 707 136 707 83 l 707 453 l 372 453 l 372 136 q 396 62 372 81 q 496 35 419 43 l 496 0 l 29 0 l 29 35 q 125 63 103 44 q 147 136 147 82 l 147 801 q 124 878 147 858 q 29 904 100 897 l 29 939 l 496 939 l 496 904 q 397 878 422 899 q 372 801 372 858 l 372 518 l 707 518 l 707 801 q 682 878 707 858 q 583 904 657 899 l 583 939 l 1054 939 l 1054 904 q 958 878 983 899 q 932 801 932 857 l 932 136 q 955 63 932 82 q 1054 35 978 44 l 1054 0 z "},"I":{"ha":540,"x_min":28,"x_max":514,"o":"m 514 0 l 28 0 l 28 35 q 132 63 107 42 q 157 147 157 83 l 157 800 q 131 878 157 857 q 28 904 104 899 l 28 939 l 514 939 l 514 904 q 409 880 436 901 q 382 800 382 858 l 382 147 q 408 60 382 81 q 514 35 433 40 l 514 0 z "},"J":{"ha":694,"x_min":4,"x_max":664,"o":"m 664 939 l 664 904 q 565 874 588 899 q 542 772 542 849 l 542 175 q 247 -133 542 -133 q 97 -101 144 -133 q 31 -32 57 -74 q 4 51 4 10 q 34 122 4 90 q 103 154 64 154 q 172 122 142 154 q 203 49 203 90 q 184 1 203 28 q 165 -43 165 -26 q 228 -87 165 -87 q 296 -58 275 -87 q 317 38 317 -28 l 317 801 q 289 881 317 861 q 176 904 261 901 l 176 939 l 664 939 z "},"K":{"ha":1081,"x_min":42,"x_max":1068,"o":"m 1068 0 l 604 0 l 604 35 q 690 43 669 36 q 711 64 711 50 q 676 126 711 82 l 425 439 l 388 404 l 388 132 q 410 63 388 81 q 508 35 433 44 l 508 0 l 42 0 l 42 35 q 140 61 118 42 q 163 140 163 81 l 163 796 q 139 880 163 860 q 42 904 115 900 l 42 939 l 510 939 l 510 904 q 411 876 435 899 q 388 788 388 853 l 388 478 l 682 776 q 726 825 715 810 q 738 857 738 840 q 723 888 738 878 q 671 900 708 897 l 622 904 l 622 939 l 1024 939 l 1024 904 q 839 840 915 892 q 576 589 763 788 l 1000 64 q 1068 35 1022 36 l 1068 0 z "},"L":{"ha":926,"x_min":26,"x_max":886,"o":"m 886 315 l 828 0 l 26 0 l 26 35 q 124 63 103 44 q 146 136 146 81 l 146 800 q 122 879 146 858 q 26 904 97 900 l 26 939 l 510 940 l 510 906 q 395 878 419 901 q 371 768 371 854 l 371 124 q 397 60 371 78 q 489 43 422 43 q 725 119 640 43 q 846 315 783 174 l 886 315 z "},"M":{"ha":1311,"x_min":19,"x_max":1279,"o":"m 1279 0 l 818 0 l 818 35 q 918 65 894 42 q 942 151 942 89 l 942 840 l 592 0 l 554 0 l 204 825 l 204 179 q 232 69 204 99 q 344 35 260 40 l 344 0 l 19 0 l 19 35 q 124 63 101 43 q 146 150 146 83 l 146 801 q 122 878 146 858 q 22 904 99 899 l 22 939 l 374 939 l 650 283 l 929 939 l 1279 939 l 1279 904 q 1180 873 1203 899 q 1157 769 1157 847 l 1157 175 q 1178 69 1157 96 q 1279 35 1199 42 l 1279 0 z "},"N":{"ha":1003,"x_min":22,"x_max":974,"o":"m 974 939 l 974 904 q 885 873 904 893 q 865 789 865 853 l 865 -25 l 826 -25 l 206 732 l 206 182 q 231 73 206 101 q 336 35 256 44 l 336 0 l 22 0 l 22 35 q 122 66 99 44 q 144 151 144 88 l 144 804 q 26 904 72 904 l 26 939 l 319 939 l 804 342 l 804 757 q 779 869 804 840 q 676 904 754 897 l 676 939 l 974 939 z "},"O":{"ha":1081,"x_min":49,"x_max":1032,"o":"m 1032 465 q 894 111 1032 249 q 539 -26 756 -26 q 186 111 324 -26 q 49 464 49 249 q 189 822 49 685 q 547 960 329 960 q 894 820 757 960 q 1032 465 1032 681 m 786 456 q 722 796 786 678 q 535 914 657 914 q 357 795 419 914 q 294 458 294 676 q 358 130 294 240 q 542 19 422 19 q 724 131 661 19 q 786 456 786 242 z "},"P":{"ha":849,"x_min":22,"x_max":833,"o":"m 22 939 l 460 939 q 735 876 638 939 q 833 688 833 813 q 787 542 833 604 q 654 449 740 481 q 556 427 610 432 q 364 421 503 422 l 364 154 q 383 64 364 83 q 485 35 403 44 l 485 0 l 22 0 l 22 35 q 85 47 68 39 q 128 89 117 60 q 139 175 139 118 l 139 768 q 117 873 139 849 q 22 904 96 897 l 22 939 m 364 842 l 364 469 q 544 514 494 471 q 594 672 594 557 q 557 840 594 789 q 433 890 519 890 q 364 842 364 890 z "},"Q":{"ha":1081,"x_min":49,"x_max":1032,"o":"m 1014 -162 l 1022 -196 q 774 -244 896 -244 q 457 -122 579 -244 q 379 -3 417 -82 q 135 169 222 44 q 49 458 49 293 q 187 821 49 682 q 540 960 325 960 q 894 821 757 960 q 1032 454 1032 682 q 940 161 1032 279 q 681 -8 849 43 q 746 -107 713 -74 q 917 -179 818 -179 q 1014 -162 958 -179 m 786 465 q 722 799 786 685 q 539 914 658 914 q 358 798 422 914 q 294 465 294 682 q 357 134 294 249 q 540 19 419 19 q 723 135 660 19 q 786 465 786 250 z "},"R":{"ha":1003,"x_min":36,"x_max":994,"o":"m 994 0 l 710 0 l 422 435 l 383 435 l 383 163 q 403 67 383 88 q 506 35 424 46 l 506 0 l 36 0 l 36 35 q 138 65 118 44 q 158 167 158 86 l 158 765 q 135 873 158 847 q 36 904 113 899 l 36 939 l 464 939 q 875 700 875 939 q 813 536 875 594 q 657 457 754 483 l 933 65 q 994 35 954 35 l 994 0 m 383 829 l 383 479 q 582 522 526 481 q 638 686 638 564 q 596 844 638 796 q 457 892 554 892 q 400 878 417 892 q 383 829 383 864 z "},"S":{"ha":772,"x_min":49,"x_max":713,"o":"m 672 658 l 633 658 q 536 839 597 776 q 365 917 461 917 q 253 878 294 917 q 213 779 213 840 q 242 697 213 729 q 356 621 271 665 q 451 572 381 607 q 561 514 521 536 q 671 412 629 476 q 713 269 713 347 q 617 56 713 138 q 368 -26 522 -26 q 188 7 283 -26 q 131 21 144 21 q 104 10 114 21 q 89 -26 94 0 l 49 -26 l 49 318 l 89 318 q 172 119 121 185 q 372 19 251 19 q 500 62 453 19 q 547 176 547 104 q 468 299 547 243 q 299 389 433 324 q 118 514 175 449 q 61 681 61 579 q 142 886 61 813 q 365 960 224 960 q 528 928 442 960 q 586 914 569 914 q 615 924 606 914 q 631 961 624 933 l 672 961 l 672 658 z "},"T":{"ha":926,"x_min":43,"x_max":883,"o":"m 883 660 l 843 660 q 765 837 825 783 q 576 894 704 890 l 576 163 q 599 63 576 83 q 713 35 622 42 l 713 0 l 217 0 l 217 35 q 328 63 306 42 q 351 163 351 85 l 351 894 q 162 837 222 890 q 83 660 101 783 l 43 660 l 47 939 l 881 939 l 883 660 z "},"U":{"ha":1003,"x_min":22,"x_max":974,"o":"m 974 939 l 974 904 q 886 871 907 894 q 865 786 865 847 l 865 350 q 760 50 865 133 q 504 -26 665 -26 q 247 49 343 -26 q 162 158 188 96 q 136 321 136 221 l 136 771 q 117 875 136 853 q 22 904 97 897 l 22 939 l 489 939 l 489 904 q 381 872 406 897 q 357 764 357 847 l 357 322 q 560 42 357 42 q 804 350 804 42 l 804 767 q 776 869 804 842 q 669 904 747 897 l 669 939 l 974 939 z "},"V":{"ha":1003,"x_min":22,"x_max":974,"o":"m 974 939 l 974 904 q 897 876 919 897 q 849 790 874 856 l 532 -25 l 494 -25 l 139 807 q 94 881 114 865 q 22 904 75 897 l 22 939 l 489 939 l 489 904 l 443 901 q 369 851 369 897 q 401 751 369 828 l 593 288 l 769 744 q 797 843 797 817 q 775 888 797 876 q 678 904 753 899 l 678 939 l 974 939 z "},"W":{"ha":1389,"x_min":26,"x_max":1363,"o":"m 1363 939 l 1363 904 q 1267 815 1293 897 l 989 -21 l 951 -21 l 714 642 l 456 -21 l 417 -21 l 122 815 q 88 882 104 867 q 26 904 71 897 l 26 939 l 435 939 l 435 904 q 363 888 381 900 q 346 846 346 876 q 356 800 346 828 l 522 294 l 686 722 l 638 856 q 538 904 621 900 l 538 939 l 971 939 l 971 904 l 953 903 q 889 889 907 900 q 871 853 871 878 q 890 775 871 835 l 1040 308 l 1196 785 q 1206 843 1206 813 q 1185 888 1206 875 q 1110 904 1165 901 l 1110 939 l 1363 939 z "},"X":{"ha":1003,"x_min":22,"x_max":971,"o":"m 971 0 l 499 0 l 499 35 l 538 38 q 610 76 610 42 q 581 151 610 106 l 440 376 l 388 306 q 283 158 310 200 q 257 93 257 115 q 281 54 257 67 q 369 35 306 42 l 369 0 l 22 0 l 22 35 q 104 57 74 40 q 167 113 135 74 l 410 419 l 135 824 q 82 886 103 871 q 24 904 61 901 l 24 939 l 504 939 l 504 904 l 461 901 q 409 890 424 900 q 394 858 394 881 q 415 807 394 839 l 550 599 l 628 706 q 693 802 678 774 q 708 853 708 831 q 693 888 708 878 q 638 901 678 897 l 608 904 l 608 939 l 956 939 l 956 904 q 830 862 876 897 q 694 701 783 826 l 583 547 l 836 154 q 910 58 885 79 q 971 35 935 36 l 971 0 z "},"Y":{"ha":1003,"x_min":21,"x_max":971,"o":"m 971 939 l 971 904 q 876 850 903 894 l 611 418 l 611 171 q 634 66 611 90 q 739 35 657 42 l 739 0 l 257 0 l 257 35 q 363 69 340 42 q 386 178 386 97 l 386 367 l 136 822 q 21 904 93 900 l 21 939 l 486 939 l 486 904 l 449 901 q 389 891 404 899 q 374 861 374 883 q 407 779 374 843 l 574 457 l 725 704 q 782 846 782 799 q 759 888 782 876 q 665 904 736 899 l 665 939 l 971 939 z "},"Z":{"ha":926,"x_min":39,"x_max":881,"o":"m 881 336 l 843 0 l 39 0 l 39 22 l 569 890 l 454 886 q 320 874 368 883 q 232 840 272 865 q 168 771 192 814 q 121 651 144 728 l 82 651 l 113 939 l 839 939 l 839 917 l 313 49 l 428 49 q 708 104 629 49 q 771 167 746 131 q 808 232 796 203 q 844 336 819 261 l 881 336 z "},"[":{"ha":463,"x_min":93,"x_max":418,"o":"m 418 -207 l 93 -207 l 93 942 l 418 942 l 418 896 l 331 896 q 255 878 272 896 q 238 799 238 860 l 238 -87 q 251 -147 238 -132 q 307 -161 264 -161 l 418 -161 l 418 -207 z "},"\\":{"ha":386,"x_min":-35,"x_max":421,"o":"m 421 -26 l 293 -26 l -35 960 l 94 960 l 421 -26 z "},"]":{"ha":463,"x_min":44,"x_max":369,"o":"m 369 -207 l 44 -207 l 44 -161 l 156 -161 q 212 -147 199 -161 q 225 -87 225 -133 l 225 799 q 208 878 225 860 q 132 896 190 896 l 44 896 l 44 942 l 369 942 l 369 -207 z "},"^":{"ha":807,"x_min":101,"x_max":707,"o":"m 707 432 l 583 432 l 404 810 l 225 432 l 101 432 l 349 939 l 460 939 l 707 432 z "},"_":{"ha":694,"x_min":0,"x_max":694,"o":"m 694 -174 l 0 -174 l 0 -104 l 694 -104 l 694 -174 z "},"`":{"ha":463,"x_min":11,"x_max":342,"o":"m 342 733 l 264 733 l 67 856 q 11 928 11 890 q 30 972 11 954 q 76 990 49 990 q 151 951 117 990 l 342 733 z "},"a":{"ha":694,"x_min":35,"x_max":678,"o":"m 657 89 l 678 60 q 522 -19 604 -19 q 445 2 471 -19 q 408 76 419 24 q 188 -19 303 -19 q 76 17 118 -19 q 35 128 35 54 q 128 283 35 221 q 407 389 197 329 l 407 483 q 381 582 407 551 q 294 613 356 613 q 230 599 256 613 q 204 561 204 585 q 219 529 204 546 q 246 471 246 497 q 219 411 246 435 q 151 388 193 388 q 85 413 108 388 q 61 482 61 438 q 134 610 61 564 q 326 657 207 657 q 526 608 454 657 q 599 471 599 560 l 599 108 q 628 69 599 69 q 643 75 638 69 l 657 89 m 407 135 l 407 340 q 238 172 238 293 q 258 103 238 128 q 310 79 278 79 q 407 135 368 79 z "},"b":{"ha":772,"x_min":24,"x_max":724,"o":"m 293 939 l 293 579 q 463 657 367 657 q 651 567 578 657 q 724 332 724 476 q 636 78 724 175 q 410 -19 549 -19 q 226 60 313 -19 l 117 -18 l 100 -18 l 100 825 q 86 881 100 867 q 24 906 72 896 l 24 939 l 293 939 m 293 500 l 293 135 q 319 55 293 85 q 389 25 346 25 q 519 307 519 25 q 390 582 519 582 q 333 563 356 582 q 293 500 311 544 z "},"c":{"ha":617,"x_min":35,"x_max":597,"o":"m 572 151 l 597 126 q 478 15 540 49 q 332 -19 415 -19 q 117 71 200 -19 q 35 308 35 161 q 129 559 35 461 q 364 657 224 657 q 517 614 456 657 q 578 504 578 571 q 552 440 578 464 q 483 415 526 415 q 426 442 447 415 q 406 517 406 468 q 405 553 406 542 q 401 578 404 564 q 393 599 399 593 q 376 610 388 606 q 347 614 364 614 q 263 552 294 614 q 231 379 231 490 q 282 156 231 238 q 424 74 333 74 q 572 151 504 74 z "},"d":{"ha":772,"x_min":35,"x_max":742,"o":"m 742 28 l 656 17 q 471 -18 542 1 l 471 72 q 382 1 422 21 q 286 -19 342 -19 q 106 72 176 -19 q 35 307 35 164 q 110 558 35 458 q 301 657 186 657 q 385 638 349 657 q 467 571 422 619 l 467 825 q 449 887 467 874 q 361 906 431 900 l 361 939 l 660 939 l 660 140 q 677 79 660 96 q 742 60 694 63 l 742 28 m 467 156 l 467 493 q 422 556 451 533 q 358 579 393 579 q 240 318 240 579 q 349 58 240 58 q 440 110 399 58 q 467 156 467 144 z "},"e":{"ha":617,"x_min":35,"x_max":593,"o":"m 560 175 l 593 156 q 470 19 532 58 q 318 -19 408 -19 q 114 74 193 -19 q 35 311 35 168 q 115 562 35 467 q 325 657 194 657 q 503 588 440 657 q 585 340 576 507 l 235 340 q 246 242 239 282 q 269 163 253 203 q 319 101 286 122 q 400 81 351 81 q 481 102 444 81 q 560 175 517 124 m 414 392 l 414 421 q 401 549 414 522 q 369 599 385 583 q 325 614 353 614 q 251 563 275 614 q 228 392 228 513 l 414 392 z "},"f":{"ha":463,"x_min":19,"x_max":540,"o":"m 19 640 l 99 640 q 154 889 99 822 q 342 960 213 960 q 485 921 431 960 q 540 821 540 882 q 517 757 540 782 q 454 732 493 732 q 395 756 419 732 q 371 811 371 779 q 386 862 371 839 q 401 890 401 885 q 361 917 401 917 q 308 892 324 917 q 292 807 292 868 l 292 640 l 411 640 l 411 579 l 292 579 l 292 149 q 313 57 292 79 q 406 33 333 35 l 406 0 l 19 0 l 19 33 q 83 56 67 39 q 99 121 99 74 l 99 579 l 19 579 l 19 640 z "},"g":{"ha":694,"x_min":39,"x_max":671,"o":"m 353 94 l 425 94 q 604 49 538 94 q 671 -72 671 4 q 576 -228 671 -171 q 308 -286 481 -286 q 39 -158 39 -286 q 172 -54 39 -74 q 83 -6 107 -31 q 58 60 58 19 q 99 159 58 121 q 224 222 139 197 q 99 300 147 243 q 51 433 51 357 q 130 596 51 535 q 333 657 208 657 q 489 626 406 657 l 668 626 l 668 553 l 557 553 q 613 417 613 503 q 485 233 613 286 q 428 217 451 219 q 308 214 404 214 q 240 195 267 214 q 213 146 213 176 q 242 106 213 117 q 353 94 271 94 m 425 433 q 403 572 425 531 q 332 614 382 614 q 262 574 282 614 q 242 432 242 533 q 263 294 242 335 q 333 253 283 253 q 404 294 383 253 q 425 433 425 335 m 438 -72 l 210 -72 q 171 -111 181 -96 q 161 -149 161 -126 q 347 -242 161 -242 q 504 -216 447 -242 q 561 -150 561 -190 q 438 -72 561 -72 z "},"h":{"ha":772,"x_min":21,"x_max":742,"o":"m 742 0 l 417 0 l 417 33 q 466 56 451 38 q 481 118 481 75 l 481 429 q 465 534 481 504 q 410 564 450 564 q 313 517 360 564 q 289 483 289 493 l 289 118 q 303 57 289 75 q 356 33 317 39 l 356 0 l 22 0 l 22 33 q 84 56 72 43 q 96 124 96 68 l 96 821 q 83 883 96 869 q 21 906 71 896 l 21 939 l 289 939 l 289 550 q 493 657 379 657 q 625 604 576 657 q 674 468 674 551 l 674 121 q 690 53 674 74 q 742 33 706 33 l 742 0 z "},"i":{"ha":386,"x_min":21,"x_max":356,"o":"m 299 851 q 267 775 299 806 q 190 744 236 744 q 114 775 144 744 q 83 851 83 806 q 115 928 83 897 q 193 960 146 960 q 267 928 236 960 q 299 851 299 896 m 356 0 l 22 0 l 22 33 q 83 60 71 44 q 96 122 96 75 l 96 518 q 81 581 96 564 q 21 607 67 597 l 21 640 l 289 640 l 289 118 q 303 56 289 74 q 356 33 318 39 l 356 0 z "},"j":{"ha":463,"x_min":-79,"x_max":365,"o":"m 365 851 q 334 775 365 806 q 256 744 303 744 q 180 775 210 744 q 150 851 150 806 q 181 928 150 897 q 258 960 213 960 q 333 928 301 960 q 365 851 365 896 m 361 640 l 361 3 q 324 -176 361 -114 q 115 -282 264 -282 q -25 -243 29 -282 q -79 -143 -79 -204 q -56 -82 -79 -106 q 7 -58 -32 -58 q 65 -80 42 -58 q 89 -133 89 -101 q 69 -185 89 -156 q 57 -215 57 -206 q 101 -239 57 -239 q 152 -214 136 -239 q 168 -133 168 -189 l 168 525 q 151 586 168 569 q 81 607 133 603 l 81 640 l 361 640 z "},"k":{"ha":772,"x_min":31,"x_max":754,"o":"m 754 0 l 429 0 l 429 33 q 488 60 488 36 q 454 122 488 76 l 322 308 l 290 275 l 290 117 q 302 54 290 68 q 363 33 314 40 l 363 0 l 31 0 l 31 33 q 97 117 97 39 l 97 825 q 31 906 97 900 l 31 939 l 290 939 l 290 340 l 468 518 q 497 571 497 547 q 449 603 497 596 l 415 608 l 415 640 l 713 640 l 713 608 q 601 568 647 600 q 450 426 554 536 l 719 54 q 754 33 735 33 l 754 0 z "},"l":{"ha":386,"x_min":21,"x_max":356,"o":"m 356 0 l 22 0 l 22 33 q 93 121 93 39 l 93 815 q 21 906 93 900 l 21 939 l 286 939 l 286 121 q 303 55 286 75 q 356 33 319 35 l 356 0 z "},"m":{"ha":1157,"x_min":21,"x_max":1131,"o":"m 1131 0 l 801 0 l 801 33 q 854 53 840 36 q 868 115 868 71 l 868 432 q 794 564 868 564 q 714 529 754 564 q 689 504 701 519 q 676 483 676 489 l 676 115 q 690 56 676 75 q 740 33 704 38 l 740 0 l 418 0 l 418 33 q 469 54 456 36 q 483 115 483 72 l 483 449 q 466 538 483 511 q 408 564 449 564 q 337 533 382 564 q 292 478 292 501 l 292 115 q 305 57 292 75 q 354 33 318 39 l 354 0 l 22 0 l 22 33 q 83 59 68 42 q 99 119 99 76 l 99 518 q 83 583 99 567 q 21 607 68 600 l 21 640 l 288 640 l 288 536 l 292 536 q 378 628 332 600 q 492 657 425 657 q 597 629 557 657 q 669 536 638 601 q 769 630 724 603 q 874 657 814 657 q 1010 604 960 657 q 1061 460 1061 551 l 1061 115 q 1076 53 1061 71 q 1131 33 1090 35 l 1131 0 z "},"n":{"ha":772,"x_min":29,"x_max":749,"o":"m 749 0 l 424 0 l 424 33 q 473 56 458 38 q 488 117 488 75 l 488 446 q 417 564 488 564 q 319 517 367 564 q 296 483 296 493 l 296 117 q 310 58 296 76 q 363 33 325 39 l 363 0 l 29 0 l 29 33 q 89 60 75 43 q 103 121 103 76 l 103 522 q 89 583 103 567 q 29 607 75 600 l 29 640 l 294 640 l 294 536 l 296 536 q 493 657 364 657 q 630 603 579 657 q 681 460 681 550 l 681 117 q 694 53 681 69 q 749 33 708 36 l 749 0 z "},"o":{"ha":694,"x_min":35,"x_max":661,"o":"m 661 318 q 572 76 661 172 q 347 -19 482 -19 q 125 76 215 -19 q 35 317 35 171 q 124 563 35 468 q 353 657 214 657 q 573 561 485 657 q 661 318 661 465 m 457 303 q 433 547 457 481 q 349 614 410 614 q 262 548 285 614 q 239 303 239 482 q 264 88 239 151 q 349 24 289 24 q 433 85 408 24 q 457 303 457 147 z "},"p":{"ha":772,"x_min":26,"x_max":728,"o":"m 294 640 l 294 544 q 372 631 329 606 q 476 657 414 657 q 661 577 594 657 q 728 346 728 497 q 656 82 728 182 q 461 -18 585 -18 q 381 -1 414 -18 q 297 65 347 17 l 297 -110 q 320 -215 297 -182 q 404 -251 343 -249 l 404 -285 l 26 -285 l 26 -251 q 90 -226 75 -243 q 104 -164 104 -208 l 104 517 q 89 581 104 563 q 28 607 74 600 l 28 640 l 294 640 m 297 481 l 297 149 q 342 83 314 108 q 404 58 371 58 q 522 325 522 58 q 417 578 522 578 q 322 526 365 578 q 297 481 297 497 z "},"q":{"ha":772,"x_min":47,"x_max":744,"o":"m 744 -285 l 374 -285 l 374 -251 q 458 -219 440 -242 q 475 -125 475 -196 l 475 58 q 304 -19 414 -19 q 121 69 194 -19 q 47 304 47 157 q 133 556 47 454 q 356 657 218 657 q 447 640 408 657 q 539 579 486 624 l 646 656 l 668 656 l 668 -171 q 682 -227 668 -212 q 744 -251 696 -242 l 744 -285 m 475 136 l 475 492 q 449 581 475 549 q 382 613 424 613 q 285 542 321 613 q 250 328 250 471 q 285 124 250 192 q 379 56 319 56 q 447 77 418 56 q 475 136 475 99 z "},"r":{"ha":617,"x_min":39,"x_max":603,"o":"m 303 640 l 303 526 q 394 627 351 597 q 490 657 438 657 q 571 626 539 657 q 603 547 603 594 q 578 479 603 506 q 515 453 554 453 q 432 506 464 453 q 393 538 413 538 q 333 496 357 538 q 308 393 308 454 l 308 147 q 327 59 308 81 q 408 33 346 38 l 408 0 l 40 0 l 40 33 q 101 58 86 42 q 115 117 115 74 l 115 518 q 100 583 115 567 q 39 607 85 600 l 39 640 l 303 640 z "},"s":{"ha":540,"x_min":35,"x_max":501,"o":"m 472 453 l 438 453 q 372 567 411 531 q 268 611 325 611 q 203 588 229 611 q 176 531 176 565 q 208 466 176 494 q 310 408 239 438 q 458 315 414 365 q 501 192 501 265 q 442 40 501 99 q 288 -19 382 -19 q 138 13 215 -19 q 106 21 117 21 q 69 -18 90 21 l 35 -18 l 35 211 l 74 211 q 264 28 118 28 q 340 53 311 28 q 368 118 368 78 q 338 180 368 151 q 235 239 307 208 q 84 334 131 283 q 38 454 38 385 q 99 599 38 542 q 256 657 161 657 q 364 636 303 657 q 407 626 394 626 q 442 654 431 626 l 472 654 l 472 453 z "},"t":{"ha":463,"x_min":26,"x_max":461,"o":"m 426 156 l 461 140 q 372 19 418 54 q 256 -17 325 -17 q 142 23 183 -17 q 100 132 100 63 l 100 579 l 26 579 l 26 617 q 140 716 94 663 q 258 875 186 769 l 293 875 l 293 640 l 425 640 l 425 579 l 293 579 l 293 165 q 347 82 293 82 q 426 156 388 82 z "},"u":{"ha":772,"x_min":22,"x_max":747,"o":"m 747 28 l 660 18 q 476 -18 544 6 l 476 72 q 377 1 422 21 q 275 -19 332 -19 q 139 33 188 -19 q 90 182 90 86 l 90 517 q 78 582 90 565 q 22 607 65 599 l 22 640 l 283 640 l 283 176 q 361 71 283 71 q 475 136 415 71 l 475 519 q 458 585 475 567 q 390 607 442 603 l 390 640 l 668 640 l 668 146 q 685 81 668 100 q 747 60 701 61 l 747 28 z "},"v":{"ha":694,"x_min":29,"x_max":674,"o":"m 674 640 l 674 607 q 626 591 640 604 q 593 531 613 578 l 371 -19 l 335 -19 l 168 392 q 76 588 103 553 q 29 607 65 601 l 29 640 l 376 640 l 376 607 l 351 604 q 303 571 303 599 q 315 528 303 558 l 425 246 l 525 499 q 540 561 540 535 q 524 595 540 586 q 464 607 508 604 l 464 640 l 674 640 z "},"w":{"ha":1003,"x_min":32,"x_max":982,"o":"m 982 640 l 982 607 q 941 588 956 601 q 913 538 926 574 l 697 -19 l 665 -19 l 524 411 l 350 -19 l 317 -19 l 111 500 q 72 583 85 565 q 32 607 58 601 l 32 640 l 340 640 l 340 607 q 288 568 288 600 q 342 408 288 551 l 404 244 l 499 482 q 490 508 493 499 q 460 590 471 576 q 408 607 449 603 l 408 640 l 733 640 l 733 607 q 681 597 694 604 q 667 574 667 590 q 704 426 667 554 q 751 250 736 317 l 800 381 q 861 558 861 544 q 847 592 861 582 q 794 607 833 603 l 794 640 l 982 640 z "},"x":{"ha":694,"x_min":17,"x_max":672,"o":"m 672 0 l 338 0 l 338 33 q 400 61 400 38 q 354 150 400 83 q 296 238 322 194 q 285 225 293 235 q 274 210 278 215 q 185 67 185 103 q 254 33 185 38 l 254 0 l 19 0 l 19 33 q 88 60 58 36 q 176 163 118 85 l 236 240 q 247 253 243 249 q 251 260 250 258 q 256 266 253 261 q 267 279 260 271 l 89 553 q 56 594 68 585 q 17 607 43 603 l 17 640 l 364 640 l 364 607 q 299 581 299 606 q 379 444 299 550 q 397 421 393 428 l 447 485 q 500 574 500 553 q 490 595 500 589 q 457 604 481 601 l 429 607 l 429 640 l 663 640 l 663 607 q 565 553 601 597 l 425 378 l 631 61 q 672 33 642 43 l 672 0 z "},"y":{"ha":694,"x_min":22,"x_max":669,"o":"m 669 640 l 669 607 q 619 588 636 603 q 586 531 603 574 l 381 -22 q 274 -239 318 -190 q 157 -285 231 -285 q 60 -254 97 -285 q 22 -175 22 -224 q 46 -108 22 -135 q 108 -82 69 -82 q 167 -103 143 -82 q 192 -154 192 -124 q 189 -174 192 -160 l 188 -182 q 194 -199 188 -192 q 211 -206 201 -206 q 303 -92 264 -206 l 328 -18 l 163 385 q 69 588 94 553 q 22 607 58 601 l 22 640 l 368 640 l 368 607 l 346 606 q 296 571 296 601 q 324 490 296 561 l 424 232 l 518 493 q 533 561 533 538 q 518 596 533 586 q 458 607 503 606 l 458 640 l 669 640 z "},"z":{"ha":617,"x_min":29,"x_max":583,"o":"m 583 222 l 561 0 l 29 0 l 29 35 l 354 596 q 161 569 207 596 q 89 443 115 543 l 53 443 l 63 640 l 578 640 l 578 604 l 257 44 l 297 44 q 424 62 382 44 q 501 126 467 79 q 544 222 529 168 l 583 222 z "},"{":{"ha":547,"x_min":31,"x_max":472,"o":"m 472 -226 l 472 -243 q 317 -230 369 -242 q 232 -190 264 -218 q 179 -47 179 -146 l 179 201 q 149 308 179 275 q 31 363 119 340 q 149 417 119 385 q 179 524 179 450 l 179 772 q 249 929 179 886 q 472 969 307 968 l 472 953 q 357 897 389 935 q 325 781 325 860 l 325 543 q 292 419 325 456 q 161 363 260 383 q 292 306 260 342 q 325 182 325 269 l 325 -56 q 358 -172 325 -135 q 472 -226 390 -210 z "},"|":{"ha":306,"x_min":92,"x_max":214,"o":"m 214 -26 l 92 -26 l 92 960 l 214 960 l 214 -26 z "},"}":{"ha":547,"x_min":75,"x_max":517,"o":"m 368 774 l 368 525 q 398 419 368 451 q 517 364 428 386 q 398 309 428 342 q 368 203 368 276 l 368 -46 q 299 -203 368 -160 q 75 -243 240 -242 l 75 -226 q 190 -171 158 -208 q 222 -54 222 -133 l 222 183 q 256 306 222 269 q 386 364 289 343 q 255 421 288 385 q 222 544 222 457 l 222 782 q 190 899 222 861 q 75 953 157 936 l 75 969 q 299 929 240 968 q 368 774 368 886 z "},"~":{"ha":722,"x_min":40,"x_max":682,"o":"m 632 463 l 682 365 q 596 273 635 300 q 508 246 557 246 q 365 292 451 246 q 208 340 278 340 q 90 240 136 340 l 40 338 q 116 428 76 400 q 211 457 156 457 q 397 399 268 457 q 510 363 481 363 q 632 463 572 363 z "}," ":{"ha":347,"x_min":0,"x_max":0,"o":""},"¡":{"ha":463,"x_min":114,"x_max":350,"o":"m 315 662 q 332 645 315 662 q 349 579 349 628 q 315 496 349 531 q 232 461 281 461 q 149 496 183 461 q 114 581 114 531 q 149 663 114 629 q 233 696 183 696 q 315 662 282 696 m 213 353 l 253 353 q 281 154 267 226 q 325 -19 294 82 q 350 -143 350 -100 q 319 -245 350 -208 q 232 -282 288 -282 q 146 -245 176 -282 q 115 -142 115 -208 q 140 -19 115 -100 q 213 353 192 149 z "},"¢":{"ha":694,"x_min":74,"x_max":636,"o":"m 611 151 l 636 126 q 513 13 572 46 q 371 -19 453 -19 q 301 -10 339 -19 l 236 -194 l 181 -194 l 251 7 q 163 68 197 33 q 74 310 74 160 q 165 558 74 458 q 396 657 257 657 q 479 646 435 657 l 540 817 l 596 817 l 529 628 q 617 506 617 578 q 592 441 617 465 q 525 417 567 417 q 464 444 490 417 l 350 125 q 465 74 401 74 q 611 151 547 74 m 446 551 l 446 556 q 429 597 446 581 q 386 614 413 614 q 301 551 332 614 q 269 381 269 488 q 313 178 269 269 l 446 551 z "},"£":{"ha":694,"x_min":29,"x_max":663,"o":"m 631 254 l 663 254 q 610 47 650 106 q 481 -22 563 -22 q 401 -3 438 -22 q 307 68 365 15 q 151 -18 240 -18 q 61 13 93 -18 q 29 100 29 43 q 176 228 29 228 q 247 218 208 228 q 190 428 244 278 l 54 428 l 54 518 l 165 518 q 146 682 146 628 q 176 807 146 747 q 256 903 206 867 q 428 950 324 950 q 581 908 525 950 q 638 793 638 865 q 613 719 638 746 q 543 693 588 693 q 481 718 504 693 q 457 783 457 743 q 458 815 457 794 q 460 849 460 835 q 444 893 461 878 q 399 908 428 908 q 342 885 364 908 q 321 822 321 861 q 375 518 321 757 l 533 518 l 533 428 l 382 428 q 385 353 385 375 q 357 186 385 268 q 490 156 442 156 q 585 176 556 156 q 631 254 615 197 m 251 119 q 151 164 201 164 q 94 144 115 164 q 74 92 74 125 q 94 42 74 61 q 151 24 115 24 q 214 46 190 24 q 251 119 238 68 z "},"¤":{"ha":694,"x_min":-36,"x_max":731,"o":"m 731 67 l 650 -14 l 517 122 q 347 71 433 71 q 178 122 261 71 l 44 -14 l -36 67 l 100 203 q 49 369 49 281 q 100 539 49 460 l -36 675 l 44 753 l 178 619 q 347 668 256 668 q 517 619 439 668 l 650 753 l 731 675 l 594 539 q 646 369 646 457 q 594 203 646 274 l 731 67 m 524 371 q 472 501 524 447 q 344 554 419 554 q 222 500 272 554 q 171 371 171 446 q 222 239 171 293 q 346 185 272 185 q 472 239 421 185 q 524 371 524 293 z "},"¥":{"ha":694,"x_min":-89,"x_max":760,"o":"m 760 939 l 760 903 q 671 851 696 897 l 471 475 l 625 475 l 625 406 l 443 406 l 438 390 l 438 297 l 625 297 l 625 228 l 438 228 l 438 160 q 463 65 438 89 q 575 35 489 42 l 575 0 l 115 0 l 115 35 q 231 65 204 42 q 257 160 257 89 l 257 228 l 69 228 l 69 297 l 257 297 l 257 376 l 242 406 l 69 406 l 69 475 l 207 475 l 26 829 q -89 903 -7 897 l -89 939 l 329 939 l 329 903 q 244 892 267 900 q 222 863 222 885 q 328 631 222 838 l 407 475 l 572 794 q 583 843 583 815 q 563 888 583 876 q 475 903 542 900 l 475 939 l 760 939 z "},"¦":{"ha":306,"x_min":92,"x_max":214,"o":"m 214 575 l 92 575 l 92 960 l 214 960 l 214 575 m 214 -26 l 92 -26 l 92 358 l 214 358 l 214 -26 z "},"§":{"ha":694,"x_min":79,"x_max":615,"o":"m 258 576 l 276 576 q 164 690 190 651 q 138 779 138 729 q 196 909 138 858 q 344 960 254 960 q 486 918 426 960 q 546 821 546 876 q 519 760 546 786 q 456 733 492 733 q 399 759 425 733 q 372 813 372 785 q 410 872 372 843 q 431 899 431 889 q 408 919 431 910 q 356 928 385 928 q 272 901 304 928 q 240 832 240 875 q 385 667 240 761 q 588 468 524 576 q 615 354 615 421 q 561 235 615 276 q 419 200 518 201 q 528 99 496 146 q 561 -4 561 53 q 497 -133 561 -82 q 333 -183 433 -183 q 186 -142 247 -183 q 125 -44 125 -101 q 150 20 125 -6 q 213 46 175 46 q 276 23 249 46 q 303 -32 303 0 q 260 -90 303 -64 q 239 -111 239 -104 q 267 -139 239 -126 q 333 -151 296 -151 q 443 -53 443 -151 q 432 0 443 -21 q 392 44 421 21 l 313 108 q 122 283 164 228 q 79 407 79 338 q 258 576 79 576 m 510 313 q 450 419 510 364 q 257 544 317 544 q 204 523 225 544 q 183 467 183 501 q 201 402 183 428 q 285 319 219 376 q 374 249 344 267 q 436 232 404 232 q 489 255 468 232 q 510 313 510 278 z "},"¨":{"ha":463,"x_min":-3,"x_max":468,"o":"m 468 833 q 442 772 468 797 q 376 746 415 746 q 315 772 340 746 q 289 836 289 799 q 315 899 289 872 q 378 925 342 925 q 441 898 414 925 q 468 833 468 871 m 176 833 q 151 772 176 797 q 86 746 125 746 q 24 772 50 746 q -3 836 -3 799 q 24 899 -3 872 q 88 925 51 925 q 150 898 124 925 q 176 833 176 871 z "},"©":{"ha":1038,"x_min":36,"x_max":1001,"o":"m 756 356 l 733 253 q 690 221 731 232 l 674 217 q 542 197 593 197 q 325 271 406 197 q 244 471 244 344 q 330 678 244 601 q 558 756 415 756 q 701 729 628 756 q 732 700 732 718 l 732 600 l 706 600 q 557 724 672 724 q 431 660 475 724 q 386 478 386 596 q 431 294 386 358 q 557 229 475 229 q 656 258 615 229 q 729 356 696 288 l 756 356 m 1001 465 q 863 115 1001 257 q 521 -26 724 -26 q 175 116 314 -26 q 36 469 36 258 q 177 819 36 678 q 528 960 318 960 q 864 816 726 960 q 1001 465 1001 672 m 903 469 q 790 766 903 644 q 514 888 676 888 q 247 763 358 888 q 135 465 135 639 q 247 168 135 290 q 519 46 358 46 q 791 169 679 46 q 903 469 903 292 z "},"ª":{"ha":417,"x_min":-1,"x_max":418,"o":"m 404 615 l 418 599 q 317 551 372 551 q 267 564 283 551 q 243 608 250 576 q 101 551 175 551 q 27 577 56 551 q -1 643 -1 603 q 49 728 -1 696 q 240 796 100 760 l 240 851 q 224 907 240 890 q 171 924 208 924 q 131 915 147 924 q 114 893 114 906 q 126 874 114 886 q 142 844 142 858 q 123 809 142 822 q 75 796 104 796 q 17 851 17 796 q 65 927 17 899 q 196 956 114 956 q 325 925 278 956 q 372 842 372 894 l 372 625 q 388 604 372 604 l 396 607 l 404 615 m 239 646 l 239 767 q 135 665 135 736 q 147 626 135 642 q 179 610 160 610 q 239 646 211 610 z "},"«":{"ha":694,"x_min":32,"x_max":657,"o":"m 586 546 l 594 553 q 638 576 624 576 q 654 561 654 576 q 525 357 654 514 q 493 315 503 329 q 549 240 510 290 q 657 71 657 100 q 642 50 657 50 q 601 72 636 50 l 304 313 l 304 318 l 586 546 m 314 546 l 322 553 q 365 576 351 576 q 382 561 382 576 q 254 357 382 515 l 221 315 q 276 240 265 251 q 385 71 385 113 q 369 50 385 50 q 329 72 364 50 l 32 313 l 32 318 l 314 546 z "},"¬":{"ha":1042,"x_min":90,"x_max":951,"o":"m 951 150 l 829 150 l 829 432 l 90 432 l 90 554 l 951 554 l 951 150 z "},"­":{"ha":463,"x_min":61,"x_max":399,"o":"m 399 238 l 61 238 l 61 399 l 399 399 l 399 238 z "},"®":{"ha":1038,"x_min":36,"x_max":1001,"o":"m 782 213 l 669 213 q 633 238 653 213 q 582 325 614 263 q 514 444 554 381 l 463 444 l 463 299 q 471 249 463 257 q 526 238 479 240 l 526 213 l 288 213 l 288 238 q 343 249 335 240 q 351 299 351 257 l 351 653 q 343 704 351 696 q 288 714 335 713 l 288 739 l 556 739 q 672 703 629 739 q 715 606 715 667 q 604 460 715 504 l 685 346 q 782 228 740 268 l 782 213 m 463 475 l 511 475 q 597 599 597 475 q 513 708 597 708 l 463 708 l 463 475 m 1001 465 q 863 115 1001 257 q 521 -26 724 -26 q 175 116 314 -26 q 36 469 36 258 q 177 819 36 678 q 528 960 318 960 q 864 816 726 960 q 1001 465 1001 672 m 903 469 q 790 766 903 644 q 514 888 676 888 q 247 763 358 888 q 135 465 135 639 q 247 168 135 290 q 519 46 358 46 q 791 169 679 46 q 903 469 903 292 z "},"¯":{"ha":463,"x_min":1,"x_max":460,"o":"m 460 785 l 1 785 l 1 885 l 460 885 l 460 785 z "},"°":{"ha":556,"x_min":79,"x_max":476,"o":"m 418 897 q 447 868 418 897 q 476 757 476 839 q 418 617 476 675 q 278 558 360 558 q 138 617 196 558 q 79 757 79 675 q 138 897 79 839 q 278 956 196 956 q 418 897 360 956 m 365 670 q 382 688 365 670 q 400 757 400 706 q 365 844 400 808 q 278 879 329 879 q 191 844 226 879 q 156 757 156 808 q 191 670 156 706 q 278 635 226 635 q 365 670 329 635 z "},"±":{"ha":1069,"x_min":90,"x_max":951,"o":"m 951 290 l 582 290 l 582 -17 l 460 -17 l 460 290 l 90 290 l 90 413 l 460 413 l 460 719 l 582 719 l 582 413 l 951 413 l 951 290 m 951 -210 l 90 -210 l 90 -87 l 951 -87 l 951 -210 z "},"²":{"ha":417,"x_min":0,"x_max":417,"o":"m 417 558 l 375 382 l 0 382 l 0 401 q 206 625 156 556 q 256 756 256 694 q 225 831 256 800 q 151 861 194 861 q 46 786 86 861 l 13 786 q 213 956 81 956 q 331 913 285 956 q 378 801 378 869 q 354 714 378 756 q 275 621 331 672 l 138 493 l 265 493 q 355 503 335 493 q 394 558 375 514 l 417 558 z "},"³":{"ha":417,"x_min":4,"x_max":413,"o":"m 50 819 l 22 829 q 229 956 94 956 q 338 926 299 956 q 376 843 376 896 q 360 783 376 806 q 301 738 344 761 q 413 589 413 692 q 335 435 413 499 q 143 372 257 372 q 42 392 79 372 q 4 447 4 413 q 60 504 4 486 q 108 493 92 501 q 153 458 125 485 q 221 422 190 422 q 284 447 260 422 q 308 513 308 472 q 268 611 308 574 q 128 681 228 649 l 128 694 q 218 738 192 714 q 244 804 244 763 q 220 866 244 843 q 154 889 196 889 q 99 874 122 889 q 50 819 76 858 z "},"´":{"ha":463,"x_min":119,"x_max":450,"o":"m 119 733 l 310 951 q 383 990 344 990 q 432 974 414 990 q 450 929 450 957 q 439 891 450 906 q 394 856 428 876 l 197 733 l 119 733 z "},"µ":{"ha":772,"x_min":46,"x_max":744,"o":"m 744 83 l 744 50 q 670 -5 699 8 q 597 -18 642 -18 q 457 54 501 -18 q 393 -2 424 14 q 319 -18 363 -18 q 178 31 242 -18 q 204 -82 183 -11 q 224 -179 224 -142 q 136 -286 224 -286 q 69 -258 93 -286 q 46 -179 46 -231 q 60 -100 46 -157 q 92 122 92 32 l 92 640 l 285 640 l 285 207 q 307 133 285 161 q 364 104 329 104 q 467 142 408 104 l 467 640 l 660 640 l 660 140 q 676 94 660 113 q 715 75 692 75 q 744 83 729 75 z "},"¶":{"ha":888,"x_min":83,"x_max":804,"o":"m 804 904 l 768 901 q 703 887 717 897 q 690 832 690 876 l 690 -146 q 703 -203 690 -189 q 765 -221 715 -217 l 797 -224 l 797 -258 l 560 -258 l 560 904 l 490 904 l 490 -258 l 247 -258 l 247 -224 q 342 -206 325 -217 q 360 -151 360 -194 l 360 368 q 207 407 264 372 q 83 668 83 483 q 157 874 83 808 q 388 939 231 939 l 804 939 l 804 904 m 360 403 l 360 904 q 284 875 310 892 q 240 826 258 858 q 208 671 208 774 q 360 403 208 457 z "},"·":{"ha":347,"x_min":57,"x_max":292,"o":"m 257 544 q 274 527 257 544 q 292 461 292 510 q 258 378 292 413 q 174 344 224 344 q 90 378 124 344 q 57 461 57 411 q 92 544 57 510 q 175 579 126 579 q 257 544 222 579 z "},"¸":{"ha":463,"x_min":94,"x_max":408,"o":"m 279 0 l 240 -89 q 285 -82 261 -82 q 376 -108 343 -82 q 408 -179 408 -133 q 360 -269 408 -236 q 229 -303 311 -303 q 94 -278 165 -303 l 117 -226 l 125 -229 q 199 -246 175 -246 q 279 -189 279 -246 q 215 -139 279 -139 q 176 -144 197 -139 l 161 -133 l 221 0 l 279 0 z "},"¹":{"ha":417,"x_min":39,"x_max":379,"o":"m 379 382 l 42 382 l 42 410 q 128 426 108 410 q 149 493 149 442 l 149 800 q 117 857 149 857 q 57 843 93 857 l 39 836 l 39 865 l 267 956 l 282 956 l 282 488 q 300 425 282 439 q 379 410 318 411 l 379 382 z "},"º":{"ha":458,"x_min":25,"x_max":433,"o":"m 433 753 q 376 608 433 665 q 231 551 318 551 q 83 608 140 551 q 25 754 25 665 q 83 899 25 842 q 232 956 142 956 q 376 897 318 956 q 433 753 433 839 m 297 742 q 283 888 297 849 q 228 926 268 926 q 174 888 189 926 q 160 746 160 849 q 175 616 160 653 q 229 579 190 579 q 282 616 267 579 q 297 742 297 653 z "},"»":{"ha":694,"x_min":38,"x_max":663,"o":"m 663 308 l 381 81 q 371 74 375 75 q 329 50 346 50 q 313 65 313 50 q 440 269 313 113 l 474 311 q 418 385 443 356 q 310 556 310 514 q 325 576 310 576 q 365 554 339 576 l 663 314 l 663 308 m 390 308 l 108 81 l 100 74 q 57 50 74 50 q 40 65 40 50 q 169 269 40 113 q 201 311 192 297 q 146 385 171 356 q 38 556 38 514 q 53 576 38 576 q 93 554 67 576 l 390 314 l 390 308 z "},"¼":{"ha":1042,"x_min":39,"x_max":1032,"o":"m 1032 121 l 975 121 l 975 0 l 844 0 l 844 121 l 621 121 l 621 214 q 849 510 713 349 l 903 574 l 975 574 l 975 213 l 1032 213 l 1032 121 m 846 213 l 846 456 l 656 213 l 846 213 m 932 956 l 322 -17 l 242 -17 l 854 956 l 932 956 m 379 382 l 42 382 l 42 410 q 128 426 108 410 q 149 493 149 442 l 149 800 q 117 857 149 857 q 57 843 93 857 l 39 836 l 39 865 l 267 956 l 282 956 l 282 488 q 300 425 282 439 q 379 410 318 411 l 379 382 z "},"½":{"ha":1042,"x_min":-10,"x_max":1076,"o":"m 1076 176 l 1035 0 l 660 0 l 660 19 l 722 83 q 785 147 763 122 q 838 211 807 171 q 884 292 869 251 q 899 374 899 332 q 875 449 899 417 q 810 481 851 481 q 706 404 746 481 l 672 404 q 872 574 739 574 q 997 531 943 574 q 1051 419 1051 489 q 1047 386 1051 403 q 1033 353 1043 369 q 1015 324 1022 336 q 990 294 1007 313 q 965 268 972 275 q 938 242 958 261 q 914 219 917 222 l 806 118 l 806 111 l 949 111 q 1015 123 994 111 q 1054 176 1036 135 l 1076 176 m 874 956 l 264 -17 l 183 -17 l 796 956 l 874 956 m 331 382 l -7 382 l -7 410 q 55 413 36 410 q 87 435 74 417 q 100 493 100 454 l 100 800 q 68 857 100 857 q -10 836 40 857 l -10 865 l 218 956 l 233 956 l 233 488 q 253 424 233 436 q 331 410 274 411 l 331 382 z "},"¾":{"ha":1042,"x_min":32,"x_max":1018,"o":"m 1018 121 l 961 121 l 961 0 l 831 0 l 831 121 l 607 121 l 607 214 q 835 510 699 349 l 889 574 l 961 574 l 961 213 l 1018 213 l 1018 121 m 832 213 l 832 456 l 642 213 l 832 213 m 929 956 l 319 -17 l 239 -17 l 851 956 l 929 956 m 335 740 l 335 735 q 440 589 440 693 q 362 435 440 499 q 171 372 283 372 q 69 392 107 372 q 32 447 32 413 q 88 504 32 486 q 133 493 117 501 q 181 458 149 485 q 249 422 222 422 q 312 447 288 422 q 336 513 336 472 q 296 611 336 574 q 156 681 256 649 l 156 694 q 246 738 219 714 q 272 804 272 763 q 248 866 272 843 q 182 889 224 889 q 127 874 150 889 q 78 819 104 858 l 50 829 q 257 956 122 956 q 365 926 326 956 q 404 843 404 896 q 389 784 404 807 q 335 740 374 761 z "},"¿":{"ha":694,"x_min":76,"x_max":615,"o":"m 447 662 q 464 645 447 662 q 481 579 481 628 q 446 496 481 531 q 361 461 411 461 q 280 496 314 461 q 246 579 246 531 q 280 662 246 628 q 363 696 314 696 q 447 662 413 696 m 343 356 l 385 356 q 389 293 389 321 q 335 122 388 229 q 283 -49 283 14 q 315 -179 283 -129 q 400 -229 346 -229 q 462 -214 439 -229 q 485 -174 485 -199 q 464 -133 485 -156 q 433 -62 433 -99 q 462 3 433 -24 q 524 31 490 31 q 590 -1 564 31 q 615 -78 615 -32 q 544 -222 615 -165 q 360 -279 474 -279 q 153 -215 231 -279 q 76 -49 76 -150 q 113 73 76 24 q 244 182 149 122 q 326 251 310 222 q 343 356 343 279 z "},"À":{"ha":1003,"x_min":13,"x_max":957,"o":"m 635 1081 l 557 1081 l 360 1203 q 304 1275 304 1238 q 323 1319 304 1301 q 369 1338 342 1338 q 444 1299 410 1338 l 635 1081 m 957 0 l 510 0 l 510 35 l 554 39 q 603 52 589 42 q 618 85 618 63 q 554 274 618 125 l 242 274 l 224 226 q 181 92 181 115 q 206 52 181 65 q 293 35 232 39 l 293 0 l 13 0 l 13 35 q 86 74 61 43 q 150 201 111 104 l 457 958 l 496 958 l 804 233 q 885 72 857 108 q 957 35 914 35 l 957 0 m 533 328 l 393 665 l 263 328 l 533 328 z "},"Á":{"ha":1003,"x_min":13,"x_max":957,"o":"m 318 1081 l 508 1299 q 582 1338 543 1338 q 631 1321 613 1338 q 649 1276 649 1304 q 638 1238 649 1253 q 593 1203 626 1224 l 396 1081 l 318 1081 m 957 0 l 510 0 l 510 35 l 554 39 q 603 52 589 42 q 618 85 618 63 q 554 274 618 125 l 242 274 l 224 226 q 181 92 181 115 q 206 52 181 65 q 293 35 232 39 l 293 0 l 13 0 l 13 35 q 86 74 61 43 q 150 201 111 104 l 457 958 l 496 958 l 804 233 q 885 72 857 108 q 957 35 914 35 l 957 0 m 533 328 l 393 665 l 263 328 l 533 328 z "},"Â":{"ha":1003,"x_min":13,"x_max":957,"o":"m 710 1081 l 631 1081 l 475 1217 l 319 1081 l 242 1081 l 411 1325 l 539 1325 l 710 1081 m 957 0 l 510 0 l 510 35 l 554 39 q 603 52 589 42 q 618 85 618 63 q 554 274 618 125 l 242 274 l 224 226 q 181 92 181 115 q 206 52 181 65 q 293 35 232 39 l 293 0 l 13 0 l 13 35 q 86 74 61 43 q 150 201 111 104 l 457 958 l 496 958 l 804 233 q 885 72 857 108 q 957 35 914 35 l 957 0 m 533 328 l 393 665 l 263 328 l 533 328 z "},"Ã":{"ha":1003,"x_min":13,"x_max":957,"o":"m 668 1283 l 728 1283 q 567 1107 681 1107 q 476 1126 522 1107 l 436 1144 q 347 1175 369 1175 q 302 1157 321 1175 q 279 1110 283 1139 l 221 1110 q 279 1242 240 1200 q 382 1283 318 1283 q 483 1257 425 1283 l 539 1232 q 593 1215 576 1215 q 638 1231 621 1215 q 668 1283 654 1246 m 957 0 l 510 0 l 510 35 l 554 39 q 603 52 589 42 q 618 85 618 63 q 554 274 618 125 l 242 274 l 224 226 q 181 92 181 115 q 206 52 181 65 q 293 35 232 39 l 293 0 l 13 0 l 13 35 q 86 74 61 43 q 150 201 111 104 l 457 958 l 496 958 l 804 233 q 885 72 857 108 q 957 35 914 35 l 957 0 m 533 328 l 393 665 l 263 328 l 533 328 z "},"Ä":{"ha":1003,"x_min":13,"x_max":957,"o":"m 710 1181 q 683 1119 710 1144 q 618 1093 657 1093 q 556 1119 582 1093 q 531 1183 531 1146 q 557 1246 531 1219 q 619 1272 583 1272 q 683 1245 656 1272 q 710 1181 710 1218 m 418 1181 q 392 1119 418 1144 q 328 1093 367 1093 q 265 1119 292 1093 q 239 1183 239 1146 q 266 1246 239 1219 q 329 1272 293 1272 q 392 1245 365 1272 q 418 1181 418 1218 m 957 0 l 510 0 l 510 35 l 554 39 q 603 52 589 42 q 618 85 618 63 q 554 274 618 125 l 242 274 l 224 226 q 181 92 181 115 q 206 52 181 65 q 293 35 232 39 l 293 0 l 13 0 l 13 35 q 86 74 61 43 q 150 201 111 104 l 457 958 l 496 958 l 804 233 q 885 72 857 108 q 957 35 914 35 l 957 0 m 533 328 l 393 665 l 263 328 l 533 328 z "},"Å":{"ha":1003,"x_min":13,"x_max":957,"o":"m 622 1243 q 579 1138 622 1182 q 475 1093 536 1093 q 369 1135 413 1093 q 326 1240 326 1178 q 371 1345 326 1301 q 476 1389 415 1389 q 579 1346 536 1389 q 622 1243 622 1303 m 556 1239 q 531 1298 556 1274 q 471 1322 506 1322 q 417 1298 440 1322 q 393 1242 393 1274 q 417 1184 393 1208 q 472 1160 440 1160 q 531 1183 507 1160 q 556 1239 556 1206 m 957 0 l 510 0 l 510 35 l 554 39 q 603 52 589 42 q 618 85 618 63 q 554 274 618 125 l 242 274 l 224 226 q 181 92 181 115 q 206 52 181 65 q 293 35 232 39 l 293 0 l 13 0 l 13 35 q 86 74 61 43 q 150 201 111 104 l 457 958 l 496 958 l 804 233 q 885 72 857 108 q 957 35 914 35 l 957 0 m 533 328 l 393 665 l 263 328 l 533 328 z "},"Æ":{"ha":1389,"x_min":6,"x_max":1321,"o":"m 1321 293 l 1264 0 l 478 0 l 478 35 q 577 63 554 39 q 600 165 600 88 l 600 421 l 336 421 l 197 160 q 176 97 176 119 q 195 56 176 68 q 268 38 214 44 l 292 35 l 292 0 l 6 0 l 6 35 q 69 67 47 42 q 158 213 92 92 l 464 771 q 503 857 503 840 q 476 893 503 882 q 382 908 450 904 l 382 939 l 1263 939 l 1263 660 l 1228 660 q 1167 818 1206 771 q 915 890 1108 890 q 841 882 860 890 q 822 849 822 874 l 822 504 q 976 545 944 514 q 1038 711 1008 576 l 1069 711 l 1069 242 l 1038 242 q 978 412 1018 371 q 822 460 939 453 l 822 122 q 844 63 822 78 q 925 47 865 47 q 1183 132 1100 47 q 1250 216 1219 169 q 1289 293 1281 263 l 1321 293 m 600 476 l 600 879 l 590 879 l 367 476 l 600 476 z "},"Ç":{"ha":1003,"x_min":68,"x_max":954,"o":"m 913 211 l 954 176 q 768 20 857 65 q 557 -26 679 -25 l 529 -89 q 574 -82 550 -82 q 665 -108 632 -82 q 697 -179 697 -133 q 649 -269 697 -236 q 518 -303 600 -303 q 383 -278 454 -303 l 406 -226 l 414 -229 q 488 -246 463 -246 q 568 -189 568 -246 q 504 -139 568 -139 q 465 -144 486 -139 l 450 -133 l 499 -24 l 494 -22 q 187 131 306 -4 q 68 461 68 265 q 206 817 68 675 q 551 960 344 960 q 767 911 649 960 q 831 892 811 892 q 863 905 850 892 q 892 956 876 918 l 929 956 l 929 631 l 894 631 q 828 753 858 710 q 754 836 799 797 q 569 914 667 914 q 378 802 443 914 q 314 474 314 690 q 374 161 314 271 q 465 74 404 107 q 593 40 525 40 q 718 65 658 40 q 810 116 769 85 q 913 211 851 147 z "},"È":{"ha":926,"x_min":22,"x_max":890,"o":"m 628 1081 l 550 1081 l 353 1203 q 297 1275 297 1238 q 316 1319 297 1301 q 363 1338 335 1338 q 438 1299 403 1338 l 628 1081 m 890 289 l 835 0 l 22 0 l 22 35 q 121 64 97 43 q 144 140 144 85 l 144 806 q 119 879 144 858 q 22 904 94 900 l 22 939 l 824 939 l 824 660 l 789 660 q 698 845 765 799 q 460 892 631 892 q 388 875 407 892 q 369 817 369 858 l 369 504 q 532 549 482 506 q 594 711 582 593 l 631 711 l 631 242 l 594 242 q 535 410 585 364 q 369 457 485 457 l 369 121 q 394 60 369 76 q 485 43 418 43 q 738 118 647 43 q 796 182 772 146 q 851 289 819 218 l 890 289 z "},"É":{"ha":926,"x_min":22,"x_max":890,"o":"m 321 1081 l 511 1299 q 585 1338 546 1338 q 633 1321 615 1338 q 651 1276 651 1304 q 640 1238 651 1253 q 596 1203 629 1224 l 399 1081 l 321 1081 m 890 289 l 835 0 l 22 0 l 22 35 q 121 64 97 43 q 144 140 144 85 l 144 806 q 119 879 144 858 q 22 904 94 900 l 22 939 l 824 939 l 824 660 l 789 660 q 698 845 765 799 q 460 892 631 892 q 388 875 407 892 q 369 817 369 858 l 369 504 q 532 549 482 506 q 594 711 582 593 l 631 711 l 631 242 l 594 242 q 535 410 585 364 q 369 457 485 457 l 369 121 q 394 60 369 76 q 485 43 418 43 q 738 118 647 43 q 796 182 772 146 q 851 289 819 218 l 890 289 z "},"Ê":{"ha":926,"x_min":22,"x_max":890,"o":"m 710 1081 l 631 1081 l 475 1217 l 319 1081 l 242 1081 l 411 1325 l 539 1325 l 710 1081 m 890 289 l 835 0 l 22 0 l 22 35 q 121 64 97 43 q 144 140 144 85 l 144 806 q 119 879 144 858 q 22 904 94 900 l 22 939 l 824 939 l 824 660 l 789 660 q 698 845 765 799 q 460 892 631 892 q 388 875 407 892 q 369 817 369 858 l 369 504 q 532 549 482 506 q 594 711 582 593 l 631 711 l 631 242 l 594 242 q 535 410 585 364 q 369 457 485 457 l 369 121 q 394 60 369 76 q 485 43 418 43 q 738 118 647 43 q 796 182 772 146 q 851 289 819 218 l 890 289 z "},"Ë":{"ha":926,"x_min":22,"x_max":890,"o":"m 710 1181 q 683 1119 710 1144 q 618 1093 657 1093 q 556 1119 582 1093 q 531 1183 531 1146 q 557 1246 531 1219 q 619 1272 583 1272 q 683 1245 656 1272 q 710 1181 710 1218 m 418 1181 q 392 1119 418 1144 q 328 1093 367 1093 q 265 1119 292 1093 q 239 1183 239 1146 q 266 1246 239 1219 q 329 1272 293 1272 q 392 1245 365 1272 q 418 1181 418 1218 m 890 289 l 835 0 l 22 0 l 22 35 q 121 64 97 43 q 144 140 144 85 l 144 806 q 119 879 144 858 q 22 904 94 900 l 22 939 l 824 939 l 824 660 l 789 660 q 698 845 765 799 q 460 892 631 892 q 388 875 407 892 q 369 817 369 858 l 369 504 q 532 549 482 506 q 594 711 582 593 l 631 711 l 631 242 l 594 242 q 535 410 585 364 q 369 457 485 457 l 369 121 q 394 60 369 76 q 485 43 418 43 q 738 118 647 43 q 796 182 772 146 q 851 289 819 218 l 890 289 z "},"Ì":{"ha":540,"x_min":28,"x_max":514,"o":"m 440 1081 l 363 1081 l 165 1203 q 110 1275 110 1238 q 128 1319 110 1301 q 175 1338 147 1338 q 250 1299 215 1338 l 440 1081 m 514 0 l 28 0 l 28 35 q 132 63 107 42 q 157 147 157 83 l 157 800 q 131 878 157 857 q 28 904 104 899 l 28 939 l 514 939 l 514 904 q 409 880 436 901 q 382 800 382 858 l 382 147 q 408 60 382 81 q 514 35 433 40 l 514 0 z "},"Í":{"ha":540,"x_min":28,"x_max":514,"o":"m 101 1081 l 292 1299 q 365 1338 326 1338 q 414 1321 396 1338 q 432 1276 432 1304 q 421 1238 432 1253 q 376 1203 410 1224 l 179 1081 l 101 1081 m 514 0 l 28 0 l 28 35 q 132 63 107 42 q 157 147 157 83 l 157 800 q 131 878 157 857 q 28 904 104 899 l 28 939 l 514 939 l 514 904 q 409 880 436 901 q 382 800 382 858 l 382 147 q 408 60 382 81 q 514 35 433 40 l 514 0 z "},"Î":{"ha":540,"x_min":28,"x_max":514,"o":"m 504 1081 l 425 1081 l 269 1217 l 114 1081 l 36 1081 l 206 1325 l 333 1325 l 504 1081 m 514 0 l 28 0 l 28 35 q 132 63 107 42 q 157 147 157 83 l 157 800 q 131 878 157 857 q 28 904 104 899 l 28 939 l 514 939 l 514 904 q 409 880 436 901 q 382 800 382 858 l 382 147 q 408 60 382 81 q 514 35 433 40 l 514 0 z "},"Ï":{"ha":540,"x_min":28,"x_max":514,"o":"m 504 1181 q 478 1119 504 1144 q 413 1093 451 1093 q 351 1119 376 1093 q 325 1183 325 1146 q 351 1246 325 1219 q 414 1272 378 1272 q 477 1245 450 1272 q 504 1181 504 1218 m 213 1181 q 187 1119 213 1144 q 122 1093 161 1093 q 60 1119 86 1093 q 33 1183 33 1146 q 60 1246 33 1219 q 124 1272 88 1272 q 186 1245 160 1272 q 213 1181 213 1218 m 514 0 l 28 0 l 28 35 q 132 63 107 42 q 157 147 157 83 l 157 800 q 131 878 157 857 q 28 904 104 899 l 28 939 l 514 939 l 514 904 q 409 880 436 901 q 382 800 382 858 l 382 147 q 408 60 382 81 q 514 35 433 40 l 514 0 z "},"Ð":{"ha":1003,"x_min":8,"x_max":958,"o":"m 19 939 l 443 939 q 822 817 685 939 q 958 479 958 694 q 833 144 958 272 q 669 38 768 76 q 458 0 569 0 l 19 0 l 19 35 q 107 58 79 36 q 135 126 135 81 l 135 453 l 8 453 l 8 518 l 135 518 l 135 811 q 110 878 135 858 q 19 904 86 897 l 19 939 m 360 453 l 360 129 q 376 65 360 82 q 440 49 393 49 q 647 149 576 49 q 717 458 717 250 q 658 753 717 642 q 443 892 583 892 q 376 878 393 892 q 360 826 360 865 l 360 518 l 518 518 l 518 453 l 360 453 z "},"Ñ":{"ha":1003,"x_min":22,"x_max":974,"o":"m 692 1283 l 751 1283 q 590 1107 704 1107 q 500 1126 546 1107 l 460 1144 q 371 1175 393 1175 q 326 1157 344 1175 q 303 1110 307 1139 l 244 1110 q 303 1242 264 1200 q 406 1283 342 1283 q 507 1257 449 1283 l 563 1232 q 617 1215 600 1215 q 661 1231 644 1215 q 692 1283 678 1246 m 974 939 l 974 904 q 885 873 904 893 q 865 789 865 853 l 865 -25 l 826 -25 l 206 732 l 206 182 q 231 73 206 101 q 336 35 256 44 l 336 0 l 22 0 l 22 35 q 122 66 99 44 q 144 151 144 88 l 144 804 q 26 904 72 904 l 26 939 l 319 939 l 804 342 l 804 757 q 779 869 804 840 q 676 904 754 897 l 676 939 l 974 939 z "},"Ò":{"ha":1081,"x_min":49,"x_max":1032,"o":"m 699 1081 l 621 1081 l 424 1203 q 368 1275 368 1238 q 387 1319 368 1301 q 433 1338 406 1338 q 508 1299 474 1338 l 699 1081 m 1032 465 q 894 111 1032 249 q 539 -26 756 -26 q 186 111 324 -26 q 49 464 49 249 q 189 822 49 685 q 547 960 329 960 q 894 820 757 960 q 1032 465 1032 681 m 786 456 q 722 796 786 678 q 535 914 657 914 q 357 795 419 914 q 294 458 294 676 q 358 130 294 240 q 542 19 422 19 q 724 131 661 19 q 786 456 786 242 z "},"Ó":{"ha":1081,"x_min":49,"x_max":1032,"o":"m 371 1081 l 561 1299 q 635 1338 596 1338 q 683 1321 665 1338 q 701 1276 701 1304 q 690 1238 701 1253 q 646 1203 679 1224 l 449 1081 l 371 1081 m 1032 465 q 894 111 1032 249 q 539 -26 756 -26 q 186 111 324 -26 q 49 464 49 249 q 189 822 49 685 q 547 960 329 960 q 894 820 757 960 q 1032 465 1032 681 m 786 456 q 722 796 786 678 q 535 914 657 914 q 357 795 419 914 q 294 458 294 676 q 358 130 294 240 q 542 19 422 19 q 724 131 661 19 q 786 456 786 242 z "},"Ô":{"ha":1081,"x_min":49,"x_max":1032,"o":"m 767 1081 l 688 1081 l 532 1217 l 376 1081 l 299 1081 l 468 1325 l 596 1325 l 767 1081 m 1032 465 q 894 111 1032 249 q 539 -26 756 -26 q 186 111 324 -26 q 49 464 49 249 q 189 822 49 685 q 547 960 329 960 q 894 820 757 960 q 1032 465 1032 681 m 786 456 q 722 796 786 678 q 535 914 657 914 q 357 795 419 914 q 294 458 294 676 q 358 130 294 240 q 542 19 422 19 q 724 131 661 19 q 786 456 786 242 z "},"Õ":{"ha":1081,"x_min":49,"x_max":1032,"o":"m 732 1283 l 792 1283 q 631 1107 744 1107 q 540 1126 586 1107 l 500 1144 q 411 1175 433 1175 q 366 1157 385 1175 q 343 1110 347 1139 l 285 1110 q 343 1242 304 1200 q 446 1283 382 1283 q 547 1257 489 1283 l 603 1232 q 657 1215 640 1215 q 701 1231 685 1215 q 732 1283 718 1246 m 1032 465 q 894 111 1032 249 q 539 -26 756 -26 q 186 111 324 -26 q 49 464 49 249 q 189 822 49 685 q 547 960 329 960 q 894 820 757 960 q 1032 465 1032 681 m 786 456 q 722 796 786 678 q 535 914 657 914 q 357 795 419 914 q 294 458 294 676 q 358 130 294 240 q 542 19 422 19 q 724 131 661 19 q 786 456 786 242 z "},"Ö":{"ha":1081,"x_min":49,"x_max":1032,"o":"m 769 1181 q 743 1119 769 1144 q 678 1093 717 1093 q 616 1119 642 1093 q 590 1183 590 1146 q 617 1246 590 1219 q 679 1272 643 1272 q 742 1245 715 1272 q 769 1181 769 1218 m 478 1181 q 452 1119 478 1144 q 388 1093 426 1093 q 325 1119 351 1093 q 299 1183 299 1146 q 326 1246 299 1219 q 389 1272 353 1272 q 451 1245 425 1272 q 478 1181 478 1218 m 1032 465 q 894 111 1032 249 q 539 -26 756 -26 q 186 111 324 -26 q 49 464 49 249 q 189 822 49 685 q 547 960 329 960 q 894 820 757 960 q 1032 465 1032 681 m 786 456 q 722 796 786 678 q 535 914 657 914 q 357 795 419 914 q 294 458 294 676 q 358 130 294 240 q 542 19 422 19 q 724 131 661 19 q 786 456 786 242 z "},"×":{"ha":975,"x_min":92,"x_max":883,"o":"m 883 40 l 797 -46 l 488 265 l 178 -46 l 92 40 l 401 351 l 93 661 l 179 747 l 488 438 l 797 747 l 883 661 l 574 351 l 883 40 z "},"Ø":{"ha":1081,"x_min":49,"x_max":1032,"o":"m 951 1024 l 843 864 q 972 717 933 790 q 1032 467 1032 606 q 894 112 1032 250 q 540 -26 756 -26 q 281 42 403 -26 l 182 -103 l 113 -103 l 232 72 q 140 167 171 125 q 83 271 108 208 q 49 465 49 361 q 188 820 49 681 q 542 960 326 960 q 794 894 672 960 l 882 1024 l 951 1024 m 325 210 l 722 790 q 644 885 686 857 q 540 914 601 914 q 358 795 422 914 q 294 456 294 676 q 325 210 294 318 m 750 728 l 351 144 q 431 49 388 78 q 540 19 475 19 q 724 131 661 19 q 786 460 786 243 q 750 728 786 611 z "},"Ù":{"ha":1003,"x_min":22,"x_max":974,"o":"m 665 1081 l 588 1081 l 390 1203 q 335 1275 335 1238 q 353 1319 335 1301 q 400 1338 372 1338 q 475 1299 440 1338 l 665 1081 m 974 939 l 974 904 q 886 871 907 894 q 865 786 865 847 l 865 350 q 760 50 865 133 q 504 -26 665 -26 q 247 49 343 -26 q 162 158 188 96 q 136 321 136 221 l 136 771 q 117 875 136 853 q 22 904 97 897 l 22 939 l 489 939 l 489 904 q 381 872 406 897 q 357 764 357 847 l 357 322 q 560 42 357 42 q 804 350 804 42 l 804 767 q 776 869 804 842 q 669 904 747 897 l 669 939 l 974 939 z "},"Ú":{"ha":1003,"x_min":22,"x_max":974,"o":"m 336 1081 l 526 1299 q 600 1338 561 1338 q 649 1321 631 1338 q 667 1276 667 1304 q 656 1238 667 1253 q 611 1203 644 1224 l 414 1081 l 336 1081 m 974 939 l 974 904 q 886 871 907 894 q 865 786 865 847 l 865 350 q 760 50 865 133 q 504 -26 665 -26 q 247 49 343 -26 q 162 158 188 96 q 136 321 136 221 l 136 771 q 117 875 136 853 q 22 904 97 897 l 22 939 l 489 939 l 489 904 q 381 872 406 897 q 357 764 357 847 l 357 322 q 560 42 357 42 q 804 350 804 42 l 804 767 q 776 869 804 842 q 669 904 747 897 l 669 939 l 974 939 z "},"Û":{"ha":1003,"x_min":22,"x_max":974,"o":"m 736 1081 l 657 1081 l 501 1217 l 346 1081 l 268 1081 l 438 1325 l 565 1325 l 736 1081 m 974 939 l 974 904 q 886 871 907 894 q 865 786 865 847 l 865 350 q 760 50 865 133 q 504 -26 665 -26 q 247 49 343 -26 q 162 158 188 96 q 136 321 136 221 l 136 771 q 117 875 136 853 q 22 904 97 897 l 22 939 l 489 939 l 489 904 q 381 872 406 897 q 357 764 357 847 l 357 322 q 560 42 357 42 q 804 350 804 42 l 804 767 q 776 869 804 842 q 669 904 747 897 l 669 939 l 974 939 z "},"Ü":{"ha":1003,"x_min":22,"x_max":974,"o":"m 740 1181 q 714 1119 740 1144 q 649 1093 688 1093 q 587 1119 613 1093 q 561 1183 561 1146 q 588 1246 561 1219 q 650 1272 614 1272 q 713 1245 686 1272 q 740 1181 740 1218 m 449 1181 q 423 1119 449 1144 q 358 1093 397 1093 q 296 1119 322 1093 q 269 1183 269 1146 q 297 1246 269 1219 q 360 1272 324 1272 q 422 1245 396 1272 q 449 1181 449 1218 m 974 939 l 974 904 q 886 871 907 894 q 865 786 865 847 l 865 350 q 760 50 865 133 q 504 -26 665 -26 q 247 49 343 -26 q 162 158 188 96 q 136 321 136 221 l 136 771 q 117 875 136 853 q 22 904 97 897 l 22 939 l 489 939 l 489 904 q 381 872 406 897 q 357 764 357 847 l 357 322 q 560 42 357 42 q 804 350 804 42 l 804 767 q 776 869 804 842 q 669 904 747 897 l 669 939 l 974 939 z "},"Ý":{"ha":1003,"x_min":21,"x_max":971,"o":"m 346 1081 l 536 1299 q 610 1338 571 1338 q 658 1321 640 1338 q 676 1276 676 1304 q 665 1238 676 1253 q 621 1203 654 1224 l 424 1081 l 346 1081 m 971 939 l 971 904 q 876 850 903 894 l 611 418 l 611 171 q 634 66 611 90 q 739 35 657 42 l 739 0 l 257 0 l 257 35 q 363 69 340 42 q 386 178 386 97 l 386 367 l 136 822 q 21 904 93 900 l 21 939 l 486 939 l 486 904 l 449 901 q 389 891 404 899 q 374 861 374 883 q 407 779 374 843 l 574 457 l 725 704 q 782 846 782 799 q 759 888 782 876 q 665 904 736 899 l 665 939 l 971 939 z "},"Þ":{"ha":849,"x_min":22,"x_max":833,"o":"m 364 758 l 456 758 q 756 682 664 758 q 833 504 833 615 q 711 296 833 368 q 592 251 654 261 q 364 240 529 242 l 364 163 q 384 66 364 86 q 486 35 404 46 l 486 0 l 22 0 l 22 35 l 56 40 q 122 73 106 49 q 139 163 139 97 l 139 776 q 117 874 139 850 q 22 904 94 899 l 22 939 l 486 939 l 486 904 q 383 872 403 893 q 364 775 364 851 l 364 758 m 364 661 l 364 289 q 547 332 500 289 q 594 499 594 375 q 557 661 594 613 q 433 710 519 710 q 364 661 364 710 z "},"ß":{"ha":772,"x_min":26,"x_max":718,"o":"m 97 121 l 97 704 q 178 888 97 817 q 385 960 258 960 q 583 899 504 960 q 661 746 661 839 q 576 597 661 654 q 444 546 529 565 q 649 447 592 503 q 718 269 718 382 q 642 67 718 150 q 456 -17 565 -17 q 367 4 424 -17 l 386 51 l 400 42 q 429 32 414 32 q 497 83 479 32 q 515 274 515 133 q 461 492 515 447 q 374 518 435 514 l 374 565 q 452 600 433 567 q 471 736 471 633 q 448 877 471 833 q 374 921 425 921 q 290 814 290 921 l 290 0 l 26 0 l 26 33 q 84 56 71 40 q 97 121 97 72 z "},"à":{"ha":694,"x_min":35,"x_max":678,"o":"m 507 733 l 429 733 l 232 856 q 176 928 176 890 q 195 972 176 954 q 242 990 214 990 q 317 951 282 990 l 507 733 m 657 89 l 678 60 q 522 -19 604 -19 q 445 2 471 -19 q 408 76 419 24 q 188 -19 303 -19 q 76 17 118 -19 q 35 128 35 54 q 128 283 35 221 q 407 389 197 329 l 407 483 q 381 582 407 551 q 294 613 356 613 q 230 599 256 613 q 204 561 204 585 q 219 529 204 546 q 246 471 246 497 q 219 411 246 435 q 151 388 193 388 q 85 413 108 388 q 61 482 61 438 q 134 610 61 564 q 326 657 207 657 q 526 608 454 657 q 599 471 599 560 l 599 108 q 628 69 599 69 q 643 75 638 69 l 657 89 m 407 135 l 407 340 q 238 172 238 293 q 258 103 238 128 q 310 79 278 79 q 407 135 368 79 z "},"á":{"ha":694,"x_min":35,"x_max":678,"o":"m 201 733 l 392 951 q 465 990 426 990 q 514 974 496 990 q 532 929 532 957 q 521 891 532 906 q 476 856 510 876 l 279 733 l 201 733 m 657 89 l 678 60 q 522 -19 604 -19 q 445 2 471 -19 q 408 76 419 24 q 188 -19 303 -19 q 76 17 118 -19 q 35 128 35 54 q 128 283 35 221 q 407 389 197 329 l 407 483 q 381 582 407 551 q 294 613 356 613 q 230 599 256 613 q 204 561 204 585 q 219 529 204 546 q 246 471 246 497 q 219 411 246 435 q 151 388 193 388 q 85 413 108 388 q 61 482 61 438 q 134 610 61 564 q 326 657 207 657 q 526 608 454 657 q 599 471 599 560 l 599 108 q 628 69 599 69 q 643 75 638 69 l 657 89 m 407 135 l 407 340 q 238 172 238 293 q 258 103 238 128 q 310 79 278 79 q 407 135 368 79 z "},"â":{"ha":694,"x_min":35,"x_max":678,"o":"m 589 733 l 510 733 l 354 869 l 199 733 l 121 733 l 290 978 l 418 978 l 589 733 m 657 89 l 678 60 q 522 -19 604 -19 q 445 2 471 -19 q 408 76 419 24 q 188 -19 303 -19 q 76 17 118 -19 q 35 128 35 54 q 128 283 35 221 q 407 389 197 329 l 407 483 q 381 582 407 551 q 294 613 356 613 q 230 599 256 613 q 204 561 204 585 q 219 529 204 546 q 246 471 246 497 q 219 411 246 435 q 151 388 193 388 q 85 413 108 388 q 61 482 61 438 q 134 610 61 564 q 326 657 207 657 q 526 608 454 657 q 599 471 599 560 l 599 108 q 628 69 599 69 q 643 75 638 69 l 657 89 m 407 135 l 407 340 q 238 172 238 293 q 258 103 238 128 q 310 79 278 79 q 407 135 368 79 z "},"ã":{"ha":694,"x_min":35,"x_max":678,"o":"m 547 936 l 607 936 q 446 760 560 760 q 356 779 401 760 l 315 797 q 226 828 249 828 q 181 810 200 828 q 158 763 163 792 l 100 763 q 158 894 119 853 q 261 936 197 936 q 363 910 304 936 l 418 885 q 472 868 456 868 q 517 883 500 868 q 547 936 533 899 m 657 89 l 678 60 q 522 -19 604 -19 q 445 2 471 -19 q 408 76 419 24 q 188 -19 303 -19 q 76 17 118 -19 q 35 128 35 54 q 128 283 35 221 q 407 389 197 329 l 407 483 q 381 582 407 551 q 294 613 356 613 q 230 599 256 613 q 204 561 204 585 q 219 529 204 546 q 246 471 246 497 q 219 411 246 435 q 151 388 193 388 q 85 413 108 388 q 61 482 61 438 q 134 610 61 564 q 326 657 207 657 q 526 608 454 657 q 599 471 599 560 l 599 108 q 628 69 599 69 q 643 75 638 69 l 657 89 m 407 135 l 407 340 q 238 172 238 293 q 258 103 238 128 q 310 79 278 79 q 407 135 368 79 z "},"ä":{"ha":694,"x_min":35,"x_max":678,"o":"m 590 833 q 564 772 590 797 q 499 746 538 746 q 437 772 463 746 q 411 836 411 799 q 438 899 411 872 q 500 925 464 925 q 563 898 536 925 q 590 833 590 871 m 299 833 q 273 772 299 797 q 208 746 247 746 q 146 772 172 746 q 119 836 119 799 q 147 899 119 872 q 210 925 174 925 q 272 898 246 925 q 299 833 299 871 m 657 89 l 678 60 q 522 -19 604 -19 q 445 2 471 -19 q 408 76 419 24 q 188 -19 303 -19 q 76 17 118 -19 q 35 128 35 54 q 128 283 35 221 q 407 389 197 329 l 407 483 q 381 582 407 551 q 294 613 356 613 q 230 599 256 613 q 204 561 204 585 q 219 529 204 546 q 246 471 246 497 q 219 411 246 435 q 151 388 193 388 q 85 413 108 388 q 61 482 61 438 q 134 610 61 564 q 326 657 207 657 q 526 608 454 657 q 599 471 599 560 l 599 108 q 628 69 599 69 q 643 75 638 69 l 657 89 m 407 135 l 407 340 q 238 172 238 293 q 258 103 238 128 q 310 79 278 79 q 407 135 368 79 z "},"å":{"ha":694,"x_min":35,"x_max":678,"o":"m 503 899 q 460 793 503 838 q 356 749 417 749 q 250 791 293 749 q 207 896 207 833 q 251 1001 207 957 q 357 1044 296 1044 q 460 1001 417 1044 q 503 899 503 958 m 436 894 q 411 953 436 929 q 351 978 386 978 q 297 953 321 978 q 274 897 274 929 q 297 840 274 864 q 353 815 321 815 q 412 838 388 815 q 436 894 436 861 m 657 89 l 678 60 q 522 -19 604 -19 q 445 2 471 -19 q 408 76 419 24 q 188 -19 303 -19 q 76 17 118 -19 q 35 128 35 54 q 128 283 35 221 q 407 389 197 329 l 407 483 q 381 582 407 551 q 294 613 356 613 q 230 599 256 613 q 204 561 204 585 q 219 529 204 546 q 246 471 246 497 q 219 411 246 435 q 151 388 193 388 q 85 413 108 388 q 61 482 61 438 q 134 610 61 564 q 326 657 207 657 q 526 608 454 657 q 599 471 599 560 l 599 108 q 628 69 599 69 q 643 75 638 69 l 657 89 m 407 135 l 407 340 q 238 172 238 293 q 258 103 238 128 q 310 79 278 79 q 407 135 368 79 z "},"æ":{"ha":1003,"x_min":46,"x_max":964,"o":"m 935 179 l 964 158 q 837 26 903 64 q 672 -12 771 -12 q 468 104 532 -12 l 460 104 q 210 -19 360 -19 q 46 131 46 -19 q 128 276 46 207 q 411 396 197 335 l 411 500 q 386 587 411 561 q 303 613 361 613 q 238 599 264 613 q 213 564 213 585 q 229 533 213 551 q 253 474 253 506 q 227 411 253 435 q 160 388 201 388 q 93 415 117 388 q 69 483 69 442 q 142 608 69 558 q 325 657 214 657 q 519 586 457 657 q 696 657 583 657 q 835 620 774 657 q 926 517 896 583 q 956 344 956 454 l 603 344 l 603 313 q 640 140 603 194 q 763 85 676 85 q 935 179 858 85 m 788 396 l 788 442 q 768 577 788 539 q 700 615 749 615 q 625 564 647 615 q 603 396 603 513 l 788 396 m 411 113 l 411 344 q 283 272 319 311 q 246 167 246 232 q 325 68 246 68 q 411 113 368 68 z "},"ç":{"ha":617,"x_min":35,"x_max":597,"o":"m 572 151 l 597 126 q 368 -18 500 -6 l 336 -89 q 381 -82 357 -82 q 472 -108 439 -82 q 504 -179 504 -133 q 456 -269 504 -236 q 325 -303 407 -303 q 190 -278 261 -303 l 213 -226 l 221 -229 q 294 -246 269 -246 q 375 -189 375 -246 q 311 -139 375 -139 q 272 -144 293 -139 l 257 -133 l 307 -18 q 110 79 186 -10 q 35 308 35 168 q 129 559 35 461 q 364 657 224 657 q 517 614 456 657 q 578 504 578 571 q 552 440 578 464 q 483 415 526 415 q 426 442 447 415 q 406 517 406 468 q 405 553 406 542 q 401 578 404 564 q 393 599 399 593 q 376 610 388 606 q 347 614 364 614 q 263 552 294 614 q 231 379 231 490 q 282 156 231 238 q 424 74 333 74 q 572 151 504 74 z "},"è":{"ha":617,"x_min":35,"x_max":593,"o":"m 500 733 l 422 733 l 225 856 q 169 928 169 890 q 188 972 169 954 q 235 990 207 990 q 310 951 275 990 l 500 733 m 560 175 l 593 156 q 470 19 532 58 q 318 -19 408 -19 q 114 74 193 -19 q 35 311 35 168 q 115 562 35 467 q 325 657 194 657 q 503 588 440 657 q 585 340 576 507 l 235 340 q 246 242 239 282 q 269 163 253 203 q 319 101 286 122 q 400 81 351 81 q 481 102 444 81 q 560 175 517 124 m 414 392 l 414 421 q 401 549 414 522 q 369 599 385 583 q 325 614 353 614 q 251 563 275 614 q 228 392 228 513 l 414 392 z "},"é":{"ha":617,"x_min":35,"x_max":593,"o":"m 172 733 l 363 951 q 436 990 397 990 q 485 974 467 990 q 503 929 503 957 q 492 891 503 906 q 447 856 481 876 l 250 733 l 172 733 m 560 175 l 593 156 q 470 19 532 58 q 318 -19 408 -19 q 114 74 193 -19 q 35 311 35 168 q 115 562 35 467 q 325 657 194 657 q 503 588 440 657 q 585 340 576 507 l 235 340 q 246 242 239 282 q 269 163 253 203 q 319 101 286 122 q 400 81 351 81 q 481 102 444 81 q 560 175 517 124 m 414 392 l 414 421 q 401 549 414 522 q 369 599 385 583 q 325 614 353 614 q 251 563 275 614 q 228 392 228 513 l 414 392 z "},"ê":{"ha":617,"x_min":35,"x_max":593,"o":"m 568 733 l 489 733 l 333 869 l 178 733 l 100 733 l 269 978 l 397 978 l 568 733 m 560 175 l 593 156 q 470 19 532 58 q 318 -19 408 -19 q 114 74 193 -19 q 35 311 35 168 q 115 562 35 467 q 325 657 194 657 q 503 588 440 657 q 585 340 576 507 l 235 340 q 246 242 239 282 q 269 163 253 203 q 319 101 286 122 q 400 81 351 81 q 481 102 444 81 q 560 175 517 124 m 414 392 l 414 421 q 401 549 414 522 q 369 599 385 583 q 325 614 353 614 q 251 563 275 614 q 228 392 228 513 l 414 392 z "},"ë":{"ha":617,"x_min":35,"x_max":593,"o":"m 571 833 q 544 772 571 797 q 479 746 518 746 q 417 772 443 746 q 392 836 392 799 q 418 899 392 872 q 481 925 444 925 q 544 898 517 925 q 571 833 571 871 m 279 833 q 253 772 279 797 q 189 746 228 746 q 126 772 153 746 q 100 836 100 799 q 127 899 100 872 q 190 925 154 925 q 253 898 226 925 q 279 833 279 871 m 560 175 l 593 156 q 470 19 532 58 q 318 -19 408 -19 q 114 74 193 -19 q 35 311 35 168 q 115 562 35 467 q 325 657 194 657 q 503 588 440 657 q 585 340 576 507 l 235 340 q 246 242 239 282 q 269 163 253 203 q 319 101 286 122 q 400 81 351 81 q 481 102 444 81 q 560 175 517 124 m 414 392 l 414 421 q 401 549 414 522 q 369 599 385 583 q 325 614 353 614 q 251 563 275 614 q 228 392 228 513 l 414 392 z "},"ì":{"ha":386,"x_min":19,"x_max":357,"o":"m 357 733 l 279 733 l 82 856 q 26 928 26 890 q 45 972 26 954 q 92 990 64 990 q 167 951 132 990 l 357 733 m 356 0 l 22 0 l 22 33 q 83 60 69 43 q 96 122 96 76 l 96 519 q 81 581 96 565 q 19 607 67 597 l 19 640 l 289 640 l 289 118 q 303 58 289 76 q 356 33 318 39 l 356 0 z "},"í":{"ha":386,"x_min":21,"x_max":358,"o":"m 356 0 l 22 0 l 22 33 q 83 60 71 44 q 96 122 96 75 l 96 518 q 81 581 96 564 q 21 607 67 597 l 21 640 l 289 640 l 289 118 q 303 56 289 74 q 356 33 318 39 l 356 0 m 28 733 l 218 951 q 292 990 253 990 q 340 974 322 990 q 358 929 358 957 q 347 891 358 906 q 303 856 336 876 l 106 733 l 28 733 z "},"î":{"ha":386,"x_min":-40,"x_max":428,"o":"m 294 0 l -39 0 l -39 33 q 22 60 10 44 q 35 122 35 75 l 35 518 q 20 581 35 564 q -40 607 6 597 l -40 640 l 228 640 l 228 118 q 242 56 228 74 q 294 33 257 39 l 294 0 m 428 733 l 349 733 l 193 869 l 38 733 l -40 733 l 129 978 l 257 978 l 428 733 z "},"ï":{"ha":386,"x_min":-40,"x_max":431,"o":"m 294 0 l -39 0 l -39 33 q 22 60 10 44 q 35 122 35 75 l 35 518 q 20 581 35 564 q -40 607 6 597 l -40 640 l 228 640 l 228 118 q 242 56 228 74 q 294 33 257 39 l 294 0 m 431 833 q 404 772 431 797 q 339 746 378 746 q 277 772 303 746 q 251 836 251 799 q 278 899 251 872 q 340 925 304 925 q 403 898 376 925 q 431 833 431 871 m 139 833 q 113 772 139 797 q 49 746 88 746 q -14 772 13 746 q -40 836 -40 799 q -13 899 -40 872 q 50 925 14 925 q 113 898 86 925 q 139 833 139 871 z "},"ð":{"ha":694,"x_min":35,"x_max":661,"o":"m 593 918 l 465 853 q 561 759 529 800 q 618 654 593 718 q 661 414 661 547 q 581 94 661 208 q 349 -19 501 -19 q 123 73 211 -19 q 35 318 35 165 q 123 563 35 468 q 346 657 211 657 q 417 644 389 657 q 472 600 444 632 l 475 604 q 356 797 439 715 l 203 719 l 136 763 l 299 844 q 114 925 211 907 l 178 960 q 400 896 300 947 l 525 960 l 593 918 m 457 319 q 433 549 457 485 q 347 614 408 614 q 274 567 300 614 q 239 307 239 507 q 242 202 239 246 q 256 114 246 158 q 290 47 267 69 q 350 24 314 24 q 434 88 411 24 q 457 319 457 151 z "},"ñ":{"ha":772,"x_min":29,"x_max":749,"o":"m 585 936 l 644 936 q 483 760 597 760 q 393 779 439 760 l 353 797 q 264 828 286 828 q 219 810 238 828 q 196 763 200 792 l 138 763 q 196 894 157 853 q 299 936 235 936 q 400 910 342 936 l 456 885 q 510 868 493 868 q 554 883 538 868 q 585 936 571 899 m 749 0 l 424 0 l 424 33 q 473 56 458 38 q 488 117 488 75 l 488 446 q 417 564 488 564 q 319 517 367 564 q 296 483 296 493 l 296 117 q 310 58 296 76 q 363 33 325 39 l 363 0 l 29 0 l 29 33 q 89 60 75 43 q 103 121 103 76 l 103 522 q 89 583 103 567 q 29 607 75 600 l 29 640 l 294 640 l 294 536 l 296 536 q 493 657 364 657 q 630 603 579 657 q 681 460 681 550 l 681 117 q 694 53 681 69 q 749 33 708 36 l 749 0 z "},"ò":{"ha":694,"x_min":35,"x_max":661,"o":"m 514 733 l 436 733 l 239 856 q 183 928 183 890 q 202 972 183 954 q 249 990 221 990 q 324 951 289 990 l 514 733 m 661 318 q 572 76 661 172 q 347 -19 482 -19 q 125 76 215 -19 q 35 317 35 171 q 124 563 35 468 q 353 657 214 657 q 573 561 485 657 q 661 318 661 465 m 457 303 q 433 547 457 481 q 349 614 410 614 q 262 548 285 614 q 239 303 239 482 q 264 88 239 151 q 349 24 289 24 q 433 85 408 24 q 457 303 457 147 z "},"ó":{"ha":694,"x_min":35,"x_max":661,"o":"m 183 733 l 374 951 q 447 990 408 990 q 496 974 478 990 q 514 929 514 957 q 503 891 514 906 q 458 856 492 876 l 261 733 l 183 733 m 661 318 q 572 76 661 172 q 347 -19 482 -19 q 125 76 215 -19 q 35 317 35 171 q 124 563 35 468 q 353 657 214 657 q 573 561 485 657 q 661 318 661 465 m 457 303 q 433 547 457 481 q 349 614 410 614 q 262 548 285 614 q 239 303 239 482 q 264 88 239 151 q 349 24 289 24 q 433 85 408 24 q 457 303 457 147 z "},"ô":{"ha":694,"x_min":35,"x_max":661,"o":"m 585 733 l 506 733 l 350 869 l 194 733 l 117 733 l 286 978 l 414 978 l 585 733 m 661 318 q 572 76 661 172 q 347 -19 482 -19 q 125 76 215 -19 q 35 317 35 171 q 124 563 35 468 q 353 657 214 657 q 573 561 485 657 q 661 318 661 465 m 457 303 q 433 547 457 481 q 349 614 410 614 q 262 548 285 614 q 239 303 239 482 q 264 88 239 151 q 349 24 289 24 q 433 85 408 24 q 457 303 457 147 z "},"õ":{"ha":694,"x_min":35,"x_max":661,"o":"m 543 936 l 603 936 q 442 760 556 760 q 351 779 397 760 l 311 797 q 222 828 244 828 q 177 810 196 828 q 154 763 158 792 l 96 763 q 154 894 115 853 q 257 936 193 936 q 358 910 300 936 l 414 885 q 468 868 451 868 q 513 883 496 868 q 543 936 529 899 m 661 318 q 572 76 661 172 q 347 -19 482 -19 q 125 76 215 -19 q 35 317 35 171 q 124 563 35 468 q 353 657 214 657 q 573 561 485 657 q 661 318 661 465 m 457 303 q 433 547 457 481 q 349 614 410 614 q 262 548 285 614 q 239 303 239 482 q 264 88 239 151 q 349 24 289 24 q 433 85 408 24 q 457 303 457 147 z "},"ö":{"ha":694,"x_min":35,"x_max":661,"o":"m 585 833 q 558 772 585 797 q 493 746 532 746 q 431 772 457 746 q 406 836 406 799 q 432 899 406 872 q 494 925 458 925 q 558 898 531 925 q 585 833 585 871 m 293 833 q 267 772 293 797 q 203 746 242 746 q 140 772 167 746 q 114 836 114 799 q 141 899 114 872 q 204 925 168 925 q 267 898 240 925 q 293 833 293 871 m 661 318 q 572 76 661 172 q 347 -19 482 -19 q 125 76 215 -19 q 35 317 35 171 q 124 563 35 468 q 353 657 214 657 q 573 561 485 657 q 661 318 661 465 m 457 303 q 433 547 457 481 q 349 614 410 614 q 262 548 285 614 q 239 303 239 482 q 264 88 239 151 q 349 24 289 24 q 433 85 408 24 q 457 303 457 147 z "},"÷":{"ha":792,"x_min":46,"x_max":746,"o":"m 503 640 q 471 565 503 597 q 397 533 439 533 q 322 565 354 533 q 290 639 290 596 q 322 715 290 683 q 397 746 353 746 q 471 714 439 746 q 503 640 503 682 m 746 290 l 46 290 l 46 413 l 746 413 l 746 290 m 503 65 q 470 -10 503 22 q 396 -43 438 -43 q 322 -11 354 -43 q 290 64 290 21 q 322 138 290 107 q 397 169 353 169 q 471 138 439 169 q 503 65 503 106 z "},"ø":{"ha":694,"x_min":35,"x_max":661,"o":"m 640 763 l 539 592 q 661 318 661 482 q 572 76 661 172 q 349 -19 483 -19 q 200 18 271 -19 l 113 -128 l 47 -128 l 153 50 q 35 318 35 160 q 124 560 35 464 q 350 657 214 657 q 493 622 424 657 l 576 763 l 640 763 m 240 194 l 439 531 q 405 595 425 576 q 350 614 385 614 q 262 547 285 614 q 239 290 239 479 q 240 194 239 222 m 454 450 l 254 111 q 349 24 279 24 q 433 85 408 24 q 457 301 457 147 q 454 450 457 385 z "},"ù":{"ha":772,"x_min":22,"x_max":747,"o":"m 546 733 l 468 733 l 271 856 q 215 928 215 890 q 234 972 215 954 q 281 990 253 990 q 356 951 321 990 l 546 733 m 747 28 l 660 18 q 476 -18 544 6 l 476 72 q 377 1 422 21 q 275 -19 332 -19 q 139 33 188 -19 q 90 182 90 86 l 90 517 q 78 582 90 565 q 22 607 65 599 l 22 640 l 283 640 l 283 176 q 361 71 283 71 q 475 136 415 71 l 475 519 q 458 585 475 567 q 390 607 442 603 l 390 640 l 668 640 l 668 146 q 685 81 668 100 q 747 60 701 61 l 747 28 z "},"ú":{"ha":772,"x_min":22,"x_max":747,"o":"m 217 733 l 407 951 q 481 990 442 990 q 529 974 511 990 q 547 929 547 957 q 536 891 547 906 q 492 856 525 876 l 294 733 l 217 733 m 747 28 l 660 18 q 476 -18 544 6 l 476 72 q 377 1 422 21 q 275 -19 332 -19 q 139 33 188 -19 q 90 182 90 86 l 90 517 q 78 582 90 565 q 22 607 65 599 l 22 640 l 283 640 l 283 176 q 361 71 283 71 q 475 136 415 71 l 475 519 q 458 585 475 567 q 390 607 442 603 l 390 640 l 668 640 l 668 146 q 685 81 668 100 q 747 60 701 61 l 747 28 z "},"û":{"ha":772,"x_min":22,"x_max":747,"o":"m 615 733 l 536 733 l 381 869 l 225 733 l 147 733 l 317 978 l 444 978 l 615 733 m 747 28 l 660 18 q 476 -18 544 6 l 476 72 q 377 1 422 21 q 275 -19 332 -19 q 139 33 188 -19 q 90 182 90 86 l 90 517 q 78 582 90 565 q 22 607 65 599 l 22 640 l 283 640 l 283 176 q 361 71 283 71 q 475 136 415 71 l 475 519 q 458 585 475 567 q 390 607 442 603 l 390 640 l 668 640 l 668 146 q 685 81 668 100 q 747 60 701 61 l 747 28 z "},"ü":{"ha":772,"x_min":22,"x_max":747,"o":"m 615 833 q 589 772 615 797 q 524 746 563 746 q 462 772 488 746 q 436 836 436 799 q 463 899 436 872 q 525 925 489 925 q 588 898 561 925 q 615 833 615 871 m 324 833 q 298 772 324 797 q 233 746 272 746 q 171 772 197 746 q 144 836 144 799 q 172 899 144 872 q 235 925 199 925 q 297 898 271 925 q 324 833 324 871 m 747 28 l 660 18 q 476 -18 544 6 l 476 72 q 377 1 422 21 q 275 -19 332 -19 q 139 33 188 -19 q 90 182 90 86 l 90 517 q 78 582 90 565 q 22 607 65 599 l 22 640 l 283 640 l 283 176 q 361 71 283 71 q 475 136 415 71 l 475 519 q 458 585 475 567 q 390 607 442 603 l 390 640 l 668 640 l 668 146 q 685 81 668 100 q 747 60 701 61 l 747 28 z "},"ý":{"ha":694,"x_min":22,"x_max":669,"o":"m 179 733 l 369 951 q 443 990 404 990 q 492 974 474 990 q 510 929 510 957 q 499 891 510 906 q 454 856 488 876 l 257 733 l 179 733 m 669 640 l 669 607 q 619 588 636 603 q 586 531 603 574 l 381 -22 q 274 -239 318 -190 q 157 -285 231 -285 q 60 -254 97 -285 q 22 -175 22 -224 q 46 -108 22 -135 q 108 -82 69 -82 q 167 -103 143 -82 q 192 -154 192 -124 q 189 -174 192 -160 l 188 -182 q 194 -199 188 -192 q 211 -206 201 -206 q 303 -92 264 -206 l 328 -18 l 163 385 q 69 588 94 553 q 22 607 58 601 l 22 640 l 368 640 l 368 607 l 346 606 q 296 571 296 601 q 324 490 296 561 l 424 232 l 518 493 q 533 561 533 538 q 518 596 533 586 q 458 607 503 606 l 458 640 l 669 640 z "},"þ":{"ha":772,"x_min":26,"x_max":728,"o":"m 297 939 l 297 543 q 367 631 328 604 q 469 657 407 657 q 656 567 585 657 q 728 332 728 478 q 653 80 728 178 q 461 -18 579 -18 q 381 -1 414 -18 q 297 65 347 17 l 297 -131 q 319 -226 297 -200 q 406 -256 342 -253 l 406 -285 l 26 -285 l 26 -251 q 90 -228 76 -243 q 104 -171 104 -214 l 104 825 q 90 881 104 867 q 28 906 76 896 l 28 939 l 297 939 m 297 481 l 297 143 q 407 58 336 58 q 522 318 522 58 q 417 578 522 578 q 322 526 365 578 q 297 481 297 497 z "},"ÿ":{"ha":694,"x_min":22,"x_max":669,"o":"m 669 640 l 669 607 q 619 588 636 603 q 586 531 603 574 l 381 -22 q 274 -239 318 -190 q 157 -285 231 -285 q 60 -254 97 -285 q 22 -175 22 -224 q 46 -108 22 -135 q 108 -82 69 -82 q 167 -103 143 -82 q 192 -154 192 -124 q 189 -174 192 -160 l 188 -182 q 194 -199 188 -192 q 211 -206 201 -206 q 303 -92 264 -206 l 328 -18 l 163 385 q 69 588 94 553 q 22 607 58 601 l 22 640 l 368 640 l 368 607 l 346 606 q 296 571 296 601 q 324 490 296 561 l 424 232 l 518 493 q 533 561 533 538 q 518 596 533 586 q 458 607 503 606 l 458 640 l 669 640 m 578 833 q 551 772 578 797 q 486 746 525 746 q 424 772 450 746 q 399 836 399 799 q 425 899 399 872 q 488 925 451 925 q 551 898 524 925 q 578 833 578 871 m 286 833 q 260 772 286 797 q 196 746 235 746 q 133 772 160 746 q 107 836 107 799 q 134 899 107 872 q 197 925 161 925 q 260 898 233 925 q 286 833 286 871 z "},"Ā":{"ha":1003,"x_min":13,"x_max":957,"o":"m 715 1025 l 257 1025 l 257 1125 l 715 1125 l 715 1025 m 957 0 l 510 0 l 510 35 l 554 39 q 603 52 589 42 q 618 85 618 63 q 554 274 618 125 l 242 274 l 224 226 q 181 92 181 115 q 206 52 181 65 q 293 35 232 39 l 293 0 l 13 0 l 13 35 q 86 74 61 43 q 150 201 111 104 l 457 958 l 496 958 l 804 233 q 885 72 857 108 q 957 35 914 35 l 957 0 m 533 328 l 393 665 l 263 328 l 533 328 z "},"ā":{"ha":694,"x_min":35,"x_max":678,"o":"m 576 733 l 118 733 l 118 833 l 576 833 l 576 733 m 657 89 l 678 60 q 522 -19 604 -19 q 445 2 471 -19 q 408 76 419 24 q 188 -19 303 -19 q 76 17 118 -19 q 35 128 35 54 q 128 283 35 221 q 407 389 197 329 l 407 483 q 381 582 407 551 q 294 613 356 613 q 230 599 256 613 q 204 561 204 585 q 219 529 204 546 q 246 471 246 497 q 219 411 246 435 q 151 388 193 388 q 85 413 108 388 q 61 482 61 438 q 134 610 61 564 q 326 657 207 657 q 526 608 454 657 q 599 471 599 560 l 599 108 q 628 69 599 69 q 643 75 638 69 l 657 89 m 407 135 l 407 340 q 238 172 238 293 q 258 103 238 128 q 310 79 278 79 q 407 135 368 79 z "},"Ă":{"ha":1003,"x_min":13,"x_max":957,"o":"m 632 1251 l 693 1251 q 633 1086 685 1147 q 482 1025 581 1025 q 327 1087 381 1025 q 272 1251 274 1149 l 333 1251 q 475 1131 357 1131 q 577 1158 540 1131 q 632 1251 614 1186 m 957 0 l 510 0 l 510 35 l 554 39 q 603 52 589 42 q 618 85 618 63 q 554 274 618 125 l 242 274 l 224 226 q 181 92 181 115 q 206 52 181 65 q 293 35 232 39 l 293 0 l 13 0 l 13 35 q 86 74 61 43 q 150 201 111 104 l 457 958 l 496 958 l 804 233 q 885 72 857 108 q 957 35 914 35 l 957 0 m 533 328 l 393 665 l 263 328 l 533 328 z "},"ă":{"ha":694,"x_min":35,"x_max":678,"o":"m 488 960 l 549 960 q 488 794 540 856 q 338 733 436 733 q 183 795 236 733 q 128 960 129 857 l 189 960 q 331 839 213 839 q 433 867 396 839 q 488 960 469 894 m 657 89 l 678 60 q 522 -19 604 -19 q 445 2 471 -19 q 408 76 419 24 q 188 -19 303 -19 q 76 17 118 -19 q 35 128 35 54 q 128 283 35 221 q 407 389 197 329 l 407 483 q 381 582 407 551 q 294 613 356 613 q 230 599 256 613 q 204 561 204 585 q 219 529 204 546 q 246 471 246 497 q 219 411 246 435 q 151 388 193 388 q 85 413 108 388 q 61 482 61 438 q 134 610 61 564 q 326 657 207 657 q 526 608 454 657 q 599 471 599 560 l 599 108 q 628 69 599 69 q 643 75 638 69 l 657 89 m 407 135 l 407 340 q 238 172 238 293 q 258 103 238 128 q 310 79 278 79 q 407 135 368 79 z "},"Ą":{"ha":1003,"x_min":13,"x_max":1001,"o":"m 778 0 l 510 0 l 510 35 l 554 39 q 603 52 589 42 q 618 85 618 63 q 554 274 618 125 l 242 274 l 224 226 q 181 92 181 115 q 206 52 181 65 q 293 35 232 39 l 293 0 l 13 0 l 13 35 q 86 74 61 43 q 150 201 111 104 l 457 958 l 496 958 l 804 233 q 885 72 857 108 q 957 35 914 35 l 957 0 l 819 0 q 815 -11 818 -3 q 800 -100 800 -65 q 819 -169 800 -149 q 885 -189 839 -189 q 951 -171 915 -189 q 969 -160 957 -168 l 1001 -182 q 926 -257 976 -229 q 826 -285 876 -285 q 722 -255 761 -285 q 683 -176 683 -225 q 699 -105 683 -137 q 758 -22 715 -72 q 769 -8 764 -14 q 778 0 775 -3 m 533 328 l 393 665 l 263 328 l 533 328 z "},"ą":{"ha":694,"x_min":35,"x_max":790,"o":"m 758 -160 l 790 -182 q 715 -257 765 -229 q 615 -285 665 -285 q 511 -255 550 -285 q 472 -176 472 -225 q 488 -105 472 -137 q 547 -22 504 -72 l 551 -18 q 522 -19 542 -19 q 445 2 471 -19 q 408 76 419 24 q 188 -19 303 -19 q 76 17 118 -19 q 35 128 35 54 q 128 283 35 221 q 407 389 197 329 l 407 483 q 381 582 407 551 q 294 613 356 613 q 230 599 256 613 q 204 561 204 585 q 219 529 204 546 q 246 471 246 497 q 219 411 246 435 q 151 388 193 388 q 85 413 108 388 q 61 482 61 438 q 134 610 61 564 q 326 657 207 657 q 526 608 454 657 q 599 471 599 560 l 599 108 q 628 69 599 69 q 643 75 638 69 l 657 89 l 678 60 q 608 1 644 22 q 604 -11 606 -3 q 589 -100 589 -65 q 608 -169 589 -149 q 674 -189 628 -189 q 740 -171 704 -189 q 758 -160 746 -168 m 407 135 l 407 340 q 238 172 238 293 q 258 103 238 128 q 310 79 278 79 q 407 135 368 79 z "},"Ć":{"ha":1003,"x_min":68,"x_max":954,"o":"m 439 1025 l 629 1243 q 703 1282 664 1282 q 751 1265 733 1282 q 769 1221 769 1249 q 758 1183 769 1197 q 714 1147 747 1168 l 517 1025 l 439 1025 m 913 211 l 954 176 q 770 17 861 61 q 554 -26 679 -26 q 201 108 333 -26 q 68 449 68 242 q 203 815 68 671 q 550 960 339 960 q 767 911 649 960 q 831 892 811 892 q 863 905 850 892 q 892 956 876 918 l 929 956 l 929 629 l 894 629 q 801 789 864 715 q 569 914 697 914 q 385 798 457 914 q 314 479 314 682 q 389 146 314 264 q 476 69 419 99 q 593 40 532 40 q 768 88 682 40 q 913 211 825 119 z "},"ć":{"ha":617,"x_min":35,"x_max":597,"o":"m 225 733 l 415 951 q 489 990 450 990 q 538 974 519 990 q 556 929 556 957 q 544 891 556 906 q 500 856 533 876 l 303 733 l 225 733 m 572 151 l 597 126 q 478 15 540 49 q 332 -19 415 -19 q 117 71 200 -19 q 35 308 35 161 q 129 559 35 461 q 364 657 224 657 q 517 614 456 657 q 578 504 578 571 q 552 440 578 464 q 483 415 526 415 q 426 442 447 415 q 406 517 406 468 q 405 553 406 542 q 401 578 404 564 q 393 599 399 593 q 376 610 388 606 q 347 614 364 614 q 263 552 294 614 q 231 379 231 490 q 282 156 231 238 q 424 74 333 74 q 572 151 504 74 z "},"Ĉ":{"ha":1003,"x_min":68,"x_max":954,"o":"m 749 1025 l 669 1025 l 514 1161 l 358 1025 l 281 1025 l 450 1269 l 578 1269 l 749 1025 m 913 211 l 954 176 q 770 17 861 61 q 554 -26 679 -26 q 201 108 333 -26 q 68 449 68 242 q 203 815 68 671 q 550 960 339 960 q 767 911 649 960 q 831 892 811 892 q 863 905 850 892 q 892 956 876 918 l 929 956 l 929 629 l 894 629 q 801 789 864 715 q 569 914 697 914 q 385 798 457 914 q 314 479 314 682 q 389 146 314 264 q 476 69 419 99 q 593 40 532 40 q 768 88 682 40 q 913 211 825 119 z "},"ĉ":{"ha":617,"x_min":35,"x_max":597,"o":"m 554 733 l 475 733 l 319 869 l 164 733 l 86 733 l 256 978 l 383 978 l 554 733 m 572 151 l 597 126 q 478 15 540 49 q 332 -19 415 -19 q 117 71 200 -19 q 35 308 35 161 q 129 559 35 461 q 364 657 224 657 q 517 614 456 657 q 578 504 578 571 q 552 440 578 464 q 483 415 526 415 q 426 442 447 415 q 406 517 406 468 q 405 553 406 542 q 401 578 404 564 q 393 599 399 593 q 376 610 388 606 q 347 614 364 614 q 263 552 294 614 q 231 379 231 490 q 282 156 231 238 q 424 74 333 74 q 572 151 504 74 z "},"Ċ":{"ha":1003,"x_min":68,"x_max":954,"o":"m 604 1125 q 578 1063 604 1089 q 513 1038 551 1038 q 451 1064 476 1038 q 425 1128 425 1090 q 451 1190 425 1164 q 514 1217 478 1217 q 577 1190 550 1217 q 604 1125 604 1163 m 913 211 l 954 176 q 770 17 861 61 q 554 -26 679 -26 q 201 108 333 -26 q 68 449 68 242 q 203 815 68 671 q 550 960 339 960 q 767 911 649 960 q 831 892 811 892 q 863 905 850 892 q 892 956 876 918 l 929 956 l 929 629 l 894 629 q 801 789 864 715 q 569 914 697 914 q 385 798 457 914 q 314 479 314 682 q 389 146 314 264 q 476 69 419 99 q 593 40 532 40 q 768 88 682 40 q 913 211 825 119 z "},"ċ":{"ha":617,"x_min":35,"x_max":597,"o":"m 424 833 q 397 772 424 797 q 332 746 371 746 q 270 772 296 746 q 244 836 244 799 q 271 899 244 872 q 333 925 297 925 q 397 898 369 925 q 424 833 424 871 m 572 151 l 597 126 q 478 15 540 49 q 332 -19 415 -19 q 117 71 200 -19 q 35 308 35 161 q 129 559 35 461 q 364 657 224 657 q 517 614 456 657 q 578 504 578 571 q 552 440 578 464 q 483 415 526 415 q 426 442 447 415 q 406 517 406 468 q 405 553 406 542 q 401 578 404 564 q 393 599 399 593 q 376 610 388 606 q 347 614 364 614 q 263 552 294 614 q 231 379 231 490 q 282 156 231 238 q 424 74 333 74 q 572 151 504 74 z "},"Č":{"ha":1003,"x_min":68,"x_max":954,"o":"m 783 1269 l 613 1025 l 485 1025 l 315 1269 l 394 1269 l 549 1132 l 703 1269 l 783 1269 m 913 211 l 954 176 q 770 17 861 61 q 554 -26 679 -26 q 201 108 333 -26 q 68 449 68 242 q 203 815 68 671 q 550 960 339 960 q 767 911 649 960 q 831 892 811 892 q 863 905 850 892 q 892 956 876 918 l 929 956 l 929 629 l 894 629 q 801 789 864 715 q 569 914 697 914 q 385 798 457 914 q 314 479 314 682 q 389 146 314 264 q 476 69 419 99 q 593 40 532 40 q 768 88 682 40 q 913 211 825 119 z "},"č":{"ha":617,"x_min":35,"x_max":597,"o":"m 578 978 l 407 733 l 279 733 l 110 978 l 189 978 l 343 840 l 497 978 l 578 978 m 572 151 l 597 126 q 478 15 540 49 q 332 -19 415 -19 q 117 71 200 -19 q 35 308 35 161 q 129 559 35 461 q 364 657 224 657 q 517 614 456 657 q 578 504 578 571 q 552 440 578 464 q 483 415 526 415 q 426 442 447 415 q 406 517 406 468 q 405 553 406 542 q 401 578 404 564 q 393 599 399 593 q 376 610 388 606 q 347 614 364 614 q 263 552 294 614 q 231 379 231 490 q 282 156 231 238 q 424 74 333 74 q 572 151 504 74 z "},"Ď":{"ha":1003,"x_min":19,"x_max":958,"o":"m 672 1269 l 501 1025 l 374 1025 l 204 1269 l 283 1269 l 438 1132 l 592 1269 l 672 1269 m 19 939 l 453 939 q 824 817 690 939 q 958 479 958 694 q 916 275 958 372 q 799 113 874 178 q 449 0 669 0 l 19 0 l 19 35 q 107 61 79 36 q 135 136 135 86 l 135 811 q 110 878 135 858 q 19 904 86 897 l 19 939 m 360 831 l 360 139 q 377 69 360 90 q 440 49 394 49 q 647 149 576 49 q 698 280 679 194 q 717 458 717 365 q 660 751 717 651 q 433 892 579 892 q 360 831 360 892 z "},"ď":{"ha":944,"x_min":35,"x_max":986,"o":"m 756 519 l 740 550 q 892 735 892 656 q 865 764 892 764 q 850 763 861 764 q 832 761 839 761 q 759 790 788 761 q 731 867 731 819 q 763 953 731 921 q 847 985 794 985 q 949 942 913 985 q 986 824 986 899 q 756 519 986 640 m 742 28 l 656 17 q 471 -18 542 1 l 471 72 q 382 1 422 21 q 286 -19 342 -19 q 106 72 176 -19 q 35 307 35 164 q 110 558 35 458 q 301 657 186 657 q 385 638 349 657 q 467 571 422 619 l 467 825 q 449 887 467 874 q 361 906 431 900 l 361 939 l 660 939 l 660 140 q 677 79 660 96 q 742 60 694 63 l 742 28 m 467 156 l 467 493 q 422 556 451 533 q 358 579 393 579 q 240 318 240 579 q 349 58 240 58 q 440 110 399 58 q 467 156 467 144 z "},"Đ":{"ha":1003,"x_min":8,"x_max":958,"o":"m 19 939 l 443 939 q 822 817 685 939 q 958 479 958 694 q 833 144 958 272 q 669 38 768 76 q 458 0 569 0 l 19 0 l 19 35 q 107 58 79 36 q 135 126 135 81 l 135 453 l 8 453 l 8 518 l 135 518 l 135 811 q 110 878 135 858 q 19 904 86 897 l 19 939 m 360 453 l 360 129 q 376 65 360 82 q 440 49 393 49 q 647 149 576 49 q 717 458 717 250 q 658 753 717 642 q 443 892 583 892 q 376 878 393 892 q 360 826 360 865 l 360 518 l 518 518 l 518 453 l 360 453 z "},"đ":{"ha":772,"x_min":35,"x_max":742,"o":"m 742 28 l 656 17 q 471 -18 542 1 l 471 72 q 382 1 422 21 q 286 -19 342 -19 q 106 72 176 -19 q 35 307 35 164 q 110 558 35 458 q 301 657 186 657 q 385 638 349 657 q 467 571 422 619 l 467 718 l 219 718 l 219 788 l 467 788 l 467 825 q 449 887 467 874 q 361 906 431 900 l 361 939 l 660 939 l 660 788 l 733 788 l 733 718 l 660 718 l 660 140 q 677 79 660 96 q 742 60 694 63 l 742 28 m 467 156 l 467 493 q 422 556 451 533 q 358 579 393 579 q 240 318 240 579 q 349 60 240 60 q 440 110 400 60 q 467 156 467 144 z "},"Ē":{"ha":926,"x_min":22,"x_max":890,"o":"m 681 1025 l 222 1025 l 222 1125 l 681 1125 l 681 1025 m 890 289 l 835 0 l 22 0 l 22 35 q 121 64 97 43 q 144 140 144 85 l 144 806 q 119 879 144 858 q 22 904 94 900 l 22 939 l 824 939 l 824 660 l 789 660 q 698 845 765 799 q 460 892 631 892 q 388 875 407 892 q 369 817 369 858 l 369 504 q 532 549 482 506 q 594 711 582 593 l 631 711 l 631 242 l 594 242 q 535 410 585 364 q 369 457 485 457 l 369 121 q 394 60 369 76 q 485 43 418 43 q 738 118 647 43 q 796 182 772 146 q 851 289 819 218 l 890 289 z "},"ē":{"ha":617,"x_min":35,"x_max":593,"o":"m 549 733 l 90 733 l 90 833 l 549 833 l 549 733 m 560 175 l 593 156 q 470 19 532 58 q 318 -19 408 -19 q 114 74 193 -19 q 35 311 35 168 q 115 562 35 467 q 325 657 194 657 q 503 588 440 657 q 585 340 576 507 l 235 340 q 246 242 239 282 q 269 163 253 203 q 319 101 286 122 q 400 81 351 81 q 481 102 444 81 q 560 175 517 124 m 414 392 l 414 421 q 401 549 414 522 q 369 599 385 583 q 325 614 353 614 q 251 563 275 614 q 228 392 228 513 l 414 392 z "},"Ĕ":{"ha":926,"x_min":22,"x_max":890,"o":"m 601 1251 l 663 1251 q 602 1086 654 1147 q 451 1025 550 1025 q 297 1087 350 1025 q 242 1251 243 1149 l 303 1251 q 444 1131 326 1131 q 547 1158 510 1131 q 601 1251 583 1186 m 890 289 l 835 0 l 22 0 l 22 35 q 121 64 97 43 q 144 140 144 85 l 144 806 q 119 879 144 858 q 22 904 94 900 l 22 939 l 824 939 l 824 660 l 789 660 q 698 845 765 799 q 460 892 631 892 q 388 875 407 892 q 369 817 369 858 l 369 504 q 532 549 482 506 q 594 711 582 593 l 631 711 l 631 242 l 594 242 q 535 410 585 364 q 369 457 485 457 l 369 121 q 394 60 369 76 q 485 43 418 43 q 738 118 647 43 q 796 182 772 146 q 851 289 819 218 l 890 289 z "},"ĕ":{"ha":617,"x_min":35,"x_max":593,"o":"m 469 960 l 531 960 q 470 794 522 856 q 319 733 418 733 q 165 795 218 733 q 110 960 111 857 l 171 960 q 313 839 194 839 q 415 867 378 839 q 469 960 451 894 m 560 175 l 593 156 q 470 19 532 58 q 318 -19 408 -19 q 114 74 193 -19 q 35 311 35 168 q 115 562 35 467 q 325 657 194 657 q 503 588 440 657 q 585 340 576 507 l 235 340 q 246 242 239 282 q 269 163 253 203 q 319 101 286 122 q 400 81 351 81 q 481 102 444 81 q 560 175 517 124 m 414 392 l 414 421 q 401 549 414 522 q 369 599 385 583 q 325 614 353 614 q 251 563 275 614 q 228 392 228 513 l 414 392 z "},"Ė":{"ha":926,"x_min":22,"x_max":890,"o":"m 549 1125 q 522 1063 549 1089 q 457 1038 496 1038 q 395 1064 421 1038 q 369 1128 369 1090 q 396 1190 369 1164 q 458 1217 422 1217 q 522 1190 494 1217 q 549 1125 549 1163 m 890 289 l 835 0 l 22 0 l 22 35 q 121 64 97 43 q 144 140 144 85 l 144 806 q 119 879 144 858 q 22 904 94 900 l 22 939 l 824 939 l 824 660 l 789 660 q 698 845 765 799 q 460 892 631 892 q 388 875 407 892 q 369 817 369 858 l 369 504 q 532 549 482 506 q 594 711 582 593 l 631 711 l 631 242 l 594 242 q 535 410 585 364 q 369 457 485 457 l 369 121 q 394 60 369 76 q 485 43 418 43 q 738 118 647 43 q 796 182 772 146 q 851 289 819 218 l 890 289 z "},"ė":{"ha":617,"x_min":35,"x_max":593,"o":"m 410 833 q 383 772 410 797 q 318 746 357 746 q 256 772 282 746 q 231 836 231 799 q 257 899 231 872 q 319 925 283 925 q 383 898 356 925 q 410 833 410 871 m 560 175 l 593 156 q 470 19 532 58 q 318 -19 408 -19 q 114 74 193 -19 q 35 311 35 168 q 115 562 35 467 q 325 657 194 657 q 503 588 440 657 q 585 340 576 507 l 235 340 q 246 242 239 282 q 269 163 253 203 q 319 101 286 122 q 400 81 351 81 q 481 102 444 81 q 560 175 517 124 m 414 392 l 414 421 q 401 549 414 522 q 369 599 385 583 q 325 614 353 614 q 251 563 275 614 q 228 392 228 513 l 414 392 z "},"Ę":{"ha":926,"x_min":22,"x_max":890,"o":"m 565 0 l 22 0 l 22 35 q 121 64 97 43 q 144 140 144 85 l 144 806 q 119 879 144 858 q 22 904 94 900 l 22 939 l 824 939 l 824 660 l 789 660 q 698 845 765 799 q 460 892 631 892 q 388 875 407 892 q 369 817 369 858 l 369 504 q 532 549 482 506 q 594 711 582 593 l 631 711 l 631 242 l 594 242 q 535 410 585 364 q 369 457 485 457 l 369 121 q 394 60 369 76 q 485 43 418 43 q 738 118 647 43 q 796 182 772 146 q 851 289 819 218 l 890 289 l 835 0 l 607 0 q 603 -11 606 -3 q 588 -100 588 -65 q 607 -169 588 -149 q 672 -189 626 -189 q 739 -171 703 -189 q 757 -160 744 -168 l 789 -182 q 714 -257 764 -229 q 614 -285 664 -285 q 510 -255 549 -285 q 471 -176 471 -225 q 487 -105 471 -137 q 546 -22 503 -72 q 558 -8 553 -14 q 565 0 564 -3 z "},"ę":{"ha":617,"x_min":35,"x_max":604,"o":"m 572 -160 l 604 -182 q 529 -257 579 -229 q 429 -285 479 -285 q 325 -255 364 -285 q 286 -176 286 -225 q 302 -105 286 -137 q 361 -22 318 -72 q 365 -17 363 -21 q 318 -19 335 -19 q 114 74 193 -19 q 35 311 35 168 q 115 562 35 467 q 325 657 194 657 q 503 588 440 657 q 585 340 576 507 l 235 340 q 246 242 239 282 q 269 163 253 203 q 319 101 286 122 q 400 81 351 81 q 481 102 444 81 q 560 175 517 124 l 593 156 q 421 -4 511 28 q 419 -8 419 -6 q 418 -11 419 -10 q 403 -100 403 -65 q 422 -169 403 -149 q 488 -189 442 -189 q 554 -171 518 -189 q 572 -160 560 -168 m 414 392 l 414 421 q 401 549 414 522 q 369 599 385 583 q 325 614 353 614 q 251 563 275 614 q 228 392 228 513 l 414 392 z "},"Ě":{"ha":926,"x_min":22,"x_max":890,"o":"m 707 1269 l 536 1025 l 408 1025 l 239 1269 l 318 1269 l 472 1132 l 626 1269 l 707 1269 m 890 289 l 835 0 l 22 0 l 22 35 q 121 64 97 43 q 144 140 144 85 l 144 806 q 119 879 144 858 q 22 904 94 900 l 22 939 l 824 939 l 824 660 l 789 660 q 698 845 765 799 q 460 892 631 892 q 388 875 407 892 q 369 817 369 858 l 369 504 q 532 549 482 506 q 594 711 582 593 l 631 711 l 631 242 l 594 242 q 535 410 585 364 q 369 457 485 457 l 369 121 q 394 60 369 76 q 485 43 418 43 q 738 118 647 43 q 796 182 772 146 q 851 289 819 218 l 890 289 z "},"ě":{"ha":617,"x_min":35,"x_max":593,"o":"m 558 978 l 388 733 l 260 733 l 90 978 l 169 978 l 324 840 l 478 978 l 558 978 m 560 175 l 593 156 q 470 19 532 58 q 318 -19 408 -19 q 114 74 193 -19 q 35 311 35 168 q 115 562 35 467 q 325 657 194 657 q 503 588 440 657 q 585 340 576 507 l 235 340 q 246 242 239 282 q 269 163 253 203 q 319 101 286 122 q 400 81 351 81 q 481 102 444 81 q 560 175 517 124 m 414 392 l 414 421 q 401 549 414 522 q 369 599 385 583 q 325 614 353 614 q 251 563 275 614 q 228 392 228 513 l 414 392 z "},"Ĝ":{"ha":1081,"x_min":51,"x_max":1049,"o":"m 790 1025 l 711 1025 l 556 1161 l 400 1025 l 322 1025 l 492 1269 l 619 1269 l 790 1025 m 1049 399 l 1049 364 q 952 326 975 356 q 929 225 929 296 l 929 61 q 757 -3 861 21 q 544 -26 653 -26 q 191 107 331 -26 q 51 460 51 240 q 190 815 51 669 q 535 960 328 960 q 750 911 632 960 q 814 892 794 892 q 847 905 833 892 q 875 956 860 918 l 913 956 l 913 629 l 878 629 q 812 758 838 717 q 744 836 786 799 q 553 914 657 914 q 364 799 431 914 q 297 469 297 683 q 364 140 297 251 q 451 49 401 78 q 579 19 501 19 q 713 138 713 19 l 713 261 q 685 338 713 317 q 571 364 658 358 l 571 399 l 1049 399 z "},"ĝ":{"ha":694,"x_min":39,"x_max":671,"o":"m 582 733 l 503 733 l 347 869 l 192 733 l 114 733 l 283 978 l 411 978 l 582 733 m 353 94 l 425 94 q 604 49 538 94 q 671 -72 671 4 q 576 -228 671 -171 q 308 -286 481 -286 q 39 -158 39 -286 q 172 -54 39 -74 q 83 -6 107 -31 q 58 60 58 19 q 99 159 58 121 q 224 222 139 197 q 99 300 147 243 q 51 433 51 357 q 130 596 51 535 q 333 657 208 657 q 489 626 406 657 l 668 626 l 668 553 l 557 553 q 613 417 613 503 q 485 233 613 286 q 428 217 451 219 q 308 214 404 214 q 240 195 267 214 q 213 146 213 176 q 242 106 213 117 q 353 94 271 94 m 425 433 q 403 572 425 531 q 332 614 382 614 q 262 574 282 614 q 242 432 242 533 q 263 294 242 335 q 333 253 283 253 q 404 294 383 253 q 425 433 425 335 m 438 -72 l 210 -72 q 171 -111 181 -96 q 161 -149 161 -126 q 347 -242 161 -242 q 504 -216 447 -242 q 561 -150 561 -190 q 438 -72 561 -72 z "},"Ğ":{"ha":1081,"x_min":51,"x_max":1049,"o":"m 696 1251 l 757 1251 q 697 1086 749 1147 q 546 1025 644 1025 q 391 1087 444 1025 q 336 1251 338 1149 l 397 1251 q 539 1131 421 1131 q 641 1158 604 1131 q 696 1251 678 1186 m 1049 399 l 1049 364 q 952 326 975 356 q 929 225 929 296 l 929 61 q 757 -3 861 21 q 544 -26 653 -26 q 191 107 331 -26 q 51 460 51 240 q 190 815 51 669 q 535 960 328 960 q 750 911 632 960 q 814 892 794 892 q 847 905 833 892 q 875 956 860 918 l 913 956 l 913 629 l 878 629 q 812 758 838 717 q 744 836 786 799 q 553 914 657 914 q 364 799 431 914 q 297 469 297 683 q 364 140 297 251 q 451 49 401 78 q 579 19 501 19 q 713 138 713 19 l 713 261 q 685 338 713 317 q 571 364 658 358 l 571 399 l 1049 399 z "},"ğ":{"ha":694,"x_min":39,"x_max":671,"o":"m 492 960 l 553 960 q 492 794 544 856 q 342 733 440 733 q 187 795 240 733 q 132 960 133 857 l 193 960 q 335 839 217 839 q 437 867 400 839 q 492 960 474 894 m 353 94 l 425 94 q 604 49 538 94 q 671 -72 671 4 q 576 -228 671 -171 q 308 -286 481 -286 q 39 -158 39 -286 q 172 -54 39 -74 q 83 -6 107 -31 q 58 60 58 19 q 99 159 58 121 q 224 222 139 197 q 99 300 147 243 q 51 433 51 357 q 130 596 51 535 q 333 657 208 657 q 489 626 406 657 l 668 626 l 668 553 l 557 553 q 613 417 613 503 q 485 233 613 286 q 428 217 451 219 q 308 214 404 214 q 240 195 267 214 q 213 146 213 176 q 242 106 213 117 q 353 94 271 94 m 425 433 q 403 572 425 531 q 332 614 382 614 q 262 574 282 614 q 242 432 242 533 q 263 294 242 335 q 333 253 283 253 q 404 294 383 253 q 425 433 425 335 m 438 -72 l 210 -72 q 171 -111 181 -96 q 161 -149 161 -126 q 347 -242 161 -242 q 504 -216 447 -242 q 561 -150 561 -190 q 438 -72 561 -72 z "},"Ġ":{"ha":1081,"x_min":51,"x_max":1049,"o":"m 646 1125 q 619 1063 646 1089 q 554 1038 593 1038 q 492 1064 518 1038 q 467 1128 467 1090 q 493 1190 467 1164 q 556 1217 519 1217 q 619 1190 592 1217 q 646 1125 646 1163 m 1049 399 l 1049 364 q 952 326 975 356 q 929 225 929 296 l 929 61 q 757 -3 861 21 q 544 -26 653 -26 q 191 107 331 -26 q 51 460 51 240 q 190 815 51 669 q 535 960 328 960 q 750 911 632 960 q 814 892 794 892 q 847 905 833 892 q 875 956 860 918 l 913 956 l 913 629 l 878 629 q 812 758 838 717 q 744 836 786 799 q 553 914 657 914 q 364 799 431 914 q 297 469 297 683 q 364 140 297 251 q 451 49 401 78 q 579 19 501 19 q 713 138 713 19 l 713 261 q 685 338 713 317 q 571 364 658 358 l 571 399 l 1049 399 z "},"ġ":{"ha":694,"x_min":39,"x_max":671,"o":"m 438 833 q 411 772 438 797 q 346 746 385 746 q 284 772 310 746 q 258 836 258 799 q 285 899 258 872 q 347 925 311 925 q 410 898 383 925 q 438 833 438 871 m 353 94 l 425 94 q 604 49 538 94 q 671 -72 671 4 q 576 -228 671 -171 q 308 -286 481 -286 q 39 -158 39 -286 q 172 -54 39 -74 q 83 -6 107 -31 q 58 60 58 19 q 99 159 58 121 q 224 222 139 197 q 99 300 147 243 q 51 433 51 357 q 130 596 51 535 q 333 657 208 657 q 489 626 406 657 l 668 626 l 668 553 l 557 553 q 613 417 613 503 q 485 233 613 286 q 428 217 451 219 q 308 214 404 214 q 240 195 267 214 q 213 146 213 176 q 242 106 213 117 q 353 94 271 94 m 425 433 q 403 572 425 531 q 332 614 382 614 q 262 574 282 614 q 242 432 242 533 q 263 294 242 335 q 333 253 283 253 q 404 294 383 253 q 425 433 425 335 m 438 -72 l 210 -72 q 171 -111 181 -96 q 161 -149 161 -126 q 347 -242 161 -242 q 504 -216 447 -242 q 561 -150 561 -190 q 438 -72 561 -72 z "},"Ģ":{"ha":1081,"x_min":51,"x_max":1049,"o":"m 1049 399 l 1049 364 q 952 326 975 356 q 929 225 929 296 l 929 61 q 757 -3 861 21 q 544 -26 653 -26 q 191 107 331 -26 q 51 460 51 240 q 190 815 51 669 q 535 960 328 960 q 750 911 632 960 q 814 892 794 892 q 847 905 833 892 q 875 956 860 918 l 913 956 l 913 629 l 878 629 q 812 758 838 717 q 744 836 786 799 q 553 914 657 914 q 364 799 431 914 q 297 469 297 683 q 364 140 297 251 q 451 49 401 78 q 579 19 501 19 q 713 138 713 19 l 713 261 q 685 338 713 317 q 571 364 658 358 l 571 399 l 1049 399 m 440 -525 l 425 -494 q 576 -310 576 -389 q 550 -281 576 -281 q 535 -282 546 -281 q 517 -283 524 -283 q 444 -254 472 -283 q 415 -178 415 -225 q 447 -92 415 -124 q 532 -60 479 -60 q 634 -103 597 -60 q 671 -221 671 -146 q 440 -525 671 -404 z "},"ģ":{"ha":694,"x_min":39,"x_max":671,"o":"m 433 1199 l 449 1168 q 297 983 297 1063 q 324 954 297 954 q 339 956 328 954 q 357 957 350 957 q 430 928 401 957 q 458 851 458 899 q 426 765 458 797 q 342 733 394 733 q 240 776 276 733 q 203 894 203 819 q 433 1199 203 1078 m 353 94 l 425 94 q 604 49 538 94 q 671 -72 671 4 q 576 -228 671 -171 q 308 -286 481 -286 q 39 -158 39 -286 q 172 -54 39 -74 q 83 -6 107 -31 q 58 60 58 19 q 99 159 58 121 q 224 222 139 197 q 99 300 147 243 q 51 433 51 357 q 130 596 51 535 q 333 657 208 657 q 489 626 406 657 l 668 626 l 668 553 l 557 553 q 613 417 613 503 q 485 233 613 286 q 428 217 451 219 q 308 214 404 214 q 240 195 267 214 q 213 146 213 176 q 242 106 213 117 q 353 94 271 94 m 425 433 q 403 572 425 531 q 332 614 382 614 q 262 574 282 614 q 242 432 242 533 q 263 294 242 335 q 333 253 283 253 q 404 294 383 253 q 425 433 425 335 m 438 -72 l 210 -72 q 171 -111 181 -96 q 161 -149 161 -126 q 347 -242 161 -242 q 504 -216 447 -242 q 561 -150 561 -190 q 438 -72 561 -72 z "},"Ĥ":{"ha":1081,"x_min":29,"x_max":1054,"o":"m 774 1025 l 694 1025 l 539 1161 l 383 1025 l 306 1025 l 475 1269 l 603 1269 l 774 1025 m 1054 0 l 583 0 l 583 35 q 683 63 658 43 q 707 136 707 83 l 707 453 l 372 453 l 372 136 q 396 62 372 81 q 496 35 419 43 l 496 0 l 29 0 l 29 35 q 125 63 103 44 q 147 136 147 82 l 147 801 q 124 878 147 858 q 29 904 100 897 l 29 939 l 496 939 l 496 904 q 397 878 422 899 q 372 801 372 858 l 372 518 l 707 518 l 707 801 q 682 878 707 858 q 583 904 657 899 l 583 939 l 1054 939 l 1054 904 q 958 878 983 899 q 932 801 932 857 l 932 136 q 955 63 932 82 q 1054 35 978 44 l 1054 0 z "},"ĥ":{"ha":772,"x_min":21,"x_max":742,"o":"m 582 1025 l 503 1025 l 347 1161 l 192 1025 l 114 1025 l 283 1269 l 411 1269 l 582 1025 m 742 0 l 417 0 l 417 33 q 466 56 451 38 q 481 118 481 75 l 481 429 q 465 534 481 504 q 410 564 450 564 q 313 517 360 564 q 289 483 289 493 l 289 118 q 303 57 289 75 q 356 33 317 39 l 356 0 l 22 0 l 22 33 q 84 56 72 43 q 96 124 96 68 l 96 821 q 83 883 96 869 q 21 906 71 896 l 21 939 l 289 939 l 289 550 q 493 657 379 657 q 625 604 576 657 q 674 468 674 551 l 674 121 q 690 53 674 74 q 742 33 706 33 l 742 0 z "},"Ħ":{"ha":1081,"x_min":29,"x_max":1054,"o":"m 1054 0 l 583 0 l 583 35 q 683 63 658 43 q 707 136 707 83 l 707 453 l 372 453 l 372 136 q 396 62 372 81 q 496 35 419 43 l 496 0 l 29 0 l 29 35 q 125 63 103 44 q 147 136 147 82 l 147 685 l 29 685 l 29 750 l 147 750 l 147 801 q 124 878 147 858 q 29 904 100 897 l 29 939 l 496 939 l 496 904 q 397 878 422 899 q 372 801 372 858 l 372 750 l 707 750 l 707 801 q 682 878 707 858 q 583 904 657 899 l 583 939 l 1054 939 l 1054 904 q 958 878 983 899 q 932 801 932 857 l 932 750 l 1054 750 l 1054 685 l 932 685 l 932 136 q 955 63 932 82 q 1054 35 978 44 l 1054 0 m 707 518 l 707 685 l 372 685 l 372 518 l 707 518 z "},"ħ":{"ha":772,"x_min":21,"x_max":742,"o":"m 742 0 l 417 0 l 417 33 q 466 56 451 38 q 481 118 481 75 l 481 429 q 465 534 481 504 q 410 564 450 564 q 313 517 360 564 q 289 483 289 493 l 289 118 q 303 57 289 75 q 356 33 317 39 l 356 0 l 22 0 l 22 33 q 84 56 72 43 q 96 124 96 68 l 96 714 l 21 714 l 21 775 l 96 775 l 96 821 q 83 883 96 869 q 21 906 71 896 l 21 939 l 289 939 l 289 775 l 508 775 l 508 714 l 289 714 l 289 550 q 493 657 379 657 q 625 604 576 657 q 674 468 674 551 l 674 121 q 690 53 674 74 q 742 33 706 33 l 742 0 z "},"Ĩ":{"ha":540,"x_min":19,"x_max":526,"o":"m 467 1228 l 526 1228 q 365 1051 479 1051 q 275 1071 321 1051 l 235 1089 q 146 1119 168 1119 q 101 1101 119 1119 q 78 1054 82 1083 l 19 1054 q 78 1186 39 1144 q 181 1228 117 1228 q 282 1201 224 1228 l 338 1176 q 392 1160 375 1160 q 436 1175 419 1160 q 467 1228 453 1190 m 514 0 l 28 0 l 28 35 q 132 63 107 42 q 157 147 157 83 l 157 800 q 131 878 157 857 q 28 904 104 899 l 28 939 l 514 939 l 514 904 q 409 880 436 901 q 382 800 382 858 l 382 147 q 408 60 382 81 q 514 35 433 40 l 514 0 z "},"ĩ":{"ha":386,"x_min":-65,"x_max":442,"o":"m 382 936 l 442 936 q 281 760 394 760 q 190 779 236 760 l 150 797 q 61 828 83 828 q 16 810 35 828 q -7 763 -3 792 l -65 763 q -7 894 -46 853 q 96 936 32 936 q 197 910 139 936 l 253 885 q 307 868 290 868 q 351 883 335 868 q 382 936 368 899 m 356 0 l 22 0 l 22 33 q 83 60 71 44 q 96 122 96 75 l 96 518 q 81 581 96 564 q 21 607 67 597 l 21 640 l 289 640 l 289 118 q 303 56 289 74 q 356 33 318 39 l 356 0 z "},"Ī":{"ha":540,"x_min":28,"x_max":514,"o":"m 499 1025 l 40 1025 l 40 1125 l 499 1125 l 499 1025 m 514 0 l 28 0 l 28 35 q 132 63 107 42 q 157 147 157 83 l 157 800 q 131 878 157 857 q 28 904 104 899 l 28 939 l 514 939 l 514 904 q 409 880 436 901 q 382 800 382 858 l 382 147 q 408 60 382 81 q 514 35 433 40 l 514 0 z "},"ī":{"ha":386,"x_min":-35,"x_max":424,"o":"m 424 733 l -35 733 l -35 833 l 424 833 l 424 733 m 356 0 l 22 0 l 22 33 q 83 60 71 44 q 96 122 96 75 l 96 518 q 81 581 96 564 q 21 607 67 597 l 21 640 l 289 640 l 289 118 q 303 56 289 74 q 356 33 318 39 l 356 0 z "},"Ĭ":{"ha":540,"x_min":28,"x_max":514,"o":"m 414 1250 l 475 1250 q 415 1085 467 1146 q 264 1024 363 1024 q 109 1085 163 1024 q 54 1250 56 1147 l 115 1250 q 257 1129 139 1129 q 359 1157 322 1129 q 414 1250 396 1185 m 514 0 l 28 0 l 28 35 q 132 63 107 42 q 157 147 157 83 l 157 800 q 131 878 157 857 q 28 904 104 899 l 28 939 l 514 939 l 514 904 q 409 880 436 901 q 382 800 382 858 l 382 147 q 408 60 382 81 q 514 35 433 40 l 514 0 z "},"ĭ":{"ha":386,"x_min":-15,"x_max":406,"o":"m 344 960 l 406 960 q 345 794 397 856 q 194 733 293 733 q 40 795 93 733 q -15 960 -14 857 l 46 960 q 188 839 69 839 q 290 867 253 839 q 344 960 326 894 m 356 0 l 22 0 l 22 33 q 83 60 71 44 q 96 122 96 75 l 96 518 q 81 581 96 564 q 21 607 67 597 l 21 640 l 289 640 l 289 118 q 303 56 289 74 q 356 33 318 39 l 356 0 z "},"Į":{"ha":540,"x_min":28,"x_max":540,"o":"m 317 0 l 28 0 l 28 35 q 132 63 107 42 q 157 147 157 83 l 157 800 q 131 878 157 857 q 28 904 104 899 l 28 939 l 514 939 l 514 904 q 409 880 436 901 q 382 800 382 858 l 382 147 q 408 60 382 81 q 514 35 433 40 l 514 0 l 358 0 q 354 -11 357 -3 q 339 -100 339 -65 q 358 -169 339 -149 q 424 -189 378 -189 q 490 -171 454 -189 q 508 -160 496 -168 l 540 -182 q 465 -257 515 -229 q 365 -285 415 -285 q 261 -255 300 -285 q 222 -176 222 -225 q 238 -105 222 -137 q 297 -22 254 -72 q 308 -8 303 -14 q 317 0 314 -3 z "},"į":{"ha":386,"x_min":21,"x_max":446,"o":"m 222 0 l 22 0 l 22 33 q 83 60 71 44 q 96 122 96 75 l 96 518 q 81 581 96 564 q 21 607 67 597 l 21 640 l 289 640 l 289 118 q 303 56 289 74 q 356 33 318 39 l 356 0 l 264 0 q 260 -11 263 -3 q 244 -100 244 -65 q 264 -169 244 -149 q 329 -189 283 -189 q 396 -171 360 -189 q 414 -160 401 -168 l 446 -182 q 371 -257 421 -229 q 271 -285 321 -285 q 167 -255 206 -285 q 128 -176 128 -225 q 144 -105 128 -137 q 203 -22 160 -72 q 214 -8 208 -14 q 222 0 219 -3 m 299 851 q 267 775 299 806 q 190 744 236 744 q 114 775 144 744 q 83 851 83 806 q 115 928 83 897 q 193 960 146 960 q 267 928 236 960 q 299 851 299 896 z "},"İ":{"ha":540,"x_min":28,"x_max":514,"o":"m 360 1125 q 333 1063 360 1089 q 268 1038 307 1038 q 206 1064 232 1038 q 181 1128 181 1090 q 207 1190 181 1164 q 269 1217 233 1217 q 333 1190 306 1217 q 360 1125 360 1163 m 514 0 l 28 0 l 28 35 q 132 63 107 42 q 157 147 157 83 l 157 800 q 131 878 157 857 q 28 904 104 899 l 28 939 l 514 939 l 514 904 q 409 880 436 901 q 382 800 382 858 l 382 147 q 408 60 382 81 q 514 35 433 40 l 514 0 z "},"ı":{"ha":386,"x_min":21,"x_max":356,"o":"m 356 0 l 22 0 l 22 33 q 83 60 71 44 q 96 122 96 75 l 96 518 q 81 581 96 564 q 21 607 67 597 l 21 640 l 289 640 l 289 118 q 303 56 289 74 q 356 33 318 39 l 356 0 z "},"Ĳ":{"ha":1164,"x_min":28,"x_max":1274,"o":"m 1274 939 l 1274 904 q 1174 874 1197 899 q 1151 772 1151 849 l 1151 175 q 857 -133 1151 -133 q 707 -101 754 -133 q 640 -32 667 -74 q 614 51 614 10 q 644 122 614 90 q 713 154 675 154 q 782 122 751 154 q 813 49 813 90 q 794 1 813 28 q 775 -43 775 -26 q 838 -87 775 -87 q 906 -58 885 -87 q 926 38 926 -28 l 926 801 q 899 881 926 861 q 786 904 871 901 l 786 939 l 1274 939 m 514 0 l 28 0 l 28 35 q 132 63 107 42 q 157 147 157 83 l 157 800 q 131 878 157 857 q 28 904 104 899 l 28 939 l 514 939 l 514 904 q 409 880 436 901 q 382 800 382 858 l 382 147 q 408 60 382 81 q 514 35 433 40 l 514 0 z "},"ĳ":{"ha":767,"x_min":21,"x_max":738,"o":"m 738 851 q 706 775 738 806 q 628 744 675 744 q 552 775 582 744 q 522 851 522 806 q 553 928 522 897 q 631 960 585 960 q 706 928 674 960 q 738 851 738 896 m 299 851 q 267 775 299 806 q 190 744 236 744 q 114 775 144 744 q 83 851 83 806 q 115 928 83 897 q 193 960 146 960 q 267 928 236 960 q 299 851 299 896 m 733 640 l 733 3 q 696 -176 733 -114 q 488 -282 636 -282 q 347 -243 401 -282 q 293 -143 293 -204 q 317 -82 293 -106 q 379 -58 340 -58 q 438 -80 414 -58 q 461 -133 461 -101 q 442 -185 461 -156 q 429 -215 429 -206 q 474 -239 429 -239 q 524 -214 508 -239 q 540 -133 540 -189 l 540 525 q 523 586 540 569 q 453 607 506 603 l 453 640 l 733 640 m 356 0 l 22 0 l 22 33 q 83 60 71 44 q 96 122 96 75 l 96 518 q 81 581 96 564 q 21 607 67 597 l 21 640 l 289 640 l 289 118 q 303 56 289 74 q 356 33 318 39 l 356 0 z "},"Ĵ":{"ha":694,"x_min":4,"x_max":665,"o":"m 665 1025 l 586 1025 l 431 1161 l 275 1025 l 197 1025 l 367 1269 l 494 1269 l 665 1025 m 664 939 l 664 904 q 565 874 588 899 q 542 772 542 849 l 542 175 q 247 -133 542 -133 q 97 -101 144 -133 q 31 -32 57 -74 q 4 51 4 10 q 34 122 4 90 q 103 154 64 154 q 172 122 142 154 q 203 49 203 90 q 184 1 203 28 q 165 -43 165 -26 q 228 -87 165 -87 q 296 -58 275 -87 q 317 38 317 -28 l 317 801 q 289 881 317 861 q 176 904 261 901 l 176 939 l 664 939 z "},"ĵ":{"ha":463,"x_min":-79,"x_max":465,"o":"m 465 733 l 386 733 l 231 869 l 75 733 l -3 733 l 167 978 l 294 978 l 465 733 m 361 640 l 361 3 q 324 -176 361 -114 q 115 -282 264 -282 q -25 -243 29 -282 q -79 -143 -79 -204 q -56 -82 -79 -106 q 7 -58 -32 -58 q 65 -80 42 -58 q 89 -133 89 -101 q 69 -185 89 -156 q 57 -215 57 -206 q 101 -239 57 -239 q 152 -214 136 -239 q 168 -133 168 -189 l 168 525 q 151 586 168 569 q 81 607 133 603 l 81 640 l 361 640 z "},"Ķ":{"ha":1081,"x_min":42,"x_max":1068,"o":"m 1068 0 l 604 0 l 604 35 q 690 43 669 36 q 711 64 711 50 q 676 126 711 82 l 425 439 l 388 404 l 388 132 q 410 63 388 81 q 508 35 433 44 l 508 0 l 42 0 l 42 35 q 140 61 118 42 q 163 140 163 81 l 163 796 q 139 880 163 860 q 42 904 115 900 l 42 939 l 510 939 l 510 904 q 411 876 435 899 q 388 788 388 853 l 388 478 l 682 776 q 726 825 715 810 q 738 857 738 840 q 723 888 738 878 q 671 900 708 897 l 622 904 l 622 939 l 1024 939 l 1024 904 q 839 840 915 892 q 576 589 763 788 l 1000 64 q 1068 35 1022 36 l 1068 0 m 404 -525 l 389 -494 q 540 -310 540 -389 q 514 -281 540 -281 q 499 -282 510 -281 q 481 -283 488 -283 q 408 -254 436 -283 q 379 -178 379 -225 q 411 -92 379 -124 q 496 -60 443 -60 q 598 -103 561 -60 q 635 -221 635 -146 q 404 -525 635 -404 z "},"ķ":{"ha":772,"x_min":31,"x_max":754,"o":"m 754 0 l 429 0 l 429 33 q 488 60 488 36 q 454 122 488 76 l 322 308 l 290 275 l 290 117 q 302 54 290 68 q 363 33 314 40 l 363 0 l 31 0 l 31 33 q 97 117 97 39 l 97 825 q 31 906 97 900 l 31 939 l 290 939 l 290 340 l 468 518 q 497 571 497 547 q 449 603 497 596 l 415 608 l 415 640 l 713 640 l 713 608 q 601 568 647 600 q 450 426 554 536 l 719 54 q 754 33 735 33 l 754 0 m 281 -525 l 265 -494 q 417 -310 417 -389 q 390 -281 417 -281 q 375 -282 386 -281 q 357 -283 364 -283 q 284 -254 313 -283 q 256 -178 256 -225 q 288 -92 256 -124 q 372 -60 319 -60 q 474 -103 438 -60 q 511 -221 511 -146 q 281 -525 511 -404 z "},"ĸ":{"ha":833,"x_min":26,"x_max":871,"o":"m 871 0 l 638 0 q 514 106 581 7 q 478 170 499 129 q 432 249 457 211 q 333 324 397 303 q 296 322 326 322 l 296 121 q 297 82 296 93 q 305 58 299 71 q 326 40 311 44 q 367 33 340 35 l 367 0 l 26 0 l 26 33 q 81 60 64 43 q 97 119 97 76 l 97 543 q 81 601 97 586 q 26 619 64 617 l 26 653 l 367 653 l 367 619 q 310 599 324 613 q 296 542 296 586 l 296 392 q 353 397 322 392 q 481 440 461 428 q 569 563 536 481 q 620 633 590 614 q 707 653 650 653 q 785 631 751 653 q 818 575 818 608 q 799 533 818 549 q 750 517 779 517 q 707 531 724 517 q 681 558 690 544 q 658 572 671 572 q 633 564 642 572 q 617 533 625 556 q 510 378 582 432 q 568 331 540 367 q 631 233 585 310 q 689 139 678 156 q 762 64 724 88 q 871 33 800 40 l 871 0 z "},"Ĺ":{"ha":926,"x_min":26,"x_max":886,"o":"m 219 1025 l 410 1243 q 483 1282 444 1282 q 532 1265 514 1282 q 550 1221 550 1249 q 539 1183 550 1197 q 494 1147 528 1168 l 297 1025 l 219 1025 m 886 315 l 828 0 l 26 0 l 26 35 q 124 63 103 44 q 146 136 146 81 l 146 800 q 122 879 146 858 q 26 904 97 900 l 26 939 l 510 939 l 510 906 q 395 878 419 901 q 371 768 371 854 l 371 124 q 397 60 371 78 q 489 43 422 43 q 725 119 640 43 q 846 315 783 174 l 886 315 z "},"ĺ":{"ha":386,"x_min":21,"x_max":361,"o":"m 31 1025 l 221 1243 q 294 1282 256 1282 q 343 1265 325 1282 q 361 1221 361 1249 q 350 1183 361 1197 q 306 1147 339 1168 l 108 1025 l 31 1025 m 356 0 l 22 0 l 22 33 q 93 121 93 39 l 93 815 q 21 906 93 900 l 21 939 l 286 939 l 286 121 q 303 55 286 75 q 356 33 319 35 l 356 0 z "},"Ļ":{"ha":926,"x_min":26,"x_max":886,"o":"m 886 315 l 828 0 l 26 0 l 26 35 q 124 63 103 44 q 146 136 146 81 l 146 800 q 122 879 146 858 q 26 904 97 900 l 26 939 l 510 939 l 510 906 q 395 878 419 901 q 371 768 371 854 l 371 124 q 397 60 371 78 q 489 43 422 43 q 725 119 640 43 q 846 315 783 174 l 886 315 m 356 -525 l 340 -494 q 492 -310 492 -389 q 465 -281 492 -281 q 450 -282 461 -281 q 432 -283 439 -283 q 359 -254 388 -283 q 331 -178 331 -225 q 363 -92 331 -124 q 447 -60 394 -60 q 549 -103 513 -60 q 586 -221 586 -146 q 356 -525 586 -404 z "},"ļ":{"ha":386,"x_min":21,"x_max":356,"o":"m 356 0 l 22 0 l 22 33 q 93 121 93 39 l 93 815 q 21 906 93 900 l 21 939 l 286 939 l 286 121 q 303 55 286 75 q 356 33 319 35 l 356 0 m 92 -525 l 76 -494 q 228 -310 228 -389 q 201 -281 228 -281 q 186 -282 197 -281 q 168 -283 175 -283 q 95 -254 124 -283 q 67 -178 67 -225 q 99 -92 67 -124 q 183 -60 131 -60 q 285 -103 249 -60 q 322 -221 322 -146 q 92 -525 322 -404 z "},"Ľ":{"ha":926,"x_min":26,"x_max":886,"o":"m 621 494 l 606 525 q 757 710 757 631 q 731 739 757 739 q 715 738 726 739 q 697 736 704 736 q 624 765 653 736 q 596 842 596 794 q 628 928 596 896 q 713 960 660 960 q 815 917 778 960 q 851 799 851 874 q 621 494 851 615 m 886 315 l 828 0 l 26 0 l 26 35 q 124 63 103 44 q 146 136 146 81 l 146 800 q 122 879 146 858 q 26 904 97 900 l 26 939 l 510 939 l 510 906 q 395 878 419 901 q 371 768 371 854 l 371 124 q 397 60 371 78 q 489 43 422 43 q 725 119 640 43 q 846 315 783 174 l 886 315 z "},"ľ":{"ha":635,"x_min":21,"x_max":614,"o":"m 383 519 l 368 550 q 519 735 519 656 q 493 764 519 764 q 478 763 489 764 q 460 761 467 761 q 387 790 415 761 q 358 867 358 819 q 390 953 358 921 q 475 985 422 985 q 577 942 540 985 q 614 824 614 899 q 383 519 614 640 m 356 0 l 22 0 l 22 33 q 93 121 93 39 l 93 815 q 21 906 93 900 l 21 939 l 286 939 l 286 121 q 303 55 286 75 q 356 33 319 35 l 356 0 z "},"Ŀ":{"ha":926,"x_min":26,"x_max":886,"o":"m 708 532 q 726 515 708 532 q 743 449 743 497 q 709 366 743 400 q 625 332 675 332 q 542 365 575 332 q 508 449 508 399 q 543 532 508 497 q 626 567 578 567 q 708 532 674 567 m 886 315 l 828 0 l 26 0 l 26 35 q 124 63 103 44 q 146 136 146 81 l 146 800 q 122 879 146 858 q 26 904 97 900 l 26 939 l 510 939 l 510 906 q 395 878 419 901 q 371 768 371 854 l 371 124 q 397 60 371 78 q 489 43 422 43 q 725 119 640 43 q 846 315 783 174 l 886 315 z "},"ŀ":{"ha":575,"x_min":21,"x_max":613,"o":"m 578 556 q 595 538 578 556 q 613 472 613 521 q 578 390 613 424 q 494 356 544 356 q 411 389 444 356 q 378 472 378 422 q 413 556 378 521 q 496 590 447 590 q 578 556 543 590 m 356 0 l 22 0 l 22 33 q 93 121 93 39 l 93 815 q 21 906 93 900 l 21 939 l 286 939 l 286 121 q 303 55 286 75 q 356 33 319 35 l 356 0 z "},"Ł":{"ha":926,"x_min":25,"x_max":886,"o":"m 886 317 l 828 0 l 26 0 l 26 35 q 124 60 103 40 q 146 139 146 81 l 146 399 l 33 331 l 33 415 l 146 483 l 146 796 q 122 879 146 858 q 25 904 97 900 l 25 939 l 510 939 l 510 904 q 398 874 425 900 q 371 767 371 847 l 371 615 l 542 721 l 542 636 l 371 531 l 371 125 q 393 61 371 79 q 481 43 415 43 q 726 115 650 43 q 846 317 774 160 l 886 317 z "},"ł":{"ha":386,"x_min":-31,"x_max":421,"o":"m 421 668 l 286 557 l 286 124 q 356 33 286 36 l 356 0 l 22 0 l 22 33 q 93 124 93 39 l 93 433 l -31 333 l -31 403 l 93 503 l 93 821 q 21 906 93 900 l 21 939 l 286 939 l 286 626 l 421 738 l 421 668 z "},"Ń":{"ha":1003,"x_min":22,"x_max":974,"o":"m 408 1025 l 599 1243 q 672 1282 633 1282 q 721 1265 703 1282 q 739 1221 739 1249 q 728 1183 739 1197 q 683 1147 717 1168 l 486 1025 l 408 1025 m 974 939 l 974 904 q 885 873 904 893 q 865 789 865 853 l 865 -25 l 826 -25 l 206 732 l 206 182 q 231 73 206 101 q 336 35 256 44 l 336 0 l 22 0 l 22 35 q 122 66 99 44 q 144 151 144 88 l 144 804 q 26 904 72 904 l 26 939 l 319 939 l 804 342 l 804 757 q 779 869 804 840 q 676 904 754 897 l 676 939 l 974 939 z "},"ń":{"ha":772,"x_min":29,"x_max":749,"o":"m 294 733 l 485 951 q 558 990 519 990 q 607 974 589 990 q 625 929 625 957 q 614 891 625 906 q 569 856 603 876 l 372 733 l 294 733 m 749 0 l 424 0 l 424 33 q 473 56 458 38 q 488 117 488 75 l 488 446 q 417 564 488 564 q 319 517 367 564 q 296 483 296 493 l 296 117 q 310 58 296 76 q 363 33 325 39 l 363 0 l 29 0 l 29 33 q 89 60 75 43 q 103 121 103 76 l 103 522 q 89 583 103 567 q 29 607 75 600 l 29 640 l 294 640 l 294 536 l 296 536 q 493 657 364 657 q 630 603 579 657 q 681 460 681 550 l 681 117 q 694 53 681 69 q 749 33 708 36 l 749 0 z "},"Ņ":{"ha":1003,"x_min":22,"x_max":974,"o":"m 974 939 l 974 904 q 885 873 904 893 q 865 789 865 853 l 865 -25 l 826 -25 l 206 732 l 206 182 q 231 73 206 101 q 336 35 256 44 l 336 0 l 22 0 l 22 35 q 122 66 99 44 q 144 151 144 88 l 144 804 q 26 904 72 904 l 26 939 l 319 939 l 804 342 l 804 757 q 779 869 804 840 q 676 904 754 897 l 676 939 l 974 939 m 397 -525 l 382 -494 q 533 -310 533 -389 q 507 -281 533 -281 q 492 -282 503 -281 q 474 -283 481 -283 q 401 -254 429 -283 q 372 -178 372 -225 q 404 -92 372 -124 q 489 -60 436 -60 q 591 -103 554 -60 q 628 -221 628 -146 q 397 -525 628 -404 z "},"ņ":{"ha":772,"x_min":29,"x_max":749,"o":"m 749 0 l 424 0 l 424 33 q 473 56 458 38 q 488 117 488 75 l 488 446 q 417 564 488 564 q 319 517 367 564 q 296 483 296 493 l 296 117 q 310 58 296 76 q 363 33 325 39 l 363 0 l 29 0 l 29 33 q 89 60 75 43 q 103 121 103 76 l 103 522 q 89 583 103 567 q 29 607 75 600 l 29 640 l 294 640 l 294 536 l 296 536 q 493 657 364 657 q 630 603 579 657 q 681 460 681 550 l 681 117 q 694 53 681 69 q 749 33 708 36 l 749 0 m 286 -525 l 271 -494 q 422 -310 422 -389 q 396 -281 422 -281 q 381 -282 392 -281 q 363 -283 369 -283 q 290 -254 318 -283 q 261 -178 261 -225 q 293 -92 261 -124 q 378 -60 325 -60 q 480 -103 443 -60 q 517 -221 517 -146 q 286 -525 517 -404 z "},"Ň":{"ha":1003,"x_min":22,"x_max":974,"o":"m 743 1269 l 572 1025 l 444 1025 l 275 1269 l 354 1269 l 508 1132 l 663 1269 l 743 1269 m 974 939 l 974 904 q 885 873 904 893 q 865 789 865 853 l 865 -25 l 826 -25 l 206 732 l 206 182 q 231 73 206 101 q 336 35 256 44 l 336 0 l 22 0 l 22 35 q 122 66 99 44 q 144 151 144 88 l 144 804 q 26 904 72 904 l 26 939 l 319 939 l 804 342 l 804 757 q 779 869 804 840 q 676 904 754 897 l 676 939 l 974 939 z "},"ň":{"ha":772,"x_min":29,"x_max":749,"o":"m 625 978 l 454 733 l 326 733 l 157 978 l 236 978 l 390 840 l 544 978 l 625 978 m 749 0 l 424 0 l 424 33 q 473 56 458 38 q 488 117 488 75 l 488 446 q 417 564 488 564 q 319 517 367 564 q 296 483 296 493 l 296 117 q 310 58 296 76 q 363 33 325 39 l 363 0 l 29 0 l 29 33 q 89 60 75 43 q 103 121 103 76 l 103 522 q 89 583 103 567 q 29 607 75 600 l 29 640 l 294 640 l 294 536 l 296 536 q 493 657 364 657 q 630 603 579 657 q 681 460 681 550 l 681 117 q 694 53 681 69 q 749 33 708 36 l 749 0 z "},"ŉ":{"ha":979,"x_min":18,"x_max":963,"o":"m 963 0 l 638 0 l 638 33 q 687 56 672 38 q 701 117 701 75 l 701 446 q 631 564 701 564 q 533 517 581 564 q 510 483 510 493 l 510 117 q 524 58 510 76 q 576 33 539 39 l 576 0 l 243 0 l 243 33 q 303 60 289 43 q 317 121 317 76 l 317 522 q 303 583 317 567 q 243 607 289 600 l 243 640 l 508 640 l 508 536 l 510 536 q 707 657 578 657 q 844 603 793 657 q 894 460 894 550 l 894 117 q 908 53 894 69 q 963 33 922 36 l 963 0 m 43 519 l 28 550 q 179 735 179 656 q 153 764 179 764 q 138 763 149 764 q 119 761 126 761 q 47 790 75 761 q 18 867 18 819 q 50 953 18 921 q 135 985 82 985 q 237 942 200 985 q 274 824 274 899 q 43 519 274 640 z "},"Ŋ":{"ha":1017,"x_min":19,"x_max":989,"o":"m 19 939 l 467 939 q 852 805 715 939 q 989 443 989 671 q 942 164 989 294 q 806 -50 896 33 q 604 -133 717 -133 q 475 -82 532 -133 q 418 35 418 -31 q 448 120 418 78 q 522 163 478 163 q 589 131 561 163 q 617 58 617 100 q 598 4 617 26 q 579 -33 579 -18 q 594 -72 579 -56 q 638 -87 610 -87 q 723 44 694 -87 q 751 354 751 176 q 728 584 751 472 q 674 751 706 696 q 447 892 593 892 q 360 831 360 892 l 360 0 l 19 0 l 19 35 q 107 61 79 36 q 135 136 135 86 l 135 811 q 110 878 135 858 q 19 904 86 897 l 19 939 z "},"ŋ":{"ha":772,"x_min":29,"x_max":681,"o":"m 681 460 l 681 0 q 643 -179 681 -117 q 435 -285 583 -285 q 294 -246 349 -285 q 240 -146 240 -207 q 264 -85 240 -108 q 326 -61 288 -61 q 385 -83 361 -61 q 408 -136 408 -104 q 389 -187 408 -158 q 376 -218 376 -208 q 421 -242 376 -242 q 472 -217 456 -242 q 488 -136 488 -192 l 488 446 q 417 564 488 564 q 319 517 367 564 q 296 483 296 493 l 296 117 q 310 58 296 76 q 363 33 325 39 l 363 0 l 29 0 l 29 33 q 89 60 75 43 q 103 121 103 76 l 103 522 q 89 583 103 567 q 29 607 75 600 l 29 640 l 294 640 l 294 536 l 296 536 q 493 657 364 657 q 630 603 579 657 q 681 460 681 550 z "},"Ō":{"ha":1081,"x_min":49,"x_max":1032,"o":"m 764 1025 l 306 1025 l 306 1125 l 764 1125 l 764 1025 m 1032 465 q 894 111 1032 249 q 539 -26 756 -26 q 186 111 324 -26 q 49 464 49 249 q 189 822 49 685 q 547 960 329 960 q 894 820 757 960 q 1032 465 1032 681 m 786 456 q 722 796 786 678 q 535 914 657 914 q 357 795 419 914 q 294 458 294 676 q 358 130 294 240 q 542 19 422 19 q 724 131 661 19 q 786 456 786 242 z "},"ō":{"ha":694,"x_min":35,"x_max":661,"o":"m 576 733 l 118 733 l 118 833 l 576 833 l 576 733 m 661 318 q 572 76 661 172 q 347 -19 482 -19 q 125 76 215 -19 q 35 317 35 171 q 124 563 35 468 q 353 657 214 657 q 573 561 485 657 q 661 318 661 465 m 457 303 q 433 547 457 481 q 349 614 410 614 q 262 548 285 614 q 239 303 239 482 q 264 88 239 151 q 349 24 289 24 q 433 85 408 24 q 457 303 457 147 z "},"Ŏ":{"ha":1081,"x_min":49,"x_max":1032,"o":"m 692 1251 l 753 1251 q 692 1086 744 1147 q 542 1025 640 1025 q 387 1087 440 1025 q 332 1251 333 1149 l 393 1251 q 535 1131 417 1131 q 637 1158 600 1131 q 692 1251 674 1186 m 1032 465 q 894 111 1032 249 q 539 -26 756 -26 q 186 111 324 -26 q 49 464 49 249 q 189 822 49 685 q 547 960 329 960 q 894 820 757 960 q 1032 465 1032 681 m 786 456 q 722 796 786 678 q 535 914 657 914 q 357 795 419 914 q 294 458 294 676 q 358 130 294 240 q 542 19 422 19 q 724 131 661 19 q 786 456 786 242 z "},"ŏ":{"ha":694,"x_min":35,"x_max":661,"o":"m 497 960 l 558 960 q 498 794 550 856 q 347 733 446 733 q 192 795 246 733 q 138 960 139 857 l 199 960 q 340 839 222 839 q 442 867 406 839 q 497 960 479 894 m 661 318 q 572 76 661 172 q 347 -19 482 -19 q 125 76 215 -19 q 35 317 35 171 q 124 563 35 468 q 353 657 214 657 q 573 561 485 657 q 661 318 661 465 m 457 303 q 433 547 457 481 q 349 614 410 614 q 262 548 285 614 q 239 303 239 482 q 264 88 239 151 q 349 24 289 24 q 433 85 408 24 q 457 303 457 147 z "},"Ő":{"ha":1081,"x_min":49,"x_max":1032,"o":"m 514 1025 l 703 1243 q 778 1282 738 1282 q 826 1265 808 1282 q 844 1221 844 1249 q 833 1181 844 1197 q 789 1144 822 1165 l 593 1025 l 514 1025 m 236 1025 l 425 1243 q 500 1282 460 1282 q 549 1265 531 1282 q 567 1221 567 1249 q 556 1181 567 1197 q 511 1144 544 1165 l 315 1025 l 236 1025 m 1032 465 q 894 111 1032 249 q 539 -26 756 -26 q 186 111 324 -26 q 49 464 49 249 q 189 822 49 685 q 547 960 329 960 q 894 820 757 960 q 1032 465 1032 681 m 786 456 q 722 796 786 678 q 535 914 657 914 q 357 795 419 914 q 294 458 294 676 q 358 130 294 240 q 542 19 422 19 q 724 131 661 19 q 786 456 786 242 z "},"ő":{"ha":694,"x_min":35,"x_max":661,"o":"m 331 733 l 519 951 q 594 990 554 990 q 643 974 625 990 q 661 929 661 957 q 650 890 661 906 q 606 853 639 874 l 410 733 l 331 733 m 53 733 l 242 951 q 317 990 276 990 q 365 974 347 990 q 383 929 383 957 q 372 890 383 906 q 328 853 361 874 l 132 733 l 53 733 m 661 318 q 572 76 661 172 q 347 -19 482 -19 q 125 76 215 -19 q 35 317 35 171 q 124 563 35 468 q 353 657 214 657 q 573 561 485 657 q 661 318 661 465 m 457 303 q 433 547 457 481 q 349 614 410 614 q 262 548 285 614 q 239 303 239 482 q 264 88 239 151 q 349 24 289 24 q 433 85 408 24 q 457 303 457 147 z "},"Œ":{"ha":1389,"x_min":31,"x_max":1363,"o":"m 1363 293 l 1304 0 l 707 0 q 558 -4 608 0 q 499 -7 519 -7 q 185 93 304 -7 q 71 252 111 156 q 31 464 31 349 q 81 697 31 592 q 221 865 131 801 q 501 950 342 950 q 537 947 507 950 q 618 942 567 944 q 726 939 669 939 l 1306 939 l 1306 660 l 1269 660 q 1233 784 1254 743 q 1168 851 1211 825 q 944 890 1103 890 q 887 883 903 890 q 871 854 871 875 l 871 508 q 1017 547 982 511 q 1081 714 1053 582 l 1113 714 l 1113 244 l 1081 244 q 1023 413 1065 368 q 871 463 981 457 l 871 115 q 891 62 871 75 q 971 49 911 49 q 1204 118 1119 49 q 1266 185 1240 149 q 1325 293 1292 222 l 1363 293 m 656 294 l 656 699 q 631 864 656 826 q 524 906 601 906 q 267 444 267 906 q 322 133 267 231 q 508 38 376 38 q 628 82 596 38 q 650 147 644 104 q 656 294 656 190 z "},"œ":{"ha":1003,"x_min":31,"x_max":967,"o":"m 939 174 l 967 151 q 839 17 899 54 q 692 -19 779 -19 q 532 47 590 -19 q 340 -19 454 -19 q 117 74 203 -19 q 31 318 31 168 q 119 562 31 467 q 344 657 207 657 q 518 589 450 657 q 606 642 568 628 q 697 657 644 657 q 922 529 856 657 q 963 340 956 467 l 617 340 l 617 313 q 774 81 617 81 q 856 100 822 81 q 939 174 890 119 m 793 392 l 790 469 q 768 582 788 547 q 707 617 749 617 q 617 467 617 617 l 617 392 l 793 392 m 428 207 l 428 432 q 406 574 428 532 q 332 617 383 617 q 253 559 275 617 q 232 346 232 501 q 254 92 232 163 q 336 22 276 22 q 406 67 383 22 q 428 207 428 111 z "},"Ŕ":{"ha":1003,"x_min":36,"x_max":994,"o":"m 349 1025 l 539 1243 q 613 1282 574 1282 q 661 1265 643 1282 q 679 1221 679 1249 q 668 1183 679 1197 q 624 1147 657 1168 l 426 1025 l 349 1025 m 994 0 l 710 0 l 422 435 l 383 435 l 383 163 q 403 67 383 88 q 506 35 424 46 l 506 0 l 36 0 l 36 35 q 138 65 118 44 q 158 167 158 86 l 158 765 q 135 873 158 847 q 36 904 113 899 l 36 939 l 464 939 q 875 700 875 939 q 813 536 875 594 q 657 457 754 483 l 933 65 q 994 35 954 35 l 994 0 m 383 829 l 383 479 q 582 522 526 481 q 638 686 638 564 q 596 844 638 796 q 457 892 554 892 q 400 878 417 892 q 383 829 383 864 z "},"ŕ":{"ha":617,"x_min":39,"x_max":603,"o":"m 115 733 l 306 951 q 379 990 340 990 q 428 974 410 990 q 446 929 446 957 q 435 891 446 906 q 390 856 424 876 l 193 733 l 115 733 m 303 640 l 303 526 q 394 627 351 597 q 490 657 438 657 q 571 626 539 657 q 603 547 603 594 q 578 479 603 506 q 515 453 554 453 q 432 506 464 453 q 393 538 413 538 q 333 496 357 538 q 308 393 308 454 l 308 147 q 327 59 308 81 q 408 33 346 38 l 408 0 l 40 0 l 40 33 q 101 58 86 42 q 115 117 115 74 l 115 518 q 100 583 115 567 q 39 607 85 600 l 39 640 l 303 640 z "},"Ŗ":{"ha":1003,"x_min":36,"x_max":994,"o":"m 994 0 l 710 0 l 422 435 l 383 435 l 383 163 q 403 67 383 88 q 506 35 424 46 l 506 0 l 36 0 l 36 35 q 138 65 118 44 q 158 167 158 86 l 158 765 q 135 873 158 847 q 36 904 113 899 l 36 939 l 464 939 q 875 700 875 939 q 813 536 875 594 q 657 457 754 483 l 933 65 q 994 35 954 35 l 994 0 m 383 829 l 383 479 q 582 522 526 481 q 638 686 638 564 q 596 844 638 796 q 457 892 554 892 q 400 878 417 892 q 383 829 383 864 m 425 -525 l 410 -494 q 561 -310 561 -389 q 535 -281 561 -281 q 519 -282 531 -281 q 501 -283 508 -283 q 428 -254 457 -283 q 400 -178 400 -225 q 432 -92 400 -124 q 517 -60 464 -60 q 619 -103 582 -60 q 656 -221 656 -146 q 425 -525 656 -404 z "},"ŗ":{"ha":617,"x_min":39,"x_max":603,"o":"m 303 640 l 303 526 q 394 627 351 597 q 490 657 438 657 q 571 626 539 657 q 603 547 603 594 q 578 479 603 506 q 515 453 554 453 q 432 506 464 453 q 393 538 413 538 q 333 496 357 538 q 308 393 308 454 l 308 147 q 327 59 308 81 q 408 33 346 38 l 408 0 l 40 0 l 40 33 q 101 58 86 42 q 115 117 115 74 l 115 518 q 100 583 115 567 q 39 607 85 600 l 39 640 l 303 640 m 178 -525 l 163 -494 q 314 -310 314 -389 q 288 -281 314 -281 q 272 -282 283 -281 q 254 -283 261 -283 q 181 -254 210 -283 q 153 -178 153 -225 q 185 -92 153 -124 q 269 -60 217 -60 q 372 -103 335 -60 q 408 -221 408 -146 q 178 -525 408 -404 z "},"Ř":{"ha":1003,"x_min":36,"x_max":994,"o":"m 685 1269 l 514 1025 l 386 1025 l 217 1269 l 296 1269 l 450 1132 l 604 1269 l 685 1269 m 994 0 l 710 0 l 422 435 l 383 435 l 383 163 q 403 67 383 88 q 506 35 424 46 l 506 0 l 36 0 l 36 35 q 138 65 118 44 q 158 167 158 86 l 158 765 q 135 873 158 847 q 36 904 113 899 l 36 939 l 464 939 q 875 700 875 939 q 813 536 875 594 q 657 457 754 483 l 933 65 q 994 35 954 35 l 994 0 m 383 829 l 383 479 q 582 522 526 481 q 638 686 638 564 q 596 844 638 796 q 457 892 554 892 q 400 878 417 892 q 383 829 383 864 z "},"ř":{"ha":617,"x_min":39,"x_max":603,"o":"m 539 978 l 368 733 l 240 733 l 71 978 l 150 978 l 304 840 l 458 978 l 539 978 m 303 640 l 303 526 q 394 627 351 597 q 490 657 438 657 q 571 626 539 657 q 603 547 603 594 q 578 479 603 506 q 515 453 554 453 q 432 506 464 453 q 393 538 413 538 q 333 496 357 538 q 308 393 308 454 l 308 147 q 327 59 308 81 q 408 33 346 38 l 408 0 l 40 0 l 40 33 q 101 58 86 42 q 115 117 115 74 l 115 518 q 100 583 115 567 q 39 607 85 600 l 39 640 l 303 640 z "},"Ś":{"ha":772,"x_min":49,"x_max":713,"o":"m 265 1025 l 456 1243 q 529 1282 490 1282 q 578 1265 560 1282 q 596 1221 596 1249 q 585 1183 596 1197 q 540 1147 574 1168 l 343 1025 l 265 1025 m 672 658 l 633 658 q 536 839 597 776 q 365 917 461 917 q 253 878 294 917 q 213 779 213 840 q 242 697 213 729 q 356 621 271 665 q 451 572 381 607 q 561 514 521 536 q 671 412 629 476 q 713 269 713 347 q 617 56 713 138 q 368 -26 522 -26 q 188 7 283 -26 q 131 21 144 21 q 104 10 114 21 q 89 -26 94 0 l 49 -26 l 49 318 l 89 318 q 172 119 121 185 q 372 19 251 19 q 500 62 453 19 q 547 176 547 104 q 468 299 547 243 q 299 389 433 324 q 118 514 175 449 q 61 681 61 579 q 142 886 61 813 q 365 960 224 960 q 528 928 442 960 q 586 915 565 915 q 615 924 606 915 q 631 961 624 933 l 672 961 l 672 658 z "},"ś":{"ha":540,"x_min":35,"x_max":506,"o":"m 175 733 l 365 951 q 439 990 400 990 q 488 974 469 990 q 506 929 506 957 q 494 891 506 906 q 450 856 483 876 l 253 733 l 175 733 m 472 453 l 438 453 q 372 567 411 531 q 268 611 325 611 q 203 588 229 611 q 176 531 176 565 q 208 466 176 494 q 310 408 239 438 q 458 315 414 365 q 501 192 501 265 q 442 40 501 99 q 288 -19 382 -19 q 138 13 215 -19 q 106 21 117 21 q 69 -18 90 21 l 35 -18 l 35 211 l 74 211 q 264 28 118 28 q 340 53 311 28 q 368 118 368 78 q 338 180 368 151 q 235 239 307 208 q 84 334 131 283 q 38 454 38 385 q 99 599 38 542 q 256 657 161 657 q 364 636 303 657 q 407 626 394 626 q 442 654 431 626 l 472 654 l 472 453 z "},"Ŝ":{"ha":772,"x_min":49,"x_max":713,"o":"m 624 1025 l 544 1025 l 389 1161 l 233 1025 l 156 1025 l 325 1269 l 453 1269 l 624 1025 m 672 658 l 633 658 q 536 839 597 776 q 365 917 461 917 q 253 878 294 917 q 213 779 213 840 q 242 697 213 729 q 356 621 271 665 q 451 572 381 607 q 561 514 521 536 q 671 412 629 476 q 713 269 713 347 q 617 56 713 138 q 368 -26 522 -26 q 188 7 283 -26 q 131 21 144 21 q 104 10 114 21 q 89 -26 94 0 l 49 -26 l 49 318 l 89 318 q 172 119 121 185 q 372 19 251 19 q 500 62 453 19 q 547 176 547 104 q 468 299 547 243 q 299 389 433 324 q 118 514 175 449 q 61 681 61 579 q 142 886 61 813 q 365 960 224 960 q 528 928 442 960 q 586 915 565 915 q 615 924 606 915 q 631 961 624 933 l 672 961 l 672 658 z "},"ŝ":{"ha":540,"x_min":31,"x_max":501,"o":"m 499 733 l 419 733 l 264 869 l 108 733 l 31 733 l 200 978 l 328 978 l 499 733 m 472 453 l 438 453 q 372 567 411 531 q 268 611 325 611 q 203 588 229 611 q 176 531 176 565 q 208 466 176 494 q 310 408 239 438 q 458 315 414 365 q 501 192 501 265 q 442 40 501 99 q 288 -19 382 -19 q 138 13 215 -19 q 106 21 117 21 q 69 -18 90 21 l 35 -18 l 35 211 l 74 211 q 264 28 118 28 q 340 53 311 28 q 368 118 368 78 q 338 180 368 151 q 235 239 307 208 q 84 334 131 283 q 38 454 38 385 q 99 599 38 542 q 256 657 161 657 q 364 636 303 657 q 407 626 394 626 q 442 654 431 626 l 472 654 l 472 453 z "},"Ş":{"ha":772,"x_min":49,"x_max":713,"o":"m 283 -133 l 332 -25 q 188 7 265 -21 q 131 21 144 21 q 104 10 114 21 q 89 -26 94 0 l 49 -26 l 49 318 l 89 318 q 172 119 121 185 q 372 19 251 19 q 500 62 453 19 q 547 176 547 104 q 468 299 547 243 q 299 389 433 324 q 118 514 175 449 q 61 681 61 579 q 142 886 61 813 q 365 960 224 960 q 528 928 442 960 q 586 915 565 915 q 615 924 606 915 q 631 961 624 933 l 672 961 l 672 658 l 633 658 q 536 839 597 776 q 365 917 461 917 q 253 878 294 917 q 213 779 213 840 q 242 697 213 729 q 356 621 271 665 q 451 572 381 607 q 561 514 521 536 q 671 412 629 476 q 713 269 713 347 q 624 62 713 143 q 390 -25 535 -19 l 363 -89 q 407 -82 383 -82 q 498 -108 465 -82 q 531 -179 531 -133 q 482 -269 531 -236 q 351 -303 433 -303 q 217 -278 288 -303 l 239 -226 l 247 -229 q 321 -246 297 -246 q 401 -189 401 -246 q 338 -139 401 -139 q 299 -144 319 -139 l 283 -133 z "},"ş":{"ha":540,"x_min":35,"x_max":501,"o":"m 472 453 l 438 453 q 372 567 411 531 q 268 611 325 611 q 203 588 229 611 q 176 531 176 565 q 208 466 176 494 q 310 408 239 438 q 458 315 414 365 q 501 192 501 265 q 442 40 501 99 q 288 -19 382 -19 q 138 13 215 -19 q 106 21 117 21 q 69 -18 90 21 l 35 -18 l 35 211 l 74 211 q 264 28 118 28 q 340 53 311 28 q 368 118 368 78 q 338 180 368 151 q 235 239 307 208 q 84 334 131 283 q 38 454 38 385 q 99 599 38 542 q 256 657 161 657 q 364 636 303 657 q 407 626 394 626 q 442 654 431 626 l 472 654 l 472 453 m 325 0 l 286 -89 q 331 -82 307 -82 q 422 -108 389 -82 q 454 -179 454 -133 q 406 -269 454 -236 q 275 -303 357 -303 q 140 -278 211 -303 l 163 -226 l 171 -229 q 244 -246 221 -246 q 325 -189 325 -246 q 261 -139 325 -139 q 222 -144 243 -139 l 207 -133 l 267 0 l 325 0 z "},"Š":{"ha":772,"x_min":49,"x_max":713,"o":"m 624 1269 l 453 1025 l 325 1025 l 156 1269 l 235 1269 l 389 1132 l 543 1269 l 624 1269 m 672 658 l 633 658 q 536 839 597 776 q 365 917 461 917 q 253 878 294 917 q 213 779 213 840 q 242 697 213 729 q 356 621 271 665 q 451 572 381 607 q 561 514 521 536 q 671 412 629 476 q 713 269 713 347 q 617 56 713 138 q 368 -26 522 -26 q 188 7 283 -26 q 131 21 144 21 q 104 10 114 21 q 89 -26 94 0 l 49 -26 l 49 318 l 89 318 q 172 119 121 185 q 372 19 251 19 q 500 62 453 19 q 547 176 547 104 q 468 299 547 243 q 299 389 433 324 q 118 514 175 449 q 61 681 61 579 q 142 886 61 813 q 365 960 224 960 q 528 928 442 960 q 586 915 565 915 q 615 924 606 915 q 631 961 624 933 l 672 961 l 672 658 z "},"š":{"ha":540,"x_min":31,"x_max":501,"o":"m 499 978 l 328 733 l 200 733 l 31 978 l 110 978 l 264 840 l 418 978 l 499 978 m 472 453 l 438 453 q 372 567 411 531 q 268 611 325 611 q 203 588 229 611 q 176 531 176 565 q 208 466 176 494 q 310 408 239 438 q 458 315 414 365 q 501 192 501 265 q 442 40 501 99 q 288 -19 382 -19 q 138 13 215 -19 q 106 21 117 21 q 69 -18 90 21 l 35 -18 l 35 211 l 74 211 q 264 28 118 28 q 340 53 311 28 q 368 118 368 78 q 338 180 368 151 q 235 239 307 208 q 84 334 131 283 q 38 454 38 385 q 99 599 38 542 q 256 657 161 657 q 364 636 303 657 q 407 626 394 626 q 442 654 431 626 l 472 654 l 472 453 z "},"Ţ":{"ha":926,"x_min":43,"x_max":883,"o":"m 440 0 l 217 0 l 217 35 q 328 63 306 42 q 351 163 351 85 l 351 894 q 162 837 222 890 q 83 660 101 783 l 43 660 l 47 939 l 881 939 l 883 660 l 843 660 q 765 837 825 783 q 576 894 704 890 l 576 163 q 599 63 576 83 q 713 35 622 42 l 713 0 l 499 0 l 460 -89 q 504 -82 481 -82 q 595 -108 563 -82 q 628 -179 628 -133 q 579 -269 628 -236 q 449 -303 531 -303 q 314 -278 385 -303 l 336 -226 l 344 -229 q 418 -246 394 -246 q 499 -189 499 -246 q 435 -139 499 -139 q 396 -144 417 -139 l 381 -133 l 440 0 z "},"ţ":{"ha":463,"x_min":26,"x_max":461,"o":"m 156 -133 l 210 -12 q 129 36 158 -1 q 100 132 100 74 l 100 579 l 26 579 l 26 617 q 140 716 94 663 q 258 875 186 769 l 293 875 l 293 640 l 425 640 l 425 579 l 293 579 l 293 165 q 347 82 293 82 q 426 156 388 82 l 461 140 q 376 22 421 58 q 267 -17 332 -14 l 235 -89 q 279 -82 256 -82 q 370 -108 338 -82 q 403 -179 403 -133 q 354 -269 403 -236 q 224 -303 306 -303 q 89 -278 160 -303 l 111 -226 l 119 -229 q 193 -246 169 -246 q 274 -189 274 -246 q 210 -139 274 -139 q 171 -144 192 -139 l 156 -133 z "},"Ť":{"ha":926,"x_min":43,"x_max":883,"o":"m 697 1269 l 526 1025 l 399 1025 l 229 1269 l 308 1269 l 463 1132 l 617 1269 l 697 1269 m 883 660 l 843 660 q 765 837 825 783 q 576 894 704 890 l 576 163 q 599 63 576 83 q 713 35 622 42 l 713 0 l 217 0 l 217 35 q 328 63 306 42 q 351 163 351 85 l 351 894 q 162 837 222 890 q 83 660 101 783 l 43 660 l 47 939 l 881 939 l 883 660 z "},"ť":{"ha":576,"x_min":26,"x_max":618,"o":"m 388 519 l 372 550 q 524 735 524 656 q 497 764 524 764 q 482 763 493 764 q 464 761 471 761 q 391 790 419 761 q 363 867 363 819 q 394 953 363 921 q 479 985 426 985 q 581 942 544 985 q 618 824 618 899 q 388 519 618 640 m 426 156 l 461 140 q 372 19 418 54 q 256 -17 325 -17 q 142 23 183 -17 q 100 132 100 63 l 100 579 l 26 579 l 26 617 q 140 716 94 663 q 258 875 186 769 l 293 875 l 293 640 l 376 640 l 376 579 l 293 579 l 293 165 q 347 82 293 82 q 426 156 388 82 z "},"Ŧ":{"ha":926,"x_min":43,"x_max":883,"o":"m 883 660 l 843 660 q 765 837 825 783 q 576 894 704 890 l 576 494 l 729 494 l 729 447 l 576 447 l 576 163 q 599 63 576 83 q 713 35 622 42 l 713 0 l 217 0 l 217 35 q 328 63 306 42 q 351 163 351 85 l 351 447 l 193 447 l 193 494 l 351 494 l 351 894 q 162 837 222 890 q 83 660 101 783 l 43 660 l 47 939 l 881 939 l 883 660 z "},"ŧ":{"ha":463,"x_min":24,"x_max":461,"o":"m 426 156 l 461 140 q 372 19 418 54 q 256 -17 325 -17 q 142 23 183 -17 q 100 132 100 63 l 100 318 l 24 318 l 24 396 l 100 396 l 100 579 l 26 579 l 26 617 q 140 716 94 663 q 258 875 186 769 l 293 875 l 293 640 l 425 640 l 425 579 l 293 579 l 293 396 l 421 396 l 421 318 l 293 318 l 293 165 q 347 82 293 82 q 426 156 388 82 z "},"Ũ":{"ha":1003,"x_min":22,"x_max":974,"o":"m 736 1231 l 796 1231 q 635 1054 749 1054 q 544 1074 590 1054 l 504 1092 q 415 1122 438 1122 q 370 1104 389 1122 q 347 1057 351 1086 l 289 1057 q 347 1189 308 1147 q 450 1231 386 1231 q 551 1204 493 1231 l 607 1179 q 661 1163 644 1163 q 706 1178 689 1163 q 736 1231 722 1193 m 974 939 l 974 904 q 886 871 907 894 q 865 786 865 847 l 865 350 q 760 50 865 133 q 504 -26 665 -26 q 247 49 343 -26 q 162 158 188 96 q 136 321 136 221 l 136 771 q 117 875 136 853 q 22 904 97 897 l 22 939 l 489 939 l 489 904 q 381 872 406 897 q 357 764 357 847 l 357 322 q 560 42 357 42 q 804 350 804 42 l 804 767 q 776 869 804 842 q 669 904 747 897 l 669 939 l 974 939 z "},"ũ":{"ha":772,"x_min":22,"x_max":747,"o":"m 563 936 l 622 936 q 461 760 575 760 q 371 779 417 760 l 331 797 q 242 828 264 828 q 197 810 215 828 q 174 763 178 792 l 115 763 q 174 894 135 853 q 276 936 213 936 q 378 910 319 936 l 433 885 q 488 868 471 868 q 532 883 515 868 q 563 936 549 899 m 747 28 l 660 18 q 476 -18 544 6 l 476 72 q 377 1 422 21 q 275 -19 332 -19 q 139 33 188 -19 q 90 182 90 86 l 90 517 q 78 582 90 565 q 22 607 65 599 l 22 640 l 283 640 l 283 176 q 361 71 283 71 q 475 136 415 71 l 475 519 q 458 585 475 567 q 390 607 442 603 l 390 640 l 668 640 l 668 146 q 685 81 668 100 q 747 60 701 61 l 747 28 z "},"Ū":{"ha":1003,"x_min":22,"x_max":974,"o":"m 715 1025 l 257 1025 l 257 1125 l 715 1125 l 715 1025 m 974 939 l 974 904 q 886 871 907 894 q 865 786 865 847 l 865 350 q 760 50 865 133 q 504 -26 665 -26 q 247 49 343 -26 q 162 158 188 96 q 136 321 136 221 l 136 771 q 117 875 136 853 q 22 904 97 897 l 22 939 l 489 939 l 489 904 q 381 872 406 897 q 357 764 357 847 l 357 322 q 560 42 357 42 q 804 350 804 42 l 804 767 q 776 869 804 842 q 669 904 747 897 l 669 939 l 974 939 z "},"ū":{"ha":772,"x_min":22,"x_max":747,"o":"m 590 733 l 132 733 l 132 833 l 590 833 l 590 733 m 747 28 l 660 18 q 476 -18 544 6 l 476 72 q 377 1 422 21 q 275 -19 332 -19 q 139 33 188 -19 q 90 182 90 86 l 90 517 q 78 582 90 565 q 22 607 65 599 l 22 640 l 283 640 l 283 176 q 361 71 283 71 q 475 136 415 71 l 475 519 q 458 585 475 567 q 390 607 442 603 l 390 640 l 668 640 l 668 146 q 685 81 668 100 q 747 60 701 61 l 747 28 z "},"Ŭ":{"ha":1003,"x_min":22,"x_max":974,"o":"m 664 1251 l 725 1251 q 665 1086 717 1147 q 514 1025 613 1025 q 359 1087 413 1025 q 304 1251 306 1149 l 365 1251 q 507 1131 389 1131 q 609 1158 572 1131 q 664 1251 646 1186 m 974 939 l 974 904 q 886 871 907 894 q 865 786 865 847 l 865 350 q 760 50 865 133 q 504 -26 665 -26 q 247 49 343 -26 q 162 158 188 96 q 136 321 136 221 l 136 771 q 117 875 136 853 q 22 904 97 897 l 22 939 l 489 939 l 489 904 q 381 872 406 897 q 357 764 357 847 l 357 322 q 560 42 357 42 q 804 350 804 42 l 804 767 q 776 869 804 842 q 669 904 747 897 l 669 939 l 974 939 z "},"ŭ":{"ha":772,"x_min":22,"x_max":747,"o":"m 497 960 l 558 960 q 498 794 550 856 q 347 733 446 733 q 192 795 246 733 q 138 960 139 857 l 199 960 q 340 839 222 839 q 442 867 406 839 q 497 960 479 894 m 747 28 l 660 18 q 476 -18 544 6 l 476 72 q 377 1 422 21 q 275 -19 332 -19 q 139 33 188 -19 q 90 182 90 86 l 90 517 q 78 582 90 565 q 22 607 65 599 l 22 640 l 283 640 l 283 176 q 361 71 283 71 q 475 136 415 71 l 475 519 q 458 585 475 567 q 390 607 442 603 l 390 640 l 668 640 l 668 146 q 685 81 668 100 q 747 60 701 61 l 747 28 z "},"Ů":{"ha":1003,"x_min":22,"x_max":974,"o":"m 657 1153 q 614 1047 657 1092 q 510 1003 571 1003 q 404 1045 447 1003 q 361 1150 361 1088 q 406 1255 361 1211 q 511 1299 450 1299 q 614 1256 571 1299 q 657 1153 657 1213 m 590 1149 q 565 1208 590 1183 q 506 1232 540 1232 q 451 1208 475 1232 q 428 1151 428 1183 q 451 1094 428 1118 q 507 1069 475 1069 q 566 1092 542 1069 q 590 1149 590 1115 m 974 939 l 974 904 q 886 871 907 894 q 865 786 865 847 l 865 350 q 760 50 865 133 q 504 -26 665 -26 q 247 49 343 -26 q 162 158 188 96 q 136 321 136 221 l 136 771 q 117 875 136 853 q 22 904 97 897 l 22 939 l 489 939 l 489 904 q 381 872 406 897 q 357 764 357 847 l 357 322 q 560 42 357 42 q 804 350 804 42 l 804 767 q 776 869 804 842 q 669 904 747 897 l 669 939 l 974 939 z "},"ů":{"ha":772,"x_min":22,"x_max":747,"o":"m 524 882 q 481 776 524 821 q 376 732 438 732 q 271 774 314 732 q 228 879 228 817 q 272 984 228 940 q 378 1028 317 1028 q 481 985 438 1028 q 524 882 524 942 m 457 878 q 432 937 457 913 q 372 961 407 961 q 318 937 342 961 q 294 881 294 913 q 318 823 294 847 q 374 799 342 799 q 433 822 408 799 q 457 878 457 844 m 747 28 l 660 18 q 476 -18 544 6 l 476 72 q 377 1 422 21 q 275 -19 332 -19 q 139 33 188 -19 q 90 182 90 86 l 90 517 q 78 582 90 565 q 22 607 65 599 l 22 640 l 283 640 l 283 176 q 361 71 283 71 q 475 136 415 71 l 475 519 q 458 585 475 567 q 390 607 442 603 l 390 640 l 668 640 l 668 146 q 685 81 668 100 q 747 60 701 61 l 747 28 z "},"Ű":{"ha":1003,"x_min":22,"x_max":974,"o":"m 492 1025 l 681 1243 q 756 1282 715 1282 q 804 1265 786 1282 q 822 1221 822 1249 q 811 1181 822 1197 q 767 1144 800 1165 l 571 1025 l 492 1025 m 214 1025 l 403 1243 q 478 1282 438 1282 q 526 1265 508 1282 q 544 1221 544 1249 q 533 1181 544 1197 q 489 1144 522 1165 l 293 1025 l 214 1025 m 974 939 l 974 904 q 886 871 907 894 q 865 786 865 847 l 865 350 q 760 50 865 133 q 504 -26 665 -26 q 247 49 343 -26 q 162 158 188 96 q 136 321 136 221 l 136 771 q 117 875 136 853 q 22 904 97 897 l 22 939 l 489 939 l 489 904 q 381 872 406 897 q 357 764 357 847 l 357 322 q 560 42 357 42 q 804 350 804 42 l 804 767 q 776 869 804 842 q 669 904 747 897 l 669 939 l 974 939 z "},"ű":{"ha":772,"x_min":22,"x_max":747,"o":"m 350 733 l 539 951 q 614 990 574 990 q 663 974 644 990 q 681 929 681 957 q 669 890 681 906 q 625 853 658 874 l 429 733 l 350 733 m 72 733 l 261 951 q 336 990 296 990 q 385 974 367 990 q 403 929 403 957 q 392 890 403 906 q 347 853 381 874 l 151 733 l 72 733 m 747 28 l 660 18 q 476 -18 544 6 l 476 72 q 377 1 422 21 q 275 -19 332 -19 q 139 33 188 -19 q 90 182 90 86 l 90 517 q 78 582 90 565 q 22 607 65 599 l 22 640 l 283 640 l 283 176 q 361 71 283 71 q 475 136 415 71 l 475 519 q 458 585 475 567 q 390 607 442 603 l 390 640 l 668 640 l 668 146 q 685 81 668 100 q 747 60 701 61 l 747 28 z "},"Ų":{"ha":1003,"x_min":22,"x_max":974,"o":"m 588 -22 l 590 -19 q 504 -26 544 -26 q 247 49 343 -26 q 162 158 188 96 q 136 321 136 221 l 136 771 q 117 875 136 853 q 22 904 97 897 l 22 939 l 489 939 l 489 904 q 381 872 406 897 q 357 764 357 847 l 357 322 q 560 42 357 42 q 804 350 804 42 l 804 767 q 776 869 804 842 q 669 904 747 897 l 669 939 l 974 939 l 974 904 q 886 871 907 894 q 865 786 865 847 l 865 350 q 760 50 865 133 q 646 -7 718 15 q 644 -11 646 -8 q 629 -100 629 -65 q 649 -169 629 -149 q 714 -189 668 -189 q 781 -171 744 -189 q 799 -160 786 -168 l 831 -182 q 756 -257 806 -229 q 656 -285 706 -285 q 551 -255 590 -285 q 513 -176 513 -225 q 528 -105 513 -137 q 588 -22 544 -72 z "},"ų":{"ha":772,"x_min":22,"x_max":760,"o":"m 747 28 l 660 18 q 476 -18 544 6 l 476 72 q 377 1 422 21 q 275 -19 332 -19 q 139 33 188 -19 q 90 182 90 86 l 90 517 q 78 582 90 565 q 22 607 65 599 l 22 640 l 283 640 l 283 176 q 361 71 283 71 q 475 136 415 71 l 475 519 q 458 585 475 567 q 390 607 442 603 l 390 640 l 668 640 l 668 146 q 685 81 668 100 q 747 60 701 61 l 747 28 m 728 -160 l 760 -182 q 685 -257 735 -229 q 585 -285 635 -285 q 481 -255 519 -285 q 442 -176 442 -225 q 458 -105 442 -137 q 517 -22 474 -72 q 528 -8 522 -14 q 536 0 533 -3 l 582 17 q 581 10 582 14 q 578 4 579 7 q 576 -3 578 1 q 574 -11 575 -7 q 558 -100 558 -65 q 578 -169 558 -149 q 643 -189 597 -189 q 710 -171 674 -189 q 728 -160 715 -168 z "},"Ŵ":{"ha":1389,"x_min":26,"x_max":1363,"o":"m 949 1025 l 869 1025 l 714 1161 l 558 1025 l 481 1025 l 650 1269 l 778 1269 l 949 1025 m 1363 939 l 1363 904 q 1267 815 1293 897 l 989 -21 l 951 -21 l 714 642 l 456 -21 l 417 -21 l 122 815 q 88 882 104 867 q 26 904 71 897 l 26 939 l 435 939 l 435 904 q 363 888 381 900 q 346 846 346 876 q 356 800 346 828 l 522 294 l 686 722 l 638 856 q 538 904 621 900 l 538 939 l 971 939 l 971 904 l 953 903 q 889 889 907 900 q 871 853 871 878 q 890 775 871 835 l 1040 308 l 1196 785 q 1206 843 1206 813 q 1185 888 1206 875 q 1110 904 1165 901 l 1110 939 l 1363 939 z "},"ŵ":{"ha":1003,"x_min":32,"x_max":982,"o":"m 758 733 l 679 733 l 524 869 l 368 733 l 290 733 l 460 978 l 588 978 l 758 733 m 982 640 l 982 607 q 941 588 956 601 q 913 538 926 574 l 697 -19 l 665 -19 l 524 411 l 350 -19 l 317 -19 l 111 500 q 72 583 85 565 q 32 607 58 601 l 32 640 l 340 640 l 340 607 q 288 568 288 600 q 342 408 288 551 l 404 244 l 499 482 q 490 508 493 499 q 460 590 471 576 q 408 607 449 603 l 408 640 l 733 640 l 733 607 q 681 597 694 604 q 667 574 667 590 q 704 426 667 554 q 751 250 736 317 l 800 381 q 861 558 861 544 q 847 592 861 582 q 794 607 833 603 l 794 640 l 982 640 z "},"Ŷ":{"ha":1003,"x_min":21,"x_max":971,"o":"m 754 1025 l 675 1025 l 519 1161 l 364 1025 l 286 1025 l 456 1269 l 583 1269 l 754 1025 m 971 939 l 971 904 q 876 850 903 894 l 611 418 l 611 171 q 634 66 611 90 q 739 35 657 42 l 739 0 l 257 0 l 257 35 q 363 69 340 42 q 386 178 386 97 l 386 367 l 136 822 q 21 904 93 900 l 21 939 l 486 939 l 486 904 l 449 901 q 389 891 404 899 q 374 861 374 883 q 407 779 374 843 l 574 457 l 725 704 q 782 846 782 799 q 759 888 782 876 q 665 904 736 899 l 665 939 l 971 939 z "},"ŷ":{"ha":694,"x_min":22,"x_max":669,"o":"m 582 733 l 503 733 l 347 869 l 192 733 l 114 733 l 283 978 l 411 978 l 582 733 m 669 640 l 669 607 q 619 588 636 603 q 586 531 603 574 l 381 -22 q 274 -239 318 -190 q 157 -285 231 -285 q 60 -254 97 -285 q 22 -175 22 -224 q 46 -108 22 -135 q 108 -82 69 -82 q 167 -103 143 -82 q 192 -154 192 -124 q 189 -174 192 -160 l 188 -182 q 194 -199 188 -192 q 211 -206 201 -206 q 303 -92 264 -206 l 328 -18 l 163 385 q 69 588 94 553 q 22 607 58 601 l 22 640 l 368 640 l 368 607 l 346 606 q 296 571 296 601 q 324 490 296 561 l 424 232 l 518 493 q 533 561 533 538 q 518 596 533 586 q 458 607 503 606 l 458 640 l 669 640 z "},"Ÿ":{"ha":1003,"x_min":21,"x_max":971,"o":"m 735 1125 q 708 1063 735 1089 q 643 1038 682 1038 q 581 1064 607 1038 q 556 1128 556 1090 q 582 1190 556 1164 q 644 1217 608 1217 q 708 1190 681 1217 q 735 1125 735 1163 m 443 1125 q 417 1063 443 1089 q 353 1038 392 1038 q 290 1064 317 1038 q 264 1128 264 1090 q 291 1190 264 1164 q 354 1217 318 1217 q 417 1190 390 1217 q 443 1125 443 1163 m 971 939 l 971 904 q 876 850 903 894 l 611 418 l 611 171 q 634 66 611 90 q 739 35 657 42 l 739 0 l 257 0 l 257 35 q 363 69 340 42 q 386 178 386 97 l 386 367 l 136 822 q 21 904 93 900 l 21 939 l 486 939 l 486 904 l 449 901 q 389 891 404 899 q 374 861 374 883 q 407 779 374 843 l 574 457 l 725 704 q 782 846 782 799 q 759 888 782 876 q 665 904 736 899 l 665 939 l 971 939 z "},"Ź":{"ha":926,"x_min":39,"x_max":881,"o":"m 347 1025 l 538 1243 q 611 1282 572 1282 q 660 1265 642 1282 q 678 1221 678 1249 q 667 1183 678 1197 q 622 1147 656 1168 l 425 1025 l 347 1025 m 881 336 l 843 0 l 39 0 l 39 22 l 569 888 l 454 886 q 229 841 292 883 q 121 651 167 799 l 82 651 l 113 939 l 839 939 l 839 917 l 313 49 l 428 49 q 708 104 629 49 q 771 167 746 131 q 808 232 796 203 q 844 336 819 261 l 881 336 z "},"ź":{"ha":617,"x_min":29,"x_max":583,"o":"m 211 733 l 401 951 q 475 990 436 990 q 524 974 506 990 q 542 929 542 957 q 531 891 542 906 q 486 856 519 876 l 289 733 l 211 733 m 583 222 l 561 0 l 29 0 l 29 35 l 354 596 q 161 569 207 596 q 89 443 115 543 l 53 443 l 63 640 l 578 640 l 578 604 l 257 44 l 297 44 q 424 62 382 44 q 501 126 467 79 q 544 222 529 168 l 583 222 z "},"Ż":{"ha":926,"x_min":39,"x_max":881,"o":"m 571 1125 q 544 1063 571 1089 q 479 1038 518 1038 q 417 1064 443 1038 q 392 1128 392 1090 q 418 1190 392 1164 q 481 1217 444 1217 q 544 1190 517 1217 q 571 1125 571 1163 m 881 336 l 843 0 l 39 0 l 39 22 l 569 888 l 454 886 q 229 841 292 883 q 121 651 167 799 l 82 651 l 113 939 l 839 939 l 839 917 l 313 49 l 428 49 q 708 104 629 49 q 771 167 746 131 q 808 232 796 203 q 844 336 819 261 l 881 336 z "},"ż":{"ha":617,"x_min":29,"x_max":583,"o":"m 421 833 q 394 772 421 797 q 329 746 368 746 q 267 772 293 746 q 242 836 242 799 q 268 899 242 872 q 331 925 294 925 q 394 898 367 925 q 421 833 421 871 m 583 222 l 561 0 l 29 0 l 29 35 l 354 596 q 161 569 207 596 q 89 443 115 543 l 53 443 l 63 640 l 578 640 l 578 604 l 257 44 l 297 44 q 424 62 382 44 q 501 126 467 79 q 544 222 529 168 l 583 222 z "},"Ž":{"ha":926,"x_min":39,"x_max":881,"o":"m 721 1269 l 550 1025 l 422 1025 l 253 1269 l 332 1269 l 486 1132 l 640 1269 l 721 1269 m 881 336 l 843 0 l 39 0 l 39 22 l 569 888 l 454 886 q 229 841 292 883 q 121 651 167 799 l 82 651 l 113 939 l 839 939 l 839 917 l 313 49 l 428 49 q 708 104 629 49 q 771 167 746 131 q 808 232 796 203 q 844 336 819 261 l 881 336 z "},"ž":{"ha":617,"x_min":29,"x_max":583,"o":"m 557 978 l 386 733 l 258 733 l 89 978 l 168 978 l 322 840 l 476 978 l 557 978 m 583 222 l 561 0 l 29 0 l 29 35 l 354 596 q 161 569 207 596 q 89 443 115 543 l 53 443 l 63 640 l 578 640 l 578 604 l 257 44 l 297 44 q 424 62 382 44 q 501 126 467 79 q 544 222 529 168 l 583 222 z "},"ſ":{"ha":463,"x_min":19,"x_max":540,"o":"m 42 640 l 99 640 q 154 889 99 822 q 342 960 213 960 q 485 921 431 960 q 540 821 540 882 q 517 757 540 782 q 454 732 493 732 q 395 756 419 732 q 371 811 371 779 q 386 862 371 839 q 401 890 401 885 q 361 917 401 917 q 308 892 324 917 q 292 807 292 868 l 292 149 q 313 57 292 79 q 406 33 333 35 l 406 0 l 19 0 l 19 33 q 83 56 67 39 q 99 121 99 74 l 99 579 l 42 579 l 42 640 z "},"ƀ":{"ha":768,"x_min":-39,"x_max":717,"o":"m 286 715 l 286 579 q 456 657 360 657 q 644 567 571 657 q 717 332 717 476 q 629 78 717 175 q 403 -19 542 -19 q 219 60 306 -19 l 110 -18 l 93 -18 l 93 715 l -39 715 l -39 779 l 93 779 l 93 833 q 80 885 93 874 q 17 906 67 896 l 17 939 l 286 939 l 286 779 l 465 779 l 465 715 l 286 715 m 286 500 l 286 135 q 313 55 286 85 q 382 25 339 25 q 513 307 513 25 q 383 582 513 582 q 326 563 349 582 q 286 500 304 544 z "},"ƈ":{"ha":789,"x_min":42,"x_max":797,"o":"m 579 151 l 604 126 q 485 15 547 49 q 339 -19 422 -19 q 124 71 207 -19 q 42 308 42 161 q 136 559 42 461 q 371 657 231 657 q 467 642 425 657 q 474 694 467 667 q 524 768 483 736 q 614 800 565 800 q 743 763 689 800 q 797 660 797 725 q 774 597 797 622 q 713 572 750 572 q 653 596 678 572 q 629 651 629 619 q 644 702 629 679 q 660 731 660 725 q 625 757 660 757 q 536 681 536 757 l 536 604 q 585 504 585 561 q 559 440 585 464 q 490 415 533 415 q 433 442 454 415 q 413 517 413 468 q 412 553 413 542 q 408 578 411 564 q 400 599 406 593 q 383 610 394 606 q 354 614 371 614 q 269 552 301 614 q 238 379 238 490 q 289 156 238 238 q 431 74 340 74 q 579 151 511 74 z "},"Ɛ":{"ha":847,"x_min":53,"x_max":815,"o":"m 756 242 l 815 225 q 754 108 793 156 q 663 38 715 61 q 555 4 610 14 q 431 -6 500 -6 q 302 7 364 -6 q 182 47 240 19 q 88 124 124 74 q 53 243 53 175 q 100 399 53 331 q 232 492 147 467 q 107 578 146 538 q 68 693 68 619 q 101 810 68 758 q 190 891 135 861 q 308 937 244 921 q 436 953 371 953 q 589 932 526 953 q 692 872 649 913 q 736 786 736 832 q 717 719 736 746 q 657 692 697 692 q 594 717 615 692 q 558 803 572 742 q 440 879 542 879 q 282 658 282 879 q 403 532 282 532 q 488 540 438 532 q 556 547 538 547 q 608 536 586 547 q 631 501 631 525 q 594 455 631 474 q 524 436 558 436 q 462 440 515 436 q 397 443 408 443 q 301 394 335 443 q 268 257 268 346 q 458 90 268 90 q 535 92 507 90 q 602 101 563 93 q 667 125 642 110 q 717 169 692 140 q 756 242 742 199 z "},"ƒ":{"ha":694,"x_min":0,"x_max":692,"o":"m 103 611 l 269 611 q 368 890 303 806 q 550 981 438 981 q 653 951 614 981 q 692 872 692 921 q 670 812 692 836 q 617 788 649 788 q 565 806 586 788 q 543 851 543 825 q 561 903 543 875 q 568 919 568 914 q 558 933 568 926 q 536 939 549 939 q 447 736 447 939 l 447 611 l 617 611 l 617 547 l 447 547 q 417 144 426 204 q 315 -123 389 -31 q 129 -215 240 -215 q 35 -186 69 -215 q 0 -107 0 -157 q 21 -49 0 -71 q 76 -28 42 -28 q 129 -47 108 -28 q 150 -96 150 -65 q 135 -135 150 -115 q 125 -151 125 -146 q 134 -167 125 -161 q 156 -174 143 -174 q 219 -131 194 -174 q 246 -17 244 -87 l 264 547 l 103 547 l 103 611 z "},"ƕ":{"ha":1107,"x_min":19,"x_max":1065,"o":"m 672 468 l 672 175 q 703 92 672 129 q 776 56 733 56 q 929 141 869 56 q 989 324 989 226 q 969 434 989 388 q 932 497 950 481 q 886 529 914 513 q 844 561 857 547 q 832 596 832 575 q 851 633 832 619 q 900 646 871 646 q 981 612 946 646 q 1033 528 1015 578 q 1058 433 1050 478 q 1065 354 1065 389 q 980 97 1065 207 q 744 -14 894 -14 q 554 36 629 -14 q 479 189 479 86 l 479 450 q 463 538 479 511 q 408 564 446 564 q 311 517 358 564 q 288 483 288 493 l 288 118 q 301 57 288 75 q 354 33 315 39 l 354 0 l 21 0 l 21 33 q 83 56 71 43 q 94 124 94 68 l 94 821 q 82 883 94 869 q 19 906 69 896 l 19 939 l 288 939 l 288 550 q 492 657 378 657 q 624 604 575 657 q 672 468 672 551 z "},"ƙ":{"ha":740,"x_min":17,"x_max":740,"o":"m 740 0 l 415 0 l 415 33 q 474 60 474 36 q 440 122 474 76 l 308 308 l 276 275 l 276 117 q 288 54 276 68 q 349 33 300 40 l 349 0 l 17 0 l 17 33 q 83 117 83 39 l 83 675 q 140 889 83 821 q 328 960 199 960 q 471 921 417 960 q 525 821 525 882 q 501 757 525 782 q 440 732 478 732 q 381 756 406 732 q 357 811 357 779 q 372 862 357 839 q 388 890 388 885 q 347 917 388 917 q 294 894 311 917 q 276 818 276 872 l 276 340 l 454 518 q 483 571 483 547 q 435 603 483 597 l 401 607 l 401 640 l 699 640 l 699 607 q 585 567 632 599 q 436 426 539 535 l 706 54 q 740 33 721 33 l 740 0 z "},"ƚ":{"ha":404,"x_min":33,"x_max":368,"o":"m 368 0 l 35 0 l 35 33 q 106 121 106 39 l 106 472 l 38 472 l 38 536 l 106 536 l 106 815 q 33 906 106 900 l 33 939 l 299 939 l 299 536 l 365 536 l 365 472 l 299 472 l 299 121 q 315 55 299 75 q 368 33 332 35 l 368 0 z "},"ƛ":{"ha":744,"x_min":83,"x_max":731,"o":"m 731 0 l 519 0 l 519 33 q 579 44 564 35 q 594 79 594 54 q 579 147 594 103 l 485 408 l 385 150 q 357 69 357 79 q 407 35 357 39 l 429 33 l 429 0 l 83 0 l 83 33 q 131 53 119 39 q 224 256 156 88 l 389 658 l 376 692 l 110 474 l 110 567 l 351 761 q 272 846 315 846 q 256 839 263 846 q 249 822 249 832 q 251 809 249 819 q 253 794 253 799 q 228 743 253 764 q 169 722 204 722 q 107 749 131 722 q 83 815 83 775 q 121 894 83 864 q 218 925 158 925 q 321 892 282 925 q 389 792 360 858 l 547 925 l 547 831 l 418 725 l 647 110 q 681 52 664 67 q 731 33 697 38 l 731 0 z "},"ƞ":{"ha":776,"x_min":29,"x_max":749,"o":"m 749 -285 l 424 -285 l 424 -251 q 473 -228 458 -247 q 488 -168 488 -210 l 488 446 q 417 564 488 564 q 319 517 367 564 q 296 483 296 493 l 296 117 q 310 58 296 76 q 363 33 325 39 l 363 0 l 29 0 l 29 33 q 89 60 75 43 q 103 121 103 76 l 103 522 q 89 583 103 567 q 29 607 75 600 l 29 640 l 294 640 l 294 536 l 296 536 q 493 657 364 657 q 630 603 579 657 q 681 460 681 550 l 681 -168 q 694 -232 681 -215 q 749 -251 708 -249 l 749 -285 z "},"Ơ":{"ha":1081,"x_min":49,"x_max":1094,"o":"m 915 804 l 908 804 q 1032 465 1032 667 q 894 111 1032 249 q 539 -26 756 -26 q 186 111 324 -26 q 49 464 49 249 q 189 822 49 685 q 547 960 329 960 q 872 840 740 960 q 914 835 900 835 q 974 842 956 835 q 992 871 992 849 q 935 949 935 906 q 956 994 935 972 q 1008 1017 976 1017 q 1069 992 1044 1017 q 1094 924 1094 967 q 1067 850 1094 879 q 994 811 1039 821 q 915 804 964 804 m 786 456 q 722 796 786 678 q 535 914 657 914 q 357 795 419 914 q 294 458 294 676 q 358 130 294 240 q 542 19 422 19 q 724 131 661 19 q 786 456 786 242 z "},"ơ":{"ha":769,"x_min":35,"x_max":800,"o":"m 800 608 q 772 535 800 564 q 700 496 744 506 q 622 489 669 489 q 661 318 661 411 q 572 76 661 172 q 347 -19 482 -19 q 125 76 215 -19 q 35 317 35 171 q 124 563 35 468 q 353 657 214 657 q 495 622 429 657 q 600 525 561 586 q 628 519 622 519 q 697 556 697 519 q 640 633 640 590 q 661 679 640 657 q 714 701 682 701 q 775 676 750 701 q 800 608 800 651 m 457 303 q 433 547 457 481 q 349 614 410 614 q 262 548 285 614 q 239 303 239 482 q 264 88 239 151 q 349 24 289 24 q 433 85 408 24 q 457 303 457 147 z "},"ƥ":{"ha":764,"x_min":14,"x_max":715,"o":"m 285 789 l 285 549 q 360 633 318 608 q 464 657 403 657 q 649 577 582 657 q 715 346 715 497 q 644 82 715 182 q 449 -18 572 -18 q 368 -1 401 -18 q 285 65 335 17 l 285 -110 q 308 -215 285 -182 q 392 -251 331 -249 l 392 -285 l 14 -285 l 14 -251 q 77 -226 63 -243 q 92 -164 92 -208 l 92 665 q 147 864 92 796 q 335 935 206 935 q 478 896 424 935 q 532 796 532 857 q 508 732 532 757 q 447 707 485 707 q 388 731 413 707 q 364 786 364 754 q 379 837 364 814 q 394 865 394 860 q 354 892 394 892 q 301 867 317 892 q 285 789 285 843 m 285 481 l 285 149 q 330 83 301 108 q 392 58 358 58 q 510 325 510 58 q 404 578 510 578 q 310 526 353 578 q 285 481 285 497 z "},"ƪ":{"ha":619,"x_min":35,"x_max":585,"o":"m 426 589 l 371 -7 q 367 -140 367 -54 q 429 -275 367 -275 q 451 -269 442 -275 q 461 -256 461 -262 q 449 -230 461 -251 q 436 -189 436 -208 q 457 -143 436 -162 q 510 -124 478 -124 q 564 -148 543 -124 q 585 -208 585 -172 q 544 -287 585 -258 q 431 -317 503 -317 q 249 -244 314 -317 q 185 -53 185 -171 q 188 29 185 -1 l 238 535 q 244 599 240 556 q 247 647 247 642 q 186 639 224 639 q 79 685 124 639 q 35 797 35 732 q 85 909 35 861 q 206 957 136 957 q 369 876 310 957 q 429 689 429 794 q 426 589 429 622 m 264 796 q 239 855 264 831 q 181 879 214 879 q 124 855 147 879 q 101 797 101 831 q 125 741 101 765 q 182 717 149 717 q 240 740 217 717 q 264 796 264 764 z "},"ƫ":{"ha":482,"x_min":25,"x_max":460,"o":"m 460 140 l 460 -118 q 420 -248 460 -193 q 299 -303 381 -303 q 170 -265 213 -303 q 128 -164 128 -228 q 151 -100 128 -125 q 213 -75 175 -75 q 272 -99 247 -75 q 296 -154 296 -122 q 281 -205 296 -182 q 265 -233 265 -228 q 306 -260 265 -260 q 369 -233 339 -260 q 399 -150 399 -206 l 399 46 q 254 -17 346 -17 q 140 23 182 -17 q 99 132 99 63 l 99 579 l 25 579 l 25 617 q 139 716 93 663 q 257 875 185 769 l 292 875 l 292 640 l 424 640 l 424 579 l 292 579 l 292 165 q 346 82 292 82 q 425 156 386 82 l 460 140 z "},"ƭ":{"ha":515,"x_min":26,"x_max":540,"o":"m 26 579 l 26 617 q 100 675 64 640 q 156 889 103 822 q 343 960 214 960 q 486 921 432 960 q 540 821 540 882 q 517 757 540 782 q 456 732 493 732 q 397 756 421 732 q 372 811 372 779 q 388 862 372 839 q 403 890 403 885 q 363 917 403 917 q 309 892 325 917 q 293 807 293 868 l 293 640 l 425 640 l 425 579 l 293 579 l 293 165 q 347 82 293 82 q 426 156 388 82 l 461 140 q 372 19 418 54 q 256 -17 325 -17 q 142 23 183 -17 q 100 132 100 63 l 100 579 l 26 579 z "},"Ư":{"ha":1106,"x_min":22,"x_max":1161,"o":"m 669 939 l 978 939 q 1058 979 1057 939 q 1001 1057 1001 1014 q 1023 1105 1001 1085 q 1078 1125 1044 1125 q 1136 1102 1111 1125 q 1161 1035 1161 1079 q 1050 919 1161 947 q 956 901 1047 919 q 883 868 900 892 q 865 786 865 844 l 865 350 q 760 50 865 133 q 504 -26 665 -26 q 247 49 343 -26 q 162 158 188 96 q 136 321 136 221 l 136 771 q 117 875 136 853 q 22 904 97 897 l 22 939 l 489 939 l 489 904 q 381 872 406 897 q 357 764 357 847 l 357 322 q 560 42 357 42 q 804 350 804 42 l 804 767 q 776 869 804 842 q 669 904 747 897 l 669 939 z "},"ư":{"ha":833,"x_min":22,"x_max":869,"o":"m 765 674 l 764 685 q 753 692 760 688 q 742 699 746 697 q 733 706 739 701 q 725 714 728 711 q 718 722 722 717 q 713 734 714 728 q 710 748 711 740 q 708 764 708 756 q 730 807 708 786 q 783 828 751 828 q 844 805 819 828 q 869 739 869 782 q 769 618 869 644 q 683 607 732 607 l 668 607 l 668 146 q 685 81 668 100 q 747 60 701 61 l 747 28 l 660 18 q 476 -18 544 6 l 476 72 q 377 1 422 21 q 275 -19 332 -19 q 139 33 188 -19 q 90 182 90 86 l 90 517 q 78 582 90 565 q 22 607 65 599 l 22 640 l 283 640 l 283 176 q 361 71 283 71 q 475 136 415 71 l 475 519 q 458 585 475 567 q 390 607 442 603 l 390 640 l 675 640 q 736 649 708 640 q 765 674 764 657 z "},"ƺ":{"ha":613,"x_min":13,"x_max":576,"o":"m 576 588 l 310 356 q 371 361 331 361 q 520 313 464 361 q 576 188 576 264 q 548 101 576 144 q 478 33 519 57 l 260 -92 q 192 -196 192 -131 q 224 -254 192 -231 q 294 -278 257 -278 q 357 -258 329 -278 q 390 -208 385 -239 q 483 -115 407 -115 q 545 -136 525 -115 q 565 -185 565 -157 q 500 -283 565 -244 q 304 -329 422 -329 q 147 -289 211 -329 q 71 -150 71 -239 q 98 -53 71 -92 q 179 18 125 -15 q 354 115 219 43 q 400 196 400 142 q 366 252 400 232 q 282 272 332 272 q 131 207 196 272 l 93 240 l 413 524 l 150 524 q 89 491 122 524 q 49 408 56 458 l 13 408 l 60 625 l 576 625 l 576 588 z "},"ƻ":{"ha":715,"x_min":38,"x_max":683,"o":"m 683 436 l 496 436 q 461 399 468 404 l 236 185 l 468 185 q 582 204 546 185 q 643 293 618 224 l 678 293 l 614 0 l 38 0 l 38 32 q 106 105 50 46 q 185 189 163 164 q 248 262 207 214 q 318 351 289 310 q 371 436 347 393 l 44 436 l 44 522 l 413 522 q 431 621 431 572 q 386 747 431 697 q 265 797 342 797 q 96 672 157 797 l 57 672 q 367 956 150 956 q 551 886 482 956 q 619 701 619 817 q 565 522 619 604 l 683 522 l 683 436 z "},"ƾ":{"ha":732,"x_min":108,"x_max":624,"o":"m 313 608 l 315 543 q 358 546 335 546 q 551 456 479 546 q 624 254 624 367 q 540 59 624 132 q 326 -14 457 -14 q 185 24 253 -14 q 108 133 108 67 q 128 178 108 157 q 182 200 147 200 q 281 117 258 200 q 291 82 288 93 q 303 55 294 71 q 324 33 311 39 q 356 26 338 26 q 401 49 382 26 q 428 106 419 71 q 440 172 436 140 q 444 235 444 204 q 394 362 444 314 q 278 410 343 410 l 233 410 l 233 608 l 144 608 l 144 672 l 233 672 l 233 751 l 306 751 l 310 672 l 464 672 l 464 608 l 313 608 z "},"ǀ":{"ha":258,"x_min":83,"x_max":175,"o":"m 175 0 l 83 0 l 83 1028 l 175 1028 l 175 0 z "},"ǁ":{"ha":435,"x_min":83,"x_max":351,"o":"m 351 0 l 260 0 l 260 1028 l 351 1028 l 351 0 m 175 0 l 83 0 l 83 1028 l 175 1028 l 175 0 z "},"ǂ":{"ha":618,"x_min":54,"x_max":563,"o":"m 563 361 l 357 361 l 357 0 l 265 0 l 265 361 l 54 361 l 54 453 l 265 453 l 265 569 l 54 569 l 54 661 l 265 661 l 265 1028 l 357 1028 l 357 661 l 563 661 l 563 569 l 357 569 l 357 453 l 563 453 l 563 361 z "},"ǃ":{"ha":463,"x_min":113,"x_max":349,"o":"m 253 325 l 210 325 q 183 524 196 453 q 139 694 169 594 q 114 818 114 774 q 147 922 114 885 q 232 960 179 960 q 318 923 288 960 q 349 821 349 886 q 324 694 349 775 q 280 525 293 596 q 253 325 267 454 m 347 97 q 314 15 347 47 q 231 -18 281 -18 q 147 16 182 -18 q 113 99 113 50 q 145 183 113 150 q 229 217 178 217 q 313 183 279 217 q 347 97 347 149 z "},"ǰ":{"ha":463,"x_min":-79,"x_max":465,"o":"m 465 978 l 294 733 l 167 733 l -3 978 l 76 978 l 231 840 l 385 978 l 465 978 m 361 640 l 361 3 q 324 -176 361 -114 q 115 -282 264 -282 q -25 -243 29 -282 q -79 -143 -79 -204 q -56 -82 -79 -106 q 7 -58 -32 -58 q 65 -80 42 -58 q 89 -133 89 -101 q 69 -185 89 -156 q 57 -215 57 -206 q 101 -239 57 -239 q 152 -214 136 -239 q 168 -133 168 -189 l 168 525 q 151 586 168 569 q 81 607 133 603 l 81 640 l 361 640 z "},"Ǻ":{"ha":1003,"x_min":13,"x_max":957,"o":"m 519 904 l 804 233 q 885 72 857 108 q 957 35 914 35 l 957 0 l 510 0 l 510 35 l 554 39 q 603 52 589 42 q 618 85 618 63 q 554 274 618 125 l 242 274 l 224 226 q 181 92 181 115 q 206 52 181 65 q 293 35 232 39 l 293 0 l 13 0 l 13 35 q 86 74 61 43 q 150 201 111 104 l 435 904 q 374 949 397 917 q 351 1024 351 982 q 389 1111 351 1074 q 479 1149 426 1149 q 565 1112 528 1149 q 603 1025 603 1075 q 579 951 603 985 q 519 904 556 918 m 533 328 l 393 665 l 263 328 l 533 328 m 536 1022 q 520 1065 536 1047 q 475 1082 504 1082 q 434 1065 450 1082 q 418 1024 418 1047 q 435 982 418 1000 q 475 964 453 964 q 518 981 500 964 q 536 1022 536 999 m 317 1146 l 519 1319 q 581 1350 554 1350 q 625 1304 625 1350 q 622 1288 625 1294 q 609 1273 619 1281 q 591 1260 599 1265 q 563 1244 583 1256 l 379 1146 l 317 1146 z "},"ǻ":{"ha":694,"x_min":35,"x_max":678,"o":"m 169 1025 l 360 1243 q 433 1282 394 1282 q 482 1265 464 1282 q 500 1221 500 1249 q 489 1183 500 1197 q 444 1147 478 1168 l 247 1025 l 169 1025 m 496 882 q 453 776 496 821 q 349 732 410 732 q 243 774 286 732 q 200 879 200 817 q 244 984 200 940 q 350 1028 289 1028 q 453 985 410 1028 q 496 882 496 942 m 429 878 q 404 937 429 913 q 344 961 379 961 q 290 937 314 961 q 267 881 267 913 q 290 823 267 847 q 346 799 314 799 q 405 822 381 799 q 429 878 429 844 m 657 89 l 678 60 q 522 -19 604 -19 q 445 2 471 -19 q 408 76 419 24 q 188 -19 303 -19 q 76 17 118 -19 q 35 128 35 54 q 128 283 35 221 q 407 389 197 329 l 407 483 q 381 582 407 551 q 294 613 356 613 q 230 599 256 613 q 204 561 204 585 q 219 529 204 546 q 246 471 246 497 q 219 411 246 435 q 151 388 193 388 q 85 413 108 388 q 61 482 61 438 q 134 610 61 564 q 326 657 207 657 q 526 608 454 657 q 599 471 599 560 l 599 108 q 628 69 599 69 q 643 75 638 69 l 657 89 m 407 135 l 407 340 q 238 172 238 293 q 258 103 238 128 q 310 79 278 79 q 407 135 368 79 z "},"Ǽ":{"ha":1389,"x_min":6,"x_max":1321,"o":"m 661 1025 l 851 1243 q 925 1282 886 1282 q 974 1265 956 1282 q 992 1221 992 1249 q 981 1183 992 1197 q 936 1147 969 1168 l 739 1025 l 661 1025 m 1321 293 l 1264 0 l 478 0 l 478 35 q 577 63 554 39 q 600 165 600 88 l 600 421 l 336 421 l 197 160 q 176 97 176 119 q 195 56 176 68 q 268 38 214 44 l 292 35 l 292 0 l 6 0 l 6 35 q 69 67 47 42 q 158 213 92 92 l 464 771 q 503 857 503 840 q 476 893 503 882 q 382 908 450 904 l 382 939 l 1263 939 l 1263 660 l 1228 660 q 1167 818 1206 771 q 915 890 1108 890 q 841 882 860 890 q 822 849 822 874 l 822 504 q 976 545 944 514 q 1038 711 1008 576 l 1069 711 l 1069 242 l 1038 242 q 978 412 1018 371 q 822 460 939 453 l 822 122 q 844 63 822 78 q 925 47 865 47 q 1183 132 1100 47 q 1250 216 1219 169 q 1289 293 1281 263 l 1321 293 m 600 476 l 600 879 l 590 879 l 367 476 l 600 476 z "},"ǽ":{"ha":1003,"x_min":46,"x_max":964,"o":"m 354 733 l 544 951 q 618 990 579 990 q 667 974 649 990 q 685 929 685 957 q 674 891 685 906 q 629 856 663 876 l 432 733 l 354 733 m 935 179 l 964 158 q 837 26 903 64 q 672 -12 771 -12 q 468 104 532 -12 l 460 104 q 210 -19 360 -19 q 46 131 46 -19 q 128 276 46 207 q 411 396 197 335 l 411 500 q 386 587 411 561 q 303 613 361 613 q 238 599 264 613 q 213 564 213 585 q 229 533 213 551 q 253 474 253 506 q 227 411 253 435 q 160 388 201 388 q 93 415 117 388 q 69 483 69 442 q 142 608 69 558 q 325 657 214 657 q 519 586 457 657 q 696 657 583 657 q 835 620 774 657 q 926 517 896 583 q 956 344 956 454 l 603 344 l 603 313 q 640 140 603 194 q 763 85 676 85 q 935 179 858 85 m 788 396 l 788 442 q 768 577 788 539 q 700 615 749 615 q 625 564 647 615 q 603 396 603 513 l 788 396 m 411 113 l 411 344 q 283 272 319 311 q 246 167 246 232 q 325 68 246 68 q 411 113 368 68 z "},"Ǿ":{"ha":1081,"x_min":49,"x_max":1032,"o":"m 375 1025 l 565 1243 q 639 1282 600 1282 q 688 1265 669 1282 q 706 1221 706 1249 q 694 1183 706 1197 q 650 1147 683 1168 l 453 1025 l 375 1025 m 951 1024 l 843 864 q 972 717 933 790 q 1032 467 1032 606 q 894 112 1032 250 q 540 -26 756 -26 q 281 42 403 -26 l 182 -103 l 113 -103 l 232 72 q 140 167 171 125 q 83 271 108 208 q 49 465 49 361 q 188 820 49 681 q 542 960 326 960 q 794 894 672 960 l 882 1024 l 951 1024 m 325 210 l 722 790 q 644 885 686 857 q 540 914 601 914 q 358 795 422 914 q 294 456 294 676 q 325 210 294 318 m 750 728 l 351 144 q 431 49 388 78 q 540 19 475 19 q 724 131 661 19 q 786 460 786 243 q 750 728 786 611 z "},"ǿ":{"ha":694,"x_min":35,"x_max":661,"o":"m 182 733 l 372 951 q 446 990 407 990 q 494 974 476 990 q 513 929 513 957 q 501 891 513 906 q 457 856 490 876 l 260 733 l 182 733 m 640 763 l 539 592 q 661 318 661 482 q 572 76 661 172 q 349 -19 483 -19 q 200 18 271 -19 l 113 -128 l 47 -128 l 153 50 q 35 318 35 160 q 124 560 35 464 q 350 657 214 657 q 493 622 424 657 l 576 763 l 640 763 m 240 194 l 439 531 q 405 595 425 576 q 350 614 385 614 q 262 547 285 614 q 239 290 239 479 q 240 194 239 222 m 454 450 l 254 111 q 349 24 279 24 q 433 85 408 24 q 457 301 457 147 q 454 450 457 385 z "},"ȷ":{"ha":463,"x_min":-79,"x_max":361,"o":"m 361 640 l 361 3 q 324 -176 361 -114 q 115 -282 264 -282 q -25 -243 29 -282 q -79 -143 -79 -204 q -56 -82 -79 -106 q 7 -58 -32 -58 q 65 -80 42 -58 q 89 -133 89 -101 q 69 -185 89 -156 q 57 -215 57 -206 q 101 -239 57 -239 q 152 -214 136 -239 q 168 -133 168 -189 l 168 525 q 151 586 168 569 q 81 607 133 603 l 81 640 l 361 640 z "},"ɐ":{"ha":711,"x_min":18,"x_max":661,"o":"m 39 549 l 18 578 q 174 657 92 657 q 251 635 225 657 q 288 561 276 614 q 508 657 393 657 q 619 620 578 657 q 661 510 661 583 q 568 354 661 417 q 289 249 499 308 l 289 154 q 315 56 289 86 q 401 25 340 25 q 466 39 440 25 q 492 76 492 53 q 476 108 492 92 q 450 167 450 140 q 476 226 450 203 q 544 250 503 250 q 611 225 588 250 q 635 156 635 200 q 562 27 635 74 q 369 -19 489 -19 q 169 29 242 -19 q 97 167 97 78 l 97 529 q 68 568 97 568 q 53 563 58 568 l 39 549 m 289 503 l 289 297 q 458 465 458 344 q 438 534 458 510 q 386 558 418 558 q 289 503 328 558 z "},"ɑ":{"ha":844,"x_min":44,"x_max":825,"o":"m 825 69 l 556 -11 l 556 63 q 542 50 554 61 q 521 33 529 39 q 493 15 513 26 q 456 -3 474 4 q 410 -15 438 -10 q 354 -19 383 -19 q 293 -15 325 -19 q 215 10 261 -10 q 132 62 168 29 q 70 157 96 94 q 44 301 44 219 q 141 552 44 447 q 386 657 238 657 q 556 593 479 657 l 703 657 l 722 657 l 722 118 q 743 83 722 83 q 825 93 751 83 l 825 69 m 556 151 l 556 472 q 510 575 556 538 q 415 613 465 613 q 295 547 347 613 q 243 351 243 482 q 302 133 243 206 q 446 61 361 61 q 518 88 481 61 q 556 151 556 115 z "},"ɒ":{"ha":844,"x_min":44,"x_max":825,"o":"m 314 649 l 314 575 q 328 588 315 576 q 349 605 340 599 q 376 622 357 611 q 414 640 396 633 q 459 652 432 647 q 515 657 486 657 q 576 652 544 657 q 655 628 608 647 q 738 576 701 608 q 799 481 774 543 q 825 336 825 418 q 728 85 825 190 q 483 -19 632 -19 q 314 44 390 -19 l 167 -19 l 147 -19 l 147 519 q 126 554 147 554 q 44 544 118 554 l 44 568 l 314 649 m 314 486 l 314 165 q 359 63 314 100 q 454 25 404 25 q 574 90 522 25 q 626 286 626 156 q 567 504 626 432 q 424 576 508 576 q 351 549 389 576 q 314 486 314 522 z "},"ɓ":{"ha":778,"x_min":103,"x_max":726,"o":"m 296 814 l 296 579 q 465 657 369 657 q 653 567 581 657 q 726 332 726 476 q 639 78 726 175 q 413 -19 551 -19 q 229 60 315 -19 l 119 -18 l 103 -18 l 103 647 q 158 889 103 822 q 346 960 217 960 q 489 921 435 960 q 543 821 543 882 q 519 757 543 782 q 458 732 496 732 q 399 756 424 732 q 375 811 375 779 q 390 862 375 839 q 406 890 406 885 q 365 917 406 917 q 313 893 329 917 q 296 814 296 869 m 296 500 l 296 135 q 322 55 296 85 q 392 25 349 25 q 522 307 522 25 q 393 582 522 582 q 336 563 358 582 q 296 500 314 544 z "},"ɔ":{"ha":656,"x_min":21,"x_max":583,"o":"m 46 486 l 21 511 q 140 623 78 589 q 286 657 203 657 q 501 567 418 657 q 583 329 583 476 q 489 78 583 176 q 254 -19 394 -19 q 101 24 163 -19 q 40 133 40 67 q 66 198 40 174 q 135 222 92 222 q 192 196 171 222 q 213 121 213 169 q 213 85 213 96 q 217 59 214 74 q 225 38 219 44 q 242 28 231 32 q 271 24 254 24 q 356 85 324 24 q 388 258 388 147 q 336 482 388 400 q 194 564 285 564 q 46 486 114 564 z "},"ɕ":{"ha":663,"x_min":42,"x_max":618,"o":"m 149 -224 l 256 -7 q 129 67 183 13 q 42 308 42 154 q 136 559 42 461 q 371 657 231 657 q 524 614 463 657 q 585 504 585 571 q 559 440 585 464 q 490 415 533 415 q 433 442 454 415 q 413 517 413 468 q 412 553 413 542 q 408 578 411 564 q 400 599 406 593 q 383 610 394 606 q 354 614 371 614 q 269 552 301 614 q 238 379 238 490 q 315 108 238 201 q 366 179 350 160 q 413 215 382 199 q 483 232 443 232 q 581 200 544 232 q 618 117 618 168 q 571 13 618 56 q 436 -29 524 -29 q 317 -24 343 -29 l 215 -224 l 149 -224 m 557 117 q 535 161 557 146 q 483 176 513 176 q 424 153 450 176 q 361 71 397 129 q 412 44 379 56 q 463 32 444 32 q 557 117 557 32 z "},"ɖ":{"ha":836,"x_min":44,"x_max":917,"o":"m 669 939 l 669 -171 q 685 -256 669 -232 q 739 -281 701 -281 q 779 -254 779 -281 q 764 -226 779 -249 q 749 -175 749 -203 q 773 -119 749 -143 q 832 -96 797 -96 q 893 -121 869 -96 q 917 -185 917 -146 q 863 -285 917 -246 q 719 -324 808 -324 q 532 -253 590 -324 q 476 -10 476 -186 l 476 72 q 388 0 426 19 q 296 -19 350 -19 q 115 72 186 -19 q 44 307 44 164 q 120 558 44 458 q 311 657 196 657 q 395 638 358 657 q 476 571 432 619 l 476 825 q 458 887 476 874 q 371 906 440 900 l 371 939 l 669 939 m 476 156 l 476 493 q 432 556 461 533 q 368 579 403 579 q 250 318 250 579 q 358 58 250 58 q 450 110 408 58 q 476 156 476 144 z "},"ɗ":{"ha":903,"x_min":44,"x_max":917,"o":"m 476 571 l 476 660 q 532 878 476 811 q 719 949 590 949 q 863 910 808 949 q 917 810 917 871 q 893 746 917 771 q 832 721 869 721 q 773 744 797 721 q 749 800 749 768 q 764 851 749 828 q 779 879 779 874 q 739 906 779 906 q 686 885 703 906 q 669 813 669 864 l 669 140 q 687 79 669 96 q 751 60 704 63 l 751 28 l 665 17 q 481 -18 551 1 l 481 72 q 392 1 432 21 q 296 -19 351 -19 q 115 72 186 -19 q 44 307 44 164 q 120 558 44 458 q 311 657 196 657 q 395 638 358 657 q 476 571 432 619 m 476 156 l 476 493 q 432 556 461 533 q 368 579 403 579 q 250 318 250 579 q 358 58 250 58 q 450 110 408 58 q 476 156 476 144 z "},"ɘ":{"ha":635,"x_min":35,"x_max":593,"o":"m 393 340 l 43 340 q 125 588 51 507 q 303 657 188 657 q 513 562 433 657 q 593 311 593 467 q 514 74 593 168 q 310 -19 435 -19 q 158 19 219 -19 q 35 156 96 58 l 68 175 q 147 102 111 124 q 228 81 183 81 q 309 101 276 81 q 358 163 342 122 q 382 242 375 203 q 393 340 389 282 m 214 392 l 400 392 q 376 563 400 513 q 303 614 353 614 q 259 599 275 614 q 226 549 243 583 q 214 421 214 522 l 214 392 z "},"ə":{"ha":635,"x_min":26,"x_max":585,"o":"m 60 463 l 26 482 q 149 618 88 579 q 301 657 211 657 q 506 563 426 657 q 585 326 585 469 q 505 76 585 171 q 294 -19 425 -19 q 117 50 179 -19 q 35 297 43 131 l 385 297 q 374 395 381 356 q 350 475 367 435 q 301 536 333 515 q 219 557 268 557 q 139 535 175 557 q 60 463 103 514 m 392 246 l 206 246 l 206 217 q 218 89 206 115 q 251 39 235 54 q 294 24 267 24 q 368 74 344 24 q 392 246 392 125 z "},"ɚ":{"ha":956,"x_min":57,"x_max":940,"o":"m 940 401 l 925 364 q 880 307 911 329 q 810 285 849 285 q 724 315 754 285 q 694 400 694 344 q 696 529 694 519 l 596 469 q 615 326 615 407 q 535 76 615 171 q 325 -19 456 -19 q 147 50 210 -19 q 93 139 113 89 q 72 225 74 189 l 422 428 q 360 522 407 486 q 250 557 313 557 q 169 535 206 557 q 90 463 133 514 l 57 482 q 183 621 121 585 q 332 657 246 657 q 571 514 488 657 l 735 613 l 753 596 q 746 401 746 478 q 764 355 746 374 q 808 336 782 336 q 858 353 839 336 q 885 385 878 369 l 899 419 l 940 401 m 422 247 l 422 369 l 243 265 l 243 192 q 328 24 243 24 q 422 247 422 24 z "},"ɛ":{"ha":685,"x_min":35,"x_max":610,"o":"m 578 142 l 610 117 q 479 6 549 32 q 314 -19 410 -19 q 118 28 201 -19 q 35 171 35 76 q 81 280 35 232 q 199 347 126 328 q 103 410 133 376 q 72 497 72 443 q 335 660 72 657 q 446 646 397 660 q 535 597 494 632 q 576 529 576 563 q 507 458 576 458 q 449 478 468 458 q 408 556 431 499 q 331 608 388 608 q 260 580 281 608 q 239 486 239 551 q 269 416 239 446 q 336 375 300 386 q 408 367 358 368 l 408 315 l 335 315 q 256 278 285 315 q 228 179 228 242 q 263 85 228 121 q 354 49 299 49 q 478 67 426 49 q 578 142 529 86 z "},"ɜ":{"ha":685,"x_min":35,"x_max":610,"o":"m 236 315 l 236 367 q 308 375 286 368 q 375 416 344 386 q 406 486 406 446 q 385 580 406 551 q 314 608 364 608 q 236 556 257 608 q 195 478 214 499 q 138 458 176 458 q 68 529 68 458 q 109 597 68 563 q 199 646 150 632 q 310 660 247 660 q 572 497 572 657 q 542 410 572 443 q 446 347 511 376 q 564 280 518 328 q 610 171 610 232 q 526 28 610 76 q 331 -19 443 -19 q 165 6 235 -19 q 35 117 96 32 l 67 142 q 167 67 115 86 q 290 49 218 49 q 381 85 346 49 q 417 179 417 121 q 388 278 417 242 q 310 315 360 315 l 236 315 z "},"ɝ":{"ha":949,"x_min":35,"x_max":914,"o":"m 914 401 l 899 364 q 853 307 885 329 q 783 285 822 285 q 698 315 728 285 q 668 400 668 344 q 669 529 668 519 l 569 468 q 531 399 561 426 q 446 347 501 372 q 565 279 518 328 q 611 171 611 231 q 527 28 611 76 q 331 -19 443 -19 q 165 7 236 -19 q 35 117 94 33 l 67 142 q 167 67 115 86 q 290 49 218 49 q 381 85 346 49 q 417 179 417 121 q 388 278 417 242 q 310 315 360 315 l 236 315 l 236 367 q 308 375 286 368 q 375 416 344 386 q 406 486 406 446 q 385 581 406 553 q 311 608 364 608 q 236 556 257 608 q 195 478 214 499 q 138 458 176 458 q 68 529 68 458 q 109 597 68 563 q 199 646 150 632 q 310 660 247 660 q 569 529 544 657 l 708 613 l 726 596 q 719 401 719 478 q 738 355 719 374 q 782 336 756 336 q 832 353 813 336 q 858 385 851 369 l 872 419 l 914 401 z "},"ɞ":{"ha":726,"x_min":35,"x_max":651,"o":"m 651 171 q 567 28 651 75 q 356 -19 483 -19 q 261 -6 310 -19 q 158 42 213 8 q 69 149 104 76 q 35 324 35 222 q 125 567 35 474 q 340 660 215 660 q 614 497 614 660 q 583 410 614 443 q 488 347 553 376 q 606 280 560 328 q 651 171 651 232 m 278 315 l 278 367 q 350 375 328 368 q 417 416 386 386 q 447 486 447 446 q 426 581 447 553 q 353 608 406 608 q 198 530 264 608 q 132 336 132 451 q 191 129 132 210 q 332 49 250 49 q 422 85 388 49 q 457 179 457 121 q 429 278 457 242 q 351 315 401 315 l 278 315 z "},"ɟ":{"ha":469,"x_min":-75,"x_max":436,"o":"m 436 640 l 436 607 q 365 524 365 607 l 365 353 l 432 353 l 432 289 l 365 289 l 365 3 q 328 -176 365 -114 q 119 -282 268 -282 q -21 -243 33 -282 q -75 -143 -75 -204 q -51 -82 -75 -106 q 11 -58 -28 -58 q 69 -80 46 -58 q 93 -133 93 -101 q 74 -185 93 -156 q 61 -215 61 -206 q 106 -239 61 -239 q 156 -214 140 -239 q 172 -133 172 -189 l 172 289 l 32 289 l 32 353 l 172 353 l 172 524 q 155 587 172 568 q 85 607 138 606 l 85 640 l 436 640 z "},"ɠ":{"ha":871,"x_min":51,"x_max":919,"o":"m 479 -94 l 479 58 q 308 -19 418 -19 q 125 69 199 -19 q 51 304 51 157 q 137 556 51 454 q 360 657 222 657 q 479 626 425 657 q 535 878 479 810 q 722 949 593 949 q 865 910 811 949 q 919 810 919 871 q 896 746 919 771 q 835 721 872 721 q 776 744 800 721 q 751 800 751 768 q 767 851 751 828 q 782 879 782 874 q 742 906 782 906 q 688 881 704 906 q 672 796 672 857 l 672 -25 q 662 -111 672 -61 q 635 -189 651 -161 q 349 -340 549 -340 q 153 -301 226 -340 q 76 -187 76 -261 q 100 -126 76 -150 q 163 -103 124 -103 q 221 -124 197 -103 q 244 -178 244 -146 q 225 -229 244 -200 q 213 -260 213 -250 q 244 -288 213 -279 q 306 -297 275 -297 q 429 -228 379 -297 q 479 -94 479 -158 m 479 136 l 479 492 q 453 581 479 549 q 386 613 428 613 q 290 542 325 613 q 254 328 254 471 q 289 124 254 192 q 383 56 324 56 q 451 77 422 56 q 479 136 479 99 z "},"ɡ":{"ha":793,"x_min":51,"x_max":672,"o":"m 672 656 l 672 -25 q 662 -111 672 -61 q 635 -189 651 -161 q 349 -340 549 -340 q 153 -301 226 -340 q 76 -187 76 -261 q 100 -126 76 -150 q 163 -103 124 -103 q 221 -124 197 -103 q 244 -178 244 -146 q 225 -229 244 -200 q 213 -260 213 -250 q 244 -288 213 -279 q 306 -297 275 -297 q 429 -228 379 -297 q 479 -94 479 -158 l 479 58 q 308 -19 418 -19 q 125 69 199 -19 q 51 304 51 157 q 137 556 51 454 q 360 657 222 657 q 451 640 413 657 q 543 579 490 624 l 650 656 l 672 656 m 479 136 l 479 492 q 453 581 479 549 q 386 613 428 613 q 290 542 325 613 q 254 328 254 471 q 289 124 254 192 q 383 56 324 56 q 451 77 422 56 q 479 136 479 99 z "},"ɢ":{"ha":819,"x_min":49,"x_max":771,"o":"m 771 267 l 771 244 q 701 219 718 239 q 685 151 685 199 l 685 43 q 407 -15 579 -15 q 150 73 251 -15 q 49 307 49 161 q 149 543 49 446 q 399 640 250 640 q 557 607 463 640 q 600 594 582 594 q 625 603 615 594 q 647 638 635 611 l 674 638 l 674 421 l 649 421 q 601 503 619 476 q 551 558 582 531 q 413 610 492 610 q 274 533 324 610 q 225 315 225 457 q 276 94 225 174 q 432 15 329 15 q 526 93 526 15 l 526 175 q 508 227 526 213 q 425 244 489 242 l 425 267 l 771 267 z "},"ɣ":{"ha":739,"x_min":33,"x_max":704,"o":"m 704 607 l 686 607 q 628 526 657 607 l 479 122 l 539 -25 q 583 -176 583 -133 q 535 -283 583 -242 q 415 -324 486 -324 q 256 -197 256 -324 q 285 -100 256 -167 l 331 1 l 153 435 q 85 582 125 501 q 33 607 75 603 l 33 640 l 379 640 l 379 607 q 307 574 307 607 q 350 451 307 558 l 435 232 l 526 486 q 544 563 544 535 q 541 583 544 575 q 528 597 538 592 q 515 603 519 601 q 498 606 511 604 q 483 608 485 608 l 483 640 l 704 640 l 704 607 m 375 -93 l 349 -158 q 338 -208 338 -186 q 381 -269 338 -269 q 417 -222 417 -269 q 407 -168 417 -192 l 375 -93 z "},"ɤ":{"ha":714,"x_min":24,"x_max":690,"o":"m 382 365 l 514 563 q 600 625 554 625 q 668 592 646 625 q 690 513 690 560 q 672 418 690 472 l 658 418 q 593 492 635 492 q 524 450 550 492 l 426 300 l 486 200 q 524 96 524 139 q 467 15 524 43 q 353 -14 411 -14 q 259 16 297 -14 q 221 100 221 46 q 254 188 221 140 l 306 260 l 222 389 q 208 412 219 394 q 190 440 197 429 q 170 465 182 451 q 146 485 158 478 q 121 492 133 492 q 54 418 81 492 l 40 418 q 24 496 24 461 q 57 585 24 547 q 140 624 90 624 q 285 515 215 624 l 382 365 m 403 79 q 350 188 403 101 q 341 176 347 185 q 333 164 335 167 q 325 153 331 161 q 317 142 319 146 q 312 130 315 138 q 308 117 308 122 q 306 103 307 111 q 304 88 304 96 q 318 48 304 64 q 356 32 332 32 q 389 47 375 32 q 403 79 403 61 z "},"ɥ":{"ha":764,"x_min":24,"x_max":744,"o":"m 744 -314 l 476 -314 l 476 75 q 272 -32 386 -32 q 140 21 189 -32 q 92 157 92 74 l 92 504 q 76 572 92 551 q 24 592 60 592 l 24 625 l 349 625 l 349 592 q 299 569 314 588 q 285 507 285 550 l 285 196 q 300 91 285 121 q 356 61 315 61 q 453 108 406 61 q 476 142 476 132 l 476 507 q 463 568 476 550 q 410 592 449 586 l 410 625 l 743 625 l 743 592 q 681 569 693 582 q 669 501 669 557 l 669 -196 q 682 -258 669 -244 q 744 -281 694 -271 l 744 -314 z "},"ɦ":{"ha":764,"x_min":19,"x_max":739,"o":"m 739 0 l 414 0 l 414 33 q 463 56 449 38 q 478 118 478 75 l 478 429 q 463 534 478 504 q 407 564 447 564 q 310 517 357 564 q 286 483 286 493 l 286 118 q 300 57 286 75 q 353 33 314 39 l 353 0 l 19 0 l 19 33 q 81 56 69 43 q 93 124 93 68 l 93 669 q 149 878 93 811 q 336 949 207 949 q 479 910 425 949 q 533 810 533 871 q 510 746 533 771 q 449 721 486 721 q 390 744 414 721 q 365 800 365 768 q 381 851 365 828 q 396 879 396 874 q 356 906 396 906 q 303 885 319 906 q 286 813 286 864 l 286 550 q 490 657 376 657 q 622 604 574 657 q 671 468 671 551 l 671 121 q 687 53 671 74 q 739 33 703 33 l 739 0 z "},"ɧ":{"ha":772,"x_min":22,"x_max":674,"o":"m 674 468 l 674 0 q 636 -179 674 -117 q 428 -285 576 -285 q 288 -246 342 -285 q 233 -146 233 -207 q 257 -85 233 -108 q 319 -61 281 -61 q 378 -83 354 -61 q 401 -136 401 -104 q 382 -187 401 -158 q 369 -218 369 -208 q 414 -242 369 -242 q 481 -151 481 -242 l 481 429 q 465 534 481 504 q 410 564 450 564 q 313 517 360 564 q 289 483 289 493 l 289 118 q 303 57 289 75 q 356 33 317 39 l 356 0 l 22 0 l 22 33 q 84 56 72 43 q 96 124 96 68 l 96 669 q 151 878 96 811 q 339 949 210 949 q 482 910 428 949 q 536 810 536 871 q 513 746 536 771 q 451 721 489 721 q 392 744 417 721 q 368 800 368 768 q 383 851 368 828 q 399 879 399 874 q 358 906 399 906 q 306 885 322 906 q 289 813 289 864 l 289 550 q 493 657 379 657 q 625 604 576 657 q 674 468 674 551 z "},"ɨ":{"ha":406,"x_min":29,"x_max":364,"o":"m 307 851 q 276 775 307 806 q 199 744 244 744 q 122 775 153 744 q 92 851 92 806 q 123 928 92 897 q 201 960 154 960 q 276 928 244 960 q 307 851 307 896 m 364 0 l 31 0 l 31 33 q 92 60 79 44 q 104 122 104 75 l 104 310 l 31 310 l 31 374 l 104 374 l 104 518 q 90 581 104 564 q 29 607 75 597 l 29 640 l 297 640 l 297 374 l 360 374 l 360 310 l 297 310 l 297 118 q 312 56 297 74 q 364 33 326 39 l 364 0 z "},"ɩ":{"ha":508,"x_min":31,"x_max":471,"o":"m 449 132 l 471 108 q 272 -11 399 -11 q 110 178 110 -11 l 110 472 q 93 539 110 539 q 31 525 71 539 l 31 563 q 276 633 218 633 q 303 594 303 633 l 303 149 q 318 88 303 107 q 350 69 333 69 q 449 132 400 69 z "},"ɪ":{"ha":413,"x_min":36,"x_max":367,"o":"m 367 0 l 36 0 l 36 24 q 108 43 90 29 q 125 101 125 57 l 125 544 q 106 599 125 585 q 36 617 88 614 l 36 640 l 367 640 l 367 617 q 297 599 315 614 q 279 544 279 585 l 279 101 q 296 41 279 56 q 367 24 313 26 l 367 0 z "},"ɫ":{"ha":549,"x_min":21,"x_max":528,"o":"m 468 601 l 528 601 q 368 425 481 425 l 368 121 q 385 55 368 75 q 438 33 401 35 l 438 0 l 104 0 l 104 33 q 175 121 175 39 l 175 488 q 147 493 158 493 q 102 475 121 493 q 79 428 83 457 l 21 428 q 175 601 56 597 l 175 815 q 103 906 175 900 l 103 939 l 368 939 l 368 538 q 393 533 378 533 q 438 549 421 533 q 468 601 454 564 z "},"ɬ":{"ha":619,"x_min":24,"x_max":594,"o":"m 579 533 l 594 504 q 574 475 588 493 q 515 414 561 457 q 415 344 468 371 l 415 121 q 432 55 415 75 q 485 33 449 35 l 485 0 l 151 0 l 151 33 q 222 121 222 39 l 222 319 q 185 318 208 318 q 70 360 117 318 q 24 476 24 401 q 71 596 24 556 q 185 636 118 636 q 222 629 194 636 l 222 815 q 150 906 222 900 l 150 939 l 415 939 l 415 417 q 579 533 488 442 m 222 383 l 222 579 q 190 585 208 585 q 133 555 160 585 q 107 490 107 525 q 182 385 107 400 q 222 383 189 383 z "},"ɭ":{"ha":453,"x_min":21,"x_max":533,"o":"m 286 939 l 286 -153 q 303 -242 286 -204 q 353 -281 321 -281 q 397 -257 397 -281 q 385 -226 397 -247 q 365 -175 365 -197 q 389 -122 365 -143 q 447 -100 413 -100 q 510 -124 486 -100 q 533 -185 533 -147 q 479 -285 533 -246 q 339 -324 425 -324 q 131 -218 194 -324 q 93 -81 93 -156 l 93 815 q 21 906 93 900 l 21 939 l 286 939 z "},"ɮ":{"ha":860,"x_min":33,"x_max":838,"o":"m 815 588 l 546 314 q 619 322 576 322 q 769 242 701 322 q 838 36 838 163 q 790 -168 838 -85 q 688 -287 742 -251 q 531 -328 624 -328 q 422 -315 478 -328 q 335 -282 365 -303 q 269 -183 269 -237 q 290 -135 269 -156 q 351 -114 310 -114 q 444 -207 431 -114 q 478 -257 450 -237 q 540 -276 506 -276 q 661 11 661 -276 q 634 168 661 103 q 544 233 607 233 q 393 168 458 233 l 356 201 l 672 524 l 389 524 q 340 503 367 524 q 299 449 314 483 l 299 121 q 315 55 299 75 q 368 33 332 35 l 368 0 l 35 0 l 35 33 q 106 121 106 39 l 106 815 q 33 906 106 900 l 33 939 l 299 939 l 299 625 l 815 625 l 815 588 z "},"ɯ":{"ha":1150,"x_min":22,"x_max":1132,"o":"m 1132 17 l 865 17 l 865 121 l 861 121 q 774 28 821 57 q 661 0 728 0 q 556 28 596 0 q 483 121 515 56 q 384 27 429 54 q 279 0 339 0 q 142 53 193 0 q 92 197 92 106 l 92 542 q 77 604 92 586 q 22 624 63 622 l 22 657 l 351 657 l 351 624 q 299 603 313 621 q 285 542 285 586 l 285 225 q 358 93 285 93 q 439 128 399 93 q 464 153 451 138 q 476 174 476 168 l 476 542 q 463 601 476 582 q 413 624 449 619 l 413 657 l 735 657 l 735 624 q 683 603 697 621 q 669 542 669 585 l 669 208 q 687 119 669 146 q 744 93 704 93 q 816 124 771 93 q 861 179 861 156 l 861 542 q 848 600 861 582 q 799 624 835 618 l 799 657 l 1131 657 l 1131 624 q 1069 598 1085 615 q 1054 538 1054 581 l 1054 139 q 1069 74 1054 90 q 1132 50 1085 57 l 1132 17 z "},"ɰ":{"ha":1193,"x_min":22,"x_max":1161,"o":"m 1161 -324 l 783 -324 l 783 -290 q 845 -267 829 -282 q 861 -215 861 -251 l 861 121 q 774 28 821 57 q 661 0 728 0 q 556 28 596 0 q 483 121 515 56 q 384 27 429 54 q 279 0 339 0 q 142 53 193 0 q 92 197 92 106 l 92 542 q 77 604 92 586 q 22 624 63 622 l 22 657 l 351 657 l 351 624 q 299 603 313 621 q 285 542 285 586 l 285 225 q 358 93 285 93 q 439 128 399 93 q 464 153 451 138 q 476 174 476 168 l 476 542 q 463 601 476 582 q 413 624 449 619 l 413 657 l 735 657 l 735 624 q 683 603 697 621 q 669 542 669 585 l 669 208 q 687 119 669 146 q 744 93 704 93 q 816 124 771 93 q 861 179 861 156 l 861 542 q 848 600 861 582 q 799 624 835 618 l 799 657 l 1131 657 l 1131 624 q 1069 598 1085 615 q 1054 538 1054 581 l 1054 -149 q 1077 -254 1054 -221 q 1161 -290 1100 -287 l 1161 -324 z "}}}
